<?xml version="1.0" encoding="UTF-8" standalone="no"?>
<!DOCTYPE svg PUBLIC "-//W3C//DTD SVG 1.1//EN" "http://www.w3.org/Graphics/SVG/1.1/DTD/svg11.dtd">
<svg xmlns="http://www.w3.org/2000/svg" version="1.1" viewBox="0.00 0.00 626.00 626.00">
<g stroke-width="5.00" fill="none" stroke-linecap="butt">
<path stroke="#7f7a77" vector-effect="non-scaling-stroke" d="
  M 294.16 452.79
  C 288.46 451.45 280.58 450.42 275.02 452.47
  C 270.25 454.23 265.28 457.85 265.57 463.52
  C 266.58 483.19 306.40 478.70 300.87 458.24
  Q 300.67 457.49 301.33 457.90
  L 308.10 462.12
  Q 308.58 462.42 308.77 462.96
  C 316.43 485.58 333.80 506.65 351.59 522.14
  Q 354.12 524.34 357.11 525.55
  A 2.26 2.26 0.0 0 0 359.80 524.76
  Q 360.24 524.14 359.86 522.77
  Q 358.50 517.81 355.83 513.38
  C 344.36 494.31 329.08 475.70 311.24 462.26
  Q 310.21 461.49 309.86 460.23
  C 307.65 452.37 306.67 444.42 308.51 436.25
  C 310.74 426.37 317.50 425.14 325.44 421.69
  Q 328.31 420.45 331.91 419.74
  C 339.77 418.18 347.48 414.40 354.68 409.92
  Q 366.45 402.60 377.52 394.26
  C 386.41 387.55 392.82 380.20 396.39 369.47
  C 399.56 359.91 401.00 349.93 399.37 339.90
  C 396.78 323.86 383.62 318.42 369.44 324.09
  Q 358.53 328.46 352.55 339.76
  C 348.34 347.73 348.45 354.20 338.72 358.03
  Q 338.25 358.21 338.52 357.79
  C 346.44 345.50 354.97 327.18 346.58 312.92
  C 335.42 293.94 311.46 306.18 303.91 320.96
  C 299.07 330.44 303.25 339.22 310.47 345.98
  Q 310.93 346.41 310.31 346.57
  Q 305.11 347.90 300.68 350.93
  A 0.86 0.86 0.0 0 1 299.42 350.59
  C 297.68 346.93 294.33 344.05 292.51 340.43
  Q 292.12 339.66 292.97 339.49
  Q 297.99 338.48 298.66 335.01
  C 299.27 331.84 297.30 329.39 293.99 329.28
  C 289.90 329.16 289.41 334.75 289.84 337.69
  A 1.89 1.89 0.0 0 1 287.55 339.81
  Q 285.67 339.38 283.47 337.26
  C 278.58 332.55 290.47 325.69 283.09 318.97
  Q 282.71 318.62 282.19 318.72
  Q 281.99 318.76 281.84 318.89
  Q 281.41 319.27 281.71 319.76
  Q 282.41 320.90 283.13 322.06
  C 287.00 328.26 272.88 334.76 286.55 341.40
  Q 288.58 342.38 290.23 341.55
  Q 290.63 341.34 290.90 341.71
  L 299.00 352.91
  Q 299.39 353.46 299.99 353.14
  L 302.57 351.78
  Q 303.21 351.44 303.01 352.14
  Q 301.85 356.11 304.42 356.64
  C 306.97 357.17 307.86 357.10 309.39 359.43
  C 313.39 365.50 316.14 370.75 324.79 368.89
  Q 325.41 368.76 325.00 369.24
  Q 320.63 374.42 318.26 380.77
  Q 318.02 381.39 317.63 380.86
  C 310.59 371.21 303.27 373.62 292.81 374.00
  A 2.50 2.50 0.0 0 1 290.30 370.86
  C 292.31 363.31 297.23 358.04 293.84 349.73
  C 292.75 347.07 290.31 346.78 288.65 349.14
  Q 286.05 352.80 283.50 356.48
  Q 281.76 358.98 279.48 357.55
  C 274.94 354.70 273.35 345.65 273.23 340.31
  C 273.17 337.74 272.82 335.23 271.69 333.32
  C 269.35 329.38 265.39 333.37 264.98 336.25
  Q 263.71 345.17 265.48 353.61
  Q 266.00 356.09 264.58 353.99
  Q 258.99 345.68 253.21 336.04
  Q 251.84 333.77 249.91 332.92
  A 2.66 2.66 0.0 0 0 246.69 333.79
  C 242.37 339.75 246.55 349.50 249.73 354.98
  Q 249.88 355.24 249.61 355.12
  Q 242.62 351.95 238.67 345.68
  A 2.44 2.43 62.8 0 0 235.70 344.72
  C 233.50 345.61 232.86 350.21 232.87 352.29
  C 232.91 357.67 238.75 364.96 243.23 369.08
  Q 243.70 369.51 243.07 369.57
  C 240.30 369.81 224.62 372.38 226.59 377.71
  Q 227.14 379.20 228.57 379.19
  Q 235.80 379.16 237.77 379.52
  C 248.25 381.45 259.69 390.20 267.30 397.45
  C 276.20 405.92 284.37 413.90 294.32 418.39
  Q 297.96 420.04 293.98 419.71
  C 274.53 418.10 259.44 424.58 243.94 435.69
  Q 230.61 445.26 217.10 454.57
  C 210.11 459.38 202.63 464.18 194.43 466.60
  Q 185.88 469.12 180.59 462.16
  C 173.85 453.31 168.40 445.16 158.90 438.86
  C 153.19 435.08 145.60 435.22 141.48 441.22
  C 139.58 443.98 140.30 447.25 142.78 449.64
  C 146.63 453.34 149.62 455.40 150.88 461.54
  Q 152.11 467.50 153.23 473.49
  C 154.36 479.55 156.36 482.13 159.35 486.44
  C 162.06 490.35 162.23 494.02 162.84 498.74
  C 164.14 508.71 178.46 513.34 185.85 506.86
  C 189.08 504.03 191.99 499.53 197.26 498.50
  Q 204.01 497.17 210.89 497.99
  Q 211.39 498.05 211.52 498.54
  Q 212.33 501.43 214.13 503.36
  Q 227.15 517.27 242.93 529.94
  C 253.01 538.03 268.42 545.53 275.31 528.52
  Q 277.15 523.98 277.75 519.57
  Q 278.08 517.11 278.92 519.45
  Q 284.16 534.08 293.35 547.90
  C 305.77 566.56 323.03 577.85 346.65 573.89
  C 391.56 566.37 417.26 528.26 429.65 487.74
  Q 442.33 446.28 445.12 402.99
  C 446.57 380.41 445.15 358.38 435.72 337.56
  Q 433.44 332.52 429.19 325.38
  C 424.61 317.69 418.77 309.70 415.53 302.01
  C 410.55 290.21 411.58 278.18 412.22 265.75
  C 412.97 251.32 410.56 237.42 402.05 225.15
  Q 400.19 222.47 398.27 219.83
  Q 396.32 217.14 395.24 214.13
  C 386.21 188.83 375.53 163.24 369.60 137.45
  C 363.84 112.41 365.99 87.24 371.96 62.00
  Q 374.98 49.23 376.87 42.17
  A 0.63 0.63 0.0 0 0 376.39 41.39
  L 376.15 41.33
  Q 375.34 41.15 375.13 41.95
  C 368.82 66.48 362.99 90.98 364.79 116.55
  C 366.06 134.48 371.26 153.08 377.38 170.04
  Q 385.07 191.32 392.91 212.55
  Q 393.18 213.29 393.25 214.13
  Q 393.28 214.59 392.96 214.26
  C 380.21 200.83 359.44 190.07 341.10 188.47
  C 324.31 187.01 309.32 191.95 295.82 202.19
  C 272.17 220.14 253.04 252.85 260.95 283.49
  Q 261.16 284.28 262.13 286.07
  Q 262.35 286.48 262.68 286.63
  Q 263.22 286.88 263.55 286.62
  A 1.87 1.86 -20.1 0 0 264.27 285.07
  C 264.02 279.39 263.09 270.46 266.41 265.70
  C 270.04 260.51 276.84 256.18 281.73 251.74
  C 288.75 245.36 293.59 239.15 297.73 231.09
  Q 298.91 228.79 299.61 231.28
  C 300.93 235.98 302.59 241.57 305.20 245.58
  Q 312.69 257.06 326.31 259.50
  C 331.35 260.40 337.64 260.07 343.25 259.99
  C 360.36 259.76 362.28 279.13 364.81 291.50
  C 366.17 298.11 369.92 305.79 377.48 304.11
  C 388.29 301.72 390.83 284.96 390.18 276.30
  Q 390.14 275.82 390.63 275.87
  Q 404.90 277.48 408.76 290.76
  Q 409.68 293.91 411.13 295.40
  Q 411.48 295.76 411.62 296.24
  C 414.94 306.99 420.86 315.46 427.39 325.85
  C 442.14 349.34 445.29 374.77 443.62 402.00
  Q 441.03 444.04 428.52 485.75
  C 416.37 526.22 390.48 565.59 345.26 572.27
  C 319.20 576.11 302.02 560.71 290.05 539.42
  Q 283.54 527.84 279.44 515.20
  Q 279.13 514.25 279.19 513.26
  Q 279.59 507.00 278.94 500.77
  Q 278.74 498.83 277.35 498.58
  A 1.51 1.50 6.8 0 0 275.58 499.97
  Q 275.34 503.80 275.65 507.18
  C 275.86 509.45 277.08 512.64 276.80 515.50
  Q 276.12 522.51 272.78 529.60
  C 267.36 541.13 256.31 537.10 248.38 531.61
  C 236.63 523.49 226.07 513.08 216.14 502.87
  Q 214.41 501.10 213.40 499.06
  A 2.63 2.61 51.4 0 1 213.71 496.23
  C 217.25 491.83 225.49 488.92 230.91 487.80
  C 242.83 485.33 246.97 494.87 247.68 504.37
  C 248.06 509.37 248.65 512.69 250.10 516.96
  Q 250.38 517.77 250.93 517.99
  A 0.93 0.92 -76.9 0 0 252.19 517.20
  C 252.85 509.08 248.75 501.82 248.72 493.99
  C 248.65 475.16 259.30 455.13 278.74 450.72
  C 282.19 449.94 291.40 449.58 294.25 452.64
  Q 294.44 452.85 294.16 452.79"
/>
<path stroke="#7f7a77" vector-effect="non-scaling-stroke" d="
  M 309.7868 305.0543
  A 1.28 1.28 0.0 0 0 308.0041 304.7400
  L 297.2732 312.2538
  A 1.28 1.28 0.0 0 0 296.9588 314.0365
  L 296.9932 314.0857
  A 1.28 1.28 0.0 0 0 298.7759 314.4000
  L 309.5068 306.8862
  A 1.28 1.28 0.0 0 0 309.8212 305.1035
  L 309.7868 305.0543"
/>
<path stroke="#7f7a77" vector-effect="non-scaling-stroke" d="
  M 388.06 275.41
  C 382.32 274.70 368.47 273.52 373.06 263.54
  Q 373.85 261.80 375.76 261.53
  C 382.54 260.55 387.78 267.16 389.34 273.03
  Q 389.47 273.52 389.96 273.66
  C 396.99 275.76 401.12 275.82 406.28 282.29
  Q 406.73 282.86 406.60 282.15
  C 405.25 275.07 404.11 268.61 403.31 260.90
  Q 401.14 239.90 395.03 219.65
  Q 394.68 218.51 393.85 217.65
  C 374.91 198.01 346.51 184.53 319.21 192.10
  C 303.12 196.56 288.85 208.51 278.82 221.77
  C 265.76 239.03 257.57 259.30 262.06 280.79
  A 0.07 0.07 0.0 0 0 262.19 280.78
  C 262.50 276.31 262.08 271.08 263.82 267.21
  Q 266.17 262.01 271.25 258.23
  C 281.11 250.91 290.07 241.86 295.97 230.76
  Q 297.01 228.81 298.12 228.25
  A 1.90 1.90 0.0 0 1 300.80 229.41
  C 302.34 234.71 303.98 240.49 306.84 244.84
  Q 313.93 255.63 326.87 257.82
  C 331.42 258.58 337.37 258.25 342.50 258.24
  C 361.39 258.19 363.59 276.29 366.25 290.25
  C 367.41 296.29 371.56 306.67 379.90 301.18
  C 387.33 296.28 389.29 283.75 388.36 275.71
  A 0.34 0.34 0.0 0 0 388.06 275.41"
/>
<path stroke="#7f7a77" vector-effect="non-scaling-stroke" d="
  M 410.04 289.02
  Q 410.12 289.31 410.12 289.62
  Q 410.12 289.63 410.12 289.63
  Q 410.12 289.63 410.12 289.63
  Q 410.10 289.62 410.10 289.61
  Q 410.29 287.54 409.86 282.88
  Q 409.41 278.07 410.42 267.00
  C 411.83 251.62 408.25 235.53 398.37 222.71
  Q 397.43 221.50 397.86 222.96
  Q 402.28 238.25 404.24 254.76
  C 405.75 267.48 406.98 277.49 410.04 289.02"
/>
<path stroke="#7f7a77" vector-effect="non-scaling-stroke" d="
  M 378.98 263.61
  Q 374.46 261.72 373.98 265.99
  C 373.26 272.32 382.95 273.08 387.28 273.52
  A 0.28 0.28 0.0 0 0 387.58 273.16
  Q 385.56 266.34 378.98 263.61"
/>
<path stroke="#7f7a77" vector-effect="non-scaling-stroke" d="
  M 330.32 363.47
  C 339.72 357.05 348.63 336.83 348.49 326.01
  C 348.38 316.85 342.75 306.65 333.01 305.26
  C 322.10 303.72 311.02 311.65 305.94 320.95
  C 300.78 330.40 304.94 338.24 311.80 344.96
  Q 319.63 352.63 327.49 360.25
  Q 328.11 360.86 329.65 363.33
  Q 329.91 363.75 330.32 363.47"
/>
<path stroke="#7f7a77" vector-effect="non-scaling-stroke" d="
  M 320.38 389.73
  A 1.40 1.40 0.0 0 1 317.95 389.74
  Q 316.47 387.18 317.06 384.29
  Q 317.17 383.80 316.95 383.35
  C 312.28 373.74 303.92 374.89 295.00 375.78
  C 292.94 375.98 290.08 375.69 288.95 373.63
  Q 287.75 371.45 288.82 368.98
  C 291.79 362.18 295.10 356.37 291.97 349.85
  A 1.03 1.02 47.8 0 0 290.17 349.76
  Q 287.76 353.72 285.12 357.33
  C 282.43 361.01 277.92 360.06 275.77 356.46
  Q 271.66 349.57 271.58 341.19
  C 271.56 338.68 271.11 336.71 270.46 334.48
  A 1.35 1.35 0.0 0 0 268.17 333.95
  C 264.25 338.18 266.66 352.34 268.10 357.50
  Q 268.53 359.02 266.55 358.77
  Q 266.11 358.72 265.82 358.39
  Q 264.15 356.55 262.77 354.48
  Q 256.77 345.53 251.08 336.39
  Q 250.26 335.06 249.41 334.65
  A 1.35 1.35 0.0 0 0 247.58 335.37
  C 244.98 341.91 248.62 349.91 252.01 355.42
  C 253.75 358.25 259.21 359.22 258.46 363.01
  A 0.75 0.75 0.0 0 1 257.79 363.61
  C 254.31 363.89 252.77 358.74 249.52 357.15
  C 243.96 354.44 240.15 351.49 237.41 346.89
  A 1.03 1.03 0.0 0 0 235.54 347.12
  C 232.86 355.82 239.36 363.28 245.29 368.65
  C 248.30 371.37 253.05 370.75 254.98 374.91
  A 1.16 1.16 0.0 0 1 253.58 376.51
  C 250.55 375.57 248.32 373.40 245.72 371.64
  Q 245.31 371.35 244.80 371.36
  C 239.93 371.40 231.97 372.77 228.37 376.39
  A 0.63 0.63 0.0 0 0 228.80 377.47
  C 234.95 377.67 239.54 377.49 246.01 380.25
  C 256.83 384.86 269.13 396.38 276.37 403.38
  Q 290.08 416.63 308.52 422.54
  Q 309.36 422.81 309.08 423.64
  L 308.99 423.91
  A 0.67 0.66 -69.3 0 1 308.11 424.31
  Q 304.98 423.04 300.24 422.22
  C 279.16 418.58 262.35 424.50 245.22 436.93
  Q 225.38 451.33 218.17 456.18
  C 209.70 461.87 191.07 474.19 182.62 466.63
  Q 178.64 463.07 177.74 461.75
  C 171.58 452.72 159.51 436.02 148.51 438.29
  C 145.52 438.91 142.02 441.86 142.14 445.23
  Q 142.19 446.78 143.15 447.60
  C 148.88 452.54 151.51 455.23 152.79 462.47
  C 154.09 469.76 154.88 477.88 159.67 483.96
  C 162.04 486.98 163.23 489.09 163.74 492.54
  C 164.70 499.13 164.73 504.79 172.22 507.24
  Q 176.48 508.63 180.55 507.60
  C 186.83 506.01 188.96 498.77 195.76 497.03
  Q 202.86 495.22 210.84 496.25
  Q 211.37 496.32 211.67 495.89
  C 215.66 490.25 224.61 487.35 231.26 485.96
  Q 239.28 484.28 244.32 489.83
  C 245.01 490.59 245.69 491.97 246.55 492.92
  Q 247.05 493.46 247.06 492.73
  C 247.31 473.03 260.22 449.85 282.14 448.58
  C 288.09 448.23 293.91 449.05 298.23 453.47
  C 300.85 456.16 304.11 457.38 307.10 459.43
  Q 308.06 460.09 307.76 458.96
  C 305.62 450.90 304.87 442.44 307.26 434.26
  C 309.67 426.04 315.62 423.29 323.20 421.01
  Q 323.88 420.81 323.21 420.57
  C 319.43 419.23 315.39 418.44 315.78 413.27
  C 316.47 404.15 326.64 402.30 332.43 408.59
  Q 336.57 413.09 332.55 417.57
  Q 331.94 418.24 332.81 417.99
  C 346.31 414.01 359.46 405.21 371.34 396.85
  C 382.01 389.33 391.04 380.79 395.11 367.97
  C 399.24 354.97 402.43 329.94 385.83 324.59
  C 374.06 320.80 361.87 328.47 355.62 337.98
  C 352.21 343.17 350.74 352.41 345.76 356.06
  C 342.44 358.49 338.05 360.12 334.69 362.73
  Q 330.38 366.09 329.05 367.33
  Q 323.05 372.95 319.31 382.74
  Q 319.14 383.20 319.31 383.65
  C 319.99 385.39 321.31 388.08 320.38 389.73"
/>
<path stroke="#7f7a77" vector-effect="non-scaling-stroke" d="
  M 292.64 331.44
  C 291.59 332.96 291.25 335.35 291.53 337.10
  Q 291.63 337.79 292.31 337.63
  L 295.38 336.91
  A 2.15 2.13 85.8 0 0 297.03 334.98
  Q 297.34 330.92 293.48 331.00
  A 1.06 1.06 0.0 0 0 292.64 331.44"
/>
<path stroke="#7f7a77" vector-effect="non-scaling-stroke" d="
  M 328.36 365.42
  A 0.54 0.54 0.0 0 0 328.53 364.63
  C 324.10 358.51 317.88 353.57 312.41 348.31
  Q 312.04 347.95 311.64 348.28
  C 309.07 350.31 306.43 350.97 304.24 353.70
  A 0.72 0.72 0.0 0 0 304.77 354.87
  C 309.55 355.11 310.67 358.05 312.83 361.58
  C 316.54 367.62 321.76 369.24 328.36 365.42"
/>
<path stroke="#7f7a77" vector-effect="non-scaling-stroke" d="
  M 331.65 415.64
  C 337.04 409.61 319.29 400.03 317.50 413.26
  C 316.91 417.67 322.85 419.01 326.16 418.73
  C 328.81 418.50 329.95 417.54 331.65 415.64"
/>
<path stroke="#7f7a77" vector-effect="non-scaling-stroke" d="
  M 292.34 472.17
  C 298.58 469.34 302.01 463.33 298.22 456.77
  A 1.50 1.50 0.0 0 0 297.54 456.15
  C 289.91 452.66 279.34 451.40 271.77 455.96
  C 264.31 460.45 267.12 469.94 273.98 472.82
  Q 282.79 476.51 292.34 472.17"
/>
<path stroke="#7f7a77" vector-effect="non-scaling-stroke" d="
  M 311.55 465.76
  C 317.49 480.53 327.14 494.23 337.66 506.01
  C 342.97 511.95 350.80 521.37 357.86 523.99
  A 0.45 0.44 -87.7 0 0 358.44 523.45
  C 357.46 520.03 356.11 516.91 354.14 513.70
  Q 336.98 485.81 312.26 465.25
  Q 310.88 464.09 311.55 465.76"
/>
</g>
<path fill="#f8efea" d="
  M 0.00 0.00
  L 626.00 0.00
  L 626.00 626.00
  L 0.00 626.00
  L 0.00 0.00
  Z
  M 294.16 452.79
  C 288.46 451.45 280.58 450.42 275.02 452.47
  C 270.25 454.23 265.28 457.85 265.57 463.52
  C 266.58 483.19 306.40 478.70 300.87 458.24
  Q 300.67 457.49 301.33 457.90
  L 308.10 462.12
  Q 308.58 462.42 308.77 462.96
  C 316.43 485.58 333.80 506.65 351.59 522.14
  Q 354.12 524.34 357.11 525.55
  A 2.26 2.26 0.0 0 0 359.80 524.76
  Q 360.24 524.14 359.86 522.77
  Q 358.50 517.81 355.83 513.38
  C 344.36 494.31 329.08 475.70 311.24 462.26
  Q 310.21 461.49 309.86 460.23
  C 307.65 452.37 306.67 444.42 308.51 436.25
  C 310.74 426.37 317.50 425.14 325.44 421.69
  Q 328.31 420.45 331.91 419.74
  C 339.77 418.18 347.48 414.40 354.68 409.92
  Q 366.45 402.60 377.52 394.26
  C 386.41 387.55 392.82 380.20 396.39 369.47
  C 399.56 359.91 401.00 349.93 399.37 339.90
  C 396.78 323.86 383.62 318.42 369.44 324.09
  Q 358.53 328.46 352.55 339.76
  C 348.34 347.73 348.45 354.20 338.72 358.03
  Q 338.25 358.21 338.52 357.79
  C 346.44 345.50 354.97 327.18 346.58 312.92
  C 335.42 293.94 311.46 306.18 303.91 320.96
  C 299.07 330.44 303.25 339.22 310.47 345.98
  Q 310.93 346.41 310.31 346.57
  Q 305.11 347.90 300.68 350.93
  A 0.86 0.86 0.0 0 1 299.42 350.59
  C 297.68 346.93 294.33 344.05 292.51 340.43
  Q 292.12 339.66 292.97 339.49
  Q 297.99 338.48 298.66 335.01
  C 299.27 331.84 297.30 329.39 293.99 329.28
  C 289.90 329.16 289.41 334.75 289.84 337.69
  A 1.89 1.89 0.0 0 1 287.55 339.81
  Q 285.67 339.38 283.47 337.26
  C 278.58 332.55 290.47 325.69 283.09 318.97
  Q 282.71 318.62 282.19 318.72
  Q 281.99 318.76 281.84 318.89
  Q 281.41 319.27 281.71 319.76
  Q 282.41 320.90 283.13 322.06
  C 287.00 328.26 272.88 334.76 286.55 341.40
  Q 288.58 342.38 290.23 341.55
  Q 290.63 341.34 290.90 341.71
  L 299.00 352.91
  Q 299.39 353.46 299.99 353.14
  L 302.57 351.78
  Q 303.21 351.44 303.01 352.14
  Q 301.85 356.11 304.42 356.64
  C 306.97 357.17 307.86 357.10 309.39 359.43
  C 313.39 365.50 316.14 370.75 324.79 368.89
  Q 325.41 368.76 325.00 369.24
  Q 320.63 374.42 318.26 380.77
  Q 318.02 381.39 317.63 380.86
  C 310.59 371.21 303.27 373.62 292.81 374.00
  A 2.50 2.50 0.0 0 1 290.30 370.86
  C 292.31 363.31 297.23 358.04 293.84 349.73
  C 292.75 347.07 290.31 346.78 288.65 349.14
  Q 286.05 352.80 283.50 356.48
  Q 281.76 358.98 279.48 357.55
  C 274.94 354.70 273.35 345.65 273.23 340.31
  C 273.17 337.74 272.82 335.23 271.69 333.32
  C 269.35 329.38 265.39 333.37 264.98 336.25
  Q 263.71 345.17 265.48 353.61
  Q 266.00 356.09 264.58 353.99
  Q 258.99 345.68 253.21 336.04
  Q 251.84 333.77 249.91 332.92
  A 2.66 2.66 0.0 0 0 246.69 333.79
  C 242.37 339.75 246.55 349.50 249.73 354.98
  Q 249.88 355.24 249.61 355.12
  Q 242.62 351.95 238.67 345.68
  A 2.44 2.43 62.8 0 0 235.70 344.72
  C 233.50 345.61 232.86 350.21 232.87 352.29
  C 232.91 357.67 238.75 364.96 243.23 369.08
  Q 243.70 369.51 243.07 369.57
  C 240.30 369.81 224.62 372.38 226.59 377.71
  Q 227.14 379.20 228.57 379.19
  Q 235.80 379.16 237.77 379.52
  C 248.25 381.45 259.69 390.20 267.30 397.45
  C 276.20 405.92 284.37 413.90 294.32 418.39
  Q 297.96 420.04 293.98 419.71
  C 274.53 418.10 259.44 424.58 243.94 435.69
  Q 230.61 445.26 217.10 454.57
  C 210.11 459.38 202.63 464.18 194.43 466.60
  Q 185.88 469.12 180.59 462.16
  C 173.85 453.31 168.40 445.16 158.90 438.86
  C 153.19 435.08 145.60 435.22 141.48 441.22
  C 139.58 443.98 140.30 447.25 142.78 449.64
  C 146.63 453.34 149.62 455.40 150.88 461.54
  Q 152.11 467.50 153.23 473.49
  C 154.36 479.55 156.36 482.13 159.35 486.44
  C 162.06 490.35 162.23 494.02 162.84 498.74
  C 164.14 508.71 178.46 513.34 185.85 506.86
  C 189.08 504.03 191.99 499.53 197.26 498.50
  Q 204.01 497.17 210.89 497.99
  Q 211.39 498.05 211.52 498.54
  Q 212.33 501.43 214.13 503.36
  Q 227.15 517.27 242.93 529.94
  C 253.01 538.03 268.42 545.53 275.31 528.52
  Q 277.15 523.98 277.75 519.57
  Q 278.08 517.11 278.92 519.45
  Q 284.16 534.08 293.35 547.90
  C 305.77 566.56 323.03 577.85 346.65 573.89
  C 391.56 566.37 417.26 528.26 429.65 487.74
  Q 442.33 446.28 445.12 402.99
  C 446.57 380.41 445.15 358.38 435.72 337.56
  Q 433.44 332.52 429.19 325.38
  C 424.61 317.69 418.77 309.70 415.53 302.01
  C 410.55 290.21 411.58 278.18 412.22 265.75
  C 412.97 251.32 410.56 237.42 402.05 225.15
  Q 400.19 222.47 398.27 219.83
  Q 396.32 217.14 395.24 214.13
  C 386.21 188.83 375.53 163.24 369.60 137.45
  C 363.84 112.41 365.99 87.24 371.96 62.00
  Q 374.98 49.23 376.87 42.17
  A 0.63 0.63 0.0 0 0 376.39 41.39
  L 376.15 41.33
  Q 375.34 41.15 375.13 41.95
  C 368.82 66.48 362.99 90.98 364.79 116.55
  C 366.06 134.48 371.26 153.08 377.38 170.04
  Q 385.07 191.32 392.91 212.55
  Q 393.18 213.29 393.25 214.13
  Q 393.28 214.59 392.96 214.26
  C 380.21 200.83 359.44 190.07 341.10 188.47
  C 324.31 187.01 309.32 191.95 295.82 202.19
  C 272.17 220.14 253.04 252.85 260.95 283.49
  Q 261.16 284.28 262.13 286.07
  Q 262.35 286.48 262.68 286.63
  Q 263.22 286.88 263.55 286.62
  A 1.87 1.86 -20.1 0 0 264.27 285.07
  C 264.02 279.39 263.09 270.46 266.41 265.70
  C 270.04 260.51 276.84 256.18 281.73 251.74
  C 288.75 245.36 293.59 239.15 297.73 231.09
  Q 298.91 228.79 299.61 231.28
  C 300.93 235.98 302.59 241.57 305.20 245.58
  Q 312.69 257.06 326.31 259.50
  C 331.35 260.40 337.64 260.07 343.25 259.99
  C 360.36 259.76 362.28 279.13 364.81 291.50
  C 366.17 298.11 369.92 305.79 377.48 304.11
  C 388.29 301.72 390.83 284.96 390.18 276.30
  Q 390.14 275.82 390.63 275.87
  Q 404.90 277.48 408.76 290.76
  Q 409.68 293.91 411.13 295.40
  Q 411.48 295.76 411.62 296.24
  C 414.94 306.99 420.86 315.46 427.39 325.85
  C 442.14 349.34 445.29 374.77 443.62 402.00
  Q 441.03 444.04 428.52 485.75
  C 416.37 526.22 390.48 565.59 345.26 572.27
  C 319.20 576.11 302.02 560.71 290.05 539.42
  Q 283.54 527.84 279.44 515.20
  Q 279.13 514.25 279.19 513.26
  Q 279.59 507.00 278.94 500.77
  Q 278.74 498.83 277.35 498.58
  A 1.51 1.50 6.8 0 0 275.58 499.97
  Q 275.34 503.80 275.65 507.18
  C 275.86 509.45 277.08 512.64 276.80 515.50
  Q 276.12 522.51 272.78 529.60
  C 267.36 541.13 256.31 537.10 248.38 531.61
  C 236.63 523.49 226.07 513.08 216.14 502.87
  Q 214.41 501.10 213.40 499.06
  A 2.63 2.61 51.4 0 1 213.71 496.23
  C 217.25 491.83 225.49 488.92 230.91 487.80
  C 242.83 485.33 246.97 494.87 247.68 504.37
  C 248.06 509.37 248.65 512.69 250.10 516.96
  Q 250.38 517.77 250.93 517.99
  A 0.93 0.92 -76.9 0 0 252.19 517.20
  C 252.85 509.08 248.75 501.82 248.72 493.99
  C 248.65 475.16 259.30 455.13 278.74 450.72
  C 282.19 449.94 291.40 449.58 294.25 452.64
  Q 294.44 452.85 294.16 452.79
  Z
  M 309.7868 305.0543
  A 1.28 1.28 0.0 0 0 308.0041 304.7400
  L 297.2732 312.2538
  A 1.28 1.28 0.0 0 0 296.9588 314.0365
  L 296.9932 314.0857
  A 1.28 1.28 0.0 0 0 298.7759 314.4000
  L 309.5068 306.8862
  A 1.28 1.28 0.0 0 0 309.8212 305.1035
  L 309.7868 305.0543
  Z"
/>
<path fill="#050403" d="
  M 294.25 452.64
  C 291.40 449.58 282.19 449.94 278.74 450.72
  C 259.30 455.13 248.65 475.16 248.72 493.99
  C 248.75 501.82 252.85 509.08 252.19 517.20
  A 0.93 0.92 -76.9 0 1 250.93 517.99
  Q 250.38 517.77 250.10 516.96
  C 248.65 512.69 248.06 509.37 247.68 504.37
  C 246.97 494.87 242.83 485.33 230.91 487.80
  C 225.49 488.92 217.25 491.83 213.71 496.23
  A 2.63 2.61 51.4 0 0 213.40 499.06
  Q 214.41 501.10 216.14 502.87
  C 226.07 513.08 236.63 523.49 248.38 531.61
  C 256.31 537.10 267.36 541.13 272.78 529.60
  Q 276.12 522.51 276.80 515.50
  C 277.08 512.64 275.86 509.45 275.65 507.18
  Q 275.34 503.80 275.58 499.97
  A 1.51 1.50 6.8 0 1 277.35 498.58
  Q 278.74 498.83 278.94 500.77
  Q 279.59 507.00 279.19 513.26
  Q 279.13 514.25 279.44 515.20
  Q 283.54 527.84 290.05 539.42
  C 302.02 560.71 319.20 576.11 345.26 572.27
  C 390.48 565.59 416.37 526.22 428.52 485.75
  Q 441.03 444.04 443.62 402.00
  C 445.29 374.77 442.14 349.34 427.39 325.85
  C 420.86 315.46 414.94 306.99 411.62 296.24
  Q 411.48 295.76 411.13 295.40
  Q 409.68 293.91 408.76 290.76
  Q 404.90 277.48 390.63 275.87
  Q 390.14 275.82 390.18 276.30
  C 390.83 284.96 388.29 301.72 377.48 304.11
  C 369.92 305.79 366.17 298.11 364.81 291.50
  C 362.28 279.13 360.36 259.76 343.25 259.99
  C 337.64 260.07 331.35 260.40 326.31 259.50
  Q 312.69 257.06 305.20 245.58
  C 302.59 241.57 300.93 235.98 299.61 231.28
  Q 298.91 228.79 297.73 231.09
  C 293.59 239.15 288.75 245.36 281.73 251.74
  C 276.84 256.18 270.04 260.51 266.41 265.70
  C 263.09 270.46 264.02 279.39 264.27 285.07
  A 1.87 1.86 -20.1 0 1 263.55 286.62
  Q 263.22 286.88 262.68 286.63
  Q 262.35 286.48 262.13 286.07
  Q 261.16 284.28 260.95 283.49
  C 253.04 252.85 272.17 220.14 295.82 202.19
  C 309.32 191.95 324.31 187.01 341.10 188.47
  C 359.44 190.07 380.21 200.83 392.96 214.26
  Q 393.28 214.59 393.25 214.13
  Q 393.18 213.29 392.91 212.55
  Q 385.07 191.32 377.38 170.04
  C 371.26 153.08 366.06 134.48 364.79 116.55
  C 362.99 90.98 368.82 66.48 375.13 41.95
  Q 375.34 41.15 376.15 41.33
  L 376.39 41.39
  A 0.63 0.63 0.0 0 1 376.87 42.17
  Q 374.98 49.23 371.96 62.00
  C 365.99 87.24 363.84 112.41 369.60 137.45
  C 375.53 163.24 386.21 188.83 395.24 214.13
  Q 396.32 217.14 398.27 219.83
  Q 400.19 222.47 402.05 225.15
  C 410.56 237.42 412.97 251.32 412.22 265.75
  C 411.58 278.18 410.55 290.21 415.53 302.01
  C 418.77 309.70 424.61 317.69 429.19 325.38
  Q 433.44 332.52 435.72 337.56
  C 445.15 358.38 446.57 380.41 445.12 402.99
  Q 442.33 446.28 429.65 487.74
  C 417.26 528.26 391.56 566.37 346.65 573.89
  C 323.03 577.85 305.77 566.56 293.35 547.90
  Q 284.16 534.08 278.92 519.45
  Q 278.08 517.11 277.75 519.57
  Q 277.15 523.98 275.31 528.52
  C 268.42 545.53 253.01 538.03 242.93 529.94
  Q 227.15 517.27 214.13 503.36
  Q 212.33 501.43 211.52 498.54
  Q 211.39 498.05 210.89 497.99
  Q 204.01 497.17 197.26 498.50
  C 191.99 499.53 189.08 504.03 185.85 506.86
  C 178.46 513.34 164.14 508.71 162.84 498.74
  C 162.23 494.02 162.06 490.35 159.35 486.44
  C 156.36 482.13 154.36 479.55 153.23 473.49
  Q 152.11 467.50 150.88 461.54
  C 149.62 455.40 146.63 453.34 142.78 449.64
  C 140.30 447.25 139.58 443.98 141.48 441.22
  C 145.60 435.22 153.19 435.08 158.90 438.86
  C 168.40 445.16 173.85 453.31 180.59 462.16
  Q 185.88 469.12 194.43 466.60
  C 202.63 464.18 210.11 459.38 217.10 454.57
  Q 230.61 445.26 243.94 435.69
  C 259.44 424.58 274.53 418.10 293.98 419.71
  Q 297.96 420.04 294.32 418.39
  C 284.37 413.90 276.20 405.92 267.30 397.45
  C 259.69 390.20 248.25 381.45 237.77 379.52
  Q 235.80 379.16 228.57 379.19
  Q 227.14 379.20 226.59 377.71
  C 224.62 372.38 240.30 369.81 243.07 369.57
  Q 243.70 369.51 243.23 369.08
  C 238.75 364.96 232.91 357.67 232.87 352.29
  C 232.86 350.21 233.50 345.61 235.70 344.72
  A 2.44 2.43 62.8 0 1 238.67 345.68
  Q 242.62 351.95 249.61 355.12
  Q 249.88 355.24 249.73 354.98
  C 246.55 349.50 242.37 339.75 246.69 333.79
  A 2.66 2.66 0.0 0 1 249.91 332.92
  Q 251.84 333.77 253.21 336.04
  Q 258.99 345.68 264.58 353.99
  Q 266.00 356.09 265.48 353.61
  Q 263.71 345.17 264.98 336.25
  C 265.39 333.37 269.35 329.38 271.69 333.32
  C 272.82 335.23 273.17 337.74 273.23 340.31
  C 273.35 345.65 274.94 354.70 279.48 357.55
  Q 281.76 358.98 283.50 356.48
  Q 286.05 352.80 288.65 349.14
  C 290.31 346.78 292.75 347.07 293.84 349.73
  C 297.23 358.04 292.31 363.31 290.30 370.86
  A 2.50 2.50 0.0 0 0 292.81 374.00
  C 303.27 373.62 310.59 371.21 317.63 380.86
  Q 318.02 381.39 318.26 380.77
  Q 320.63 374.42 325.00 369.24
  Q 325.41 368.76 324.79 368.89
  C 316.14 370.75 313.39 365.50 309.39 359.43
  C 307.86 357.10 306.97 357.17 304.42 356.64
  Q 301.85 356.11 303.01 352.14
  Q 303.21 351.44 302.57 351.78
  L 299.99 353.14
  Q 299.39 353.46 299.00 352.91
  L 290.90 341.71
  Q 290.63 341.34 290.23 341.55
  Q 288.58 342.38 286.55 341.40
  C 272.88 334.76 287.00 328.26 283.13 322.06
  Q 282.41 320.90 281.71 319.76
  Q 281.41 319.27 281.84 318.89
  Q 281.99 318.76 282.19 318.72
  Q 282.71 318.62 283.09 318.97
  C 290.47 325.69 278.58 332.55 283.47 337.26
  Q 285.67 339.38 287.55 339.81
  A 1.89 1.89 0.0 0 0 289.84 337.69
  C 289.41 334.75 289.90 329.16 293.99 329.28
  C 297.30 329.39 299.27 331.84 298.66 335.01
  Q 297.99 338.48 292.97 339.49
  Q 292.12 339.66 292.51 340.43
  C 294.33 344.05 297.68 346.93 299.42 350.59
  A 0.86 0.86 0.0 0 0 300.68 350.93
  Q 305.11 347.90 310.31 346.57
  Q 310.93 346.41 310.47 345.98
  C 303.25 339.22 299.07 330.44 303.91 320.96
  C 311.46 306.18 335.42 293.94 346.58 312.92
  C 354.97 327.18 346.44 345.50 338.52 357.79
  Q 338.25 358.21 338.72 358.03
  C 348.45 354.20 348.34 347.73 352.55 339.76
  Q 358.53 328.46 369.44 324.09
  C 383.62 318.42 396.78 323.86 399.37 339.90
  C 401.00 349.93 399.56 359.91 396.39 369.47
  C 392.82 380.20 386.41 387.55 377.52 394.26
  Q 366.45 402.60 354.68 409.92
  C 347.48 414.40 339.77 418.18 331.91 419.74
  Q 328.31 420.45 325.44 421.69
  C 317.50 425.14 310.74 426.37 308.51 436.25
  C 306.67 444.42 307.65 452.37 309.86 460.23
  Q 310.21 461.49 311.24 462.26
  C 329.08 475.70 344.36 494.31 355.83 513.38
  Q 358.50 517.81 359.86 522.77
  Q 360.24 524.14 359.80 524.76
  A 2.26 2.26 0.0 0 1 357.11 525.55
  Q 354.12 524.34 351.59 522.14
  C 333.80 506.65 316.43 485.58 308.77 462.96
  Q 308.58 462.42 308.10 462.12
  L 301.33 457.90
  Q 300.67 457.49 300.87 458.24
  C 306.40 478.70 266.58 483.19 265.57 463.52
  C 265.28 457.85 270.25 454.23 275.02 452.47
  C 280.58 450.42 288.46 451.45 294.16 452.79
  Q 294.44 452.85 294.25 452.64
  Z
  M 388.06 275.41
  C 382.32 274.70 368.47 273.52 373.06 263.54
  Q 373.85 261.80 375.76 261.53
  C 382.54 260.55 387.78 267.16 389.34 273.03
  Q 389.47 273.52 389.96 273.66
  C 396.99 275.76 401.12 275.82 406.28 282.29
  Q 406.73 282.86 406.60 282.15
  C 405.25 275.07 404.11 268.61 403.31 260.90
  Q 401.14 239.90 395.03 219.65
  Q 394.68 218.51 393.85 217.65
  C 374.91 198.01 346.51 184.53 319.21 192.10
  C 303.12 196.56 288.85 208.51 278.82 221.77
  C 265.76 239.03 257.57 259.30 262.06 280.79
  A 0.07 0.07 0.0 0 0 262.19 280.78
  C 262.50 276.31 262.08 271.08 263.82 267.21
  Q 266.17 262.01 271.25 258.23
  C 281.11 250.91 290.07 241.86 295.97 230.76
  Q 297.01 228.81 298.12 228.25
  A 1.90 1.90 0.0 0 1 300.80 229.41
  C 302.34 234.71 303.98 240.49 306.84 244.84
  Q 313.93 255.63 326.87 257.82
  C 331.42 258.58 337.37 258.25 342.50 258.24
  C 361.39 258.19 363.59 276.29 366.25 290.25
  C 367.41 296.29 371.56 306.67 379.90 301.18
  C 387.33 296.28 389.29 283.75 388.36 275.71
  A 0.34 0.34 0.0 0 0 388.06 275.41
  Z
  M 410.04 289.02
  Q 410.12 289.31 410.12 289.62
  Q 410.12 289.63 410.12 289.63
  Q 410.12 289.63 410.12 289.63
  Q 410.10 289.62 410.10 289.61
  Q 410.29 287.54 409.86 282.88
  Q 409.41 278.07 410.42 267.00
  C 411.83 251.62 408.25 235.53 398.37 222.71
  Q 397.43 221.50 397.86 222.96
  Q 402.28 238.25 404.24 254.76
  C 405.75 267.48 406.98 277.49 410.04 289.02
  Z
  M 378.98 263.61
  Q 374.46 261.72 373.98 265.99
  C 373.26 272.32 382.95 273.08 387.28 273.52
  A 0.28 0.28 0.0 0 0 387.58 273.16
  Q 385.56 266.34 378.98 263.61
  Z
  M 330.32 363.47
  C 339.72 357.05 348.63 336.83 348.49 326.01
  C 348.38 316.85 342.75 306.65 333.01 305.26
  C 322.10 303.72 311.02 311.65 305.94 320.95
  C 300.78 330.40 304.94 338.24 311.80 344.96
  Q 319.63 352.63 327.49 360.25
  Q 328.11 360.86 329.65 363.33
  Q 329.91 363.75 330.32 363.47
  Z
  M 320.38 389.73
  A 1.40 1.40 0.0 0 1 317.95 389.74
  Q 316.47 387.18 317.06 384.29
  Q 317.17 383.80 316.95 383.35
  C 312.28 373.74 303.92 374.89 295.00 375.78
  C 292.94 375.98 290.08 375.69 288.95 373.63
  Q 287.75 371.45 288.82 368.98
  C 291.79 362.18 295.10 356.37 291.97 349.85
  A 1.03 1.02 47.8 0 0 290.17 349.76
  Q 287.76 353.72 285.12 357.33
  C 282.43 361.01 277.92 360.06 275.77 356.46
  Q 271.66 349.57 271.58 341.19
  C 271.56 338.68 271.11 336.71 270.46 334.48
  A 1.35 1.35 0.0 0 0 268.17 333.95
  C 264.25 338.18 266.66 352.34 268.10 357.50
  Q 268.53 359.02 266.55 358.77
  Q 266.11 358.72 265.82 358.39
  Q 264.15 356.55 262.77 354.48
  Q 256.77 345.53 251.08 336.39
  Q 250.26 335.06 249.41 334.65
  A 1.35 1.35 0.0 0 0 247.58 335.37
  C 244.98 341.91 248.62 349.91 252.01 355.42
  C 253.75 358.25 259.21 359.22 258.46 363.01
  A 0.75 0.75 0.0 0 1 257.79 363.61
  C 254.31 363.89 252.77 358.74 249.52 357.15
  C 243.96 354.44 240.15 351.49 237.41 346.89
  A 1.03 1.03 0.0 0 0 235.54 347.12
  C 232.86 355.82 239.36 363.28 245.29 368.65
  C 248.30 371.37 253.05 370.75 254.98 374.91
  A 1.16 1.16 0.0 0 1 253.58 376.51
  C 250.55 375.57 248.32 373.40 245.72 371.64
  Q 245.31 371.35 244.80 371.36
  C 239.93 371.40 231.97 372.77 228.37 376.39
  A 0.63 0.63 0.0 0 0 228.80 377.47
  C 234.95 377.67 239.54 377.49 246.01 380.25
  C 256.83 384.86 269.13 396.38 276.37 403.38
  Q 290.08 416.63 308.52 422.54
  Q 309.36 422.81 309.08 423.64
  L 308.99 423.91
  A 0.67 0.66 -69.3 0 1 308.11 424.31
  Q 304.98 423.04 300.24 422.22
  C 279.16 418.58 262.35 424.50 245.22 436.93
  Q 225.38 451.33 218.17 456.18
  C 209.70 461.87 191.07 474.19 182.62 466.63
  Q 178.64 463.07 177.74 461.75
  C 171.58 452.72 159.51 436.02 148.51 438.29
  C 145.52 438.91 142.02 441.86 142.14 445.23
  Q 142.19 446.78 143.15 447.60
  C 148.88 452.54 151.51 455.23 152.79 462.47
  C 154.09 469.76 154.88 477.88 159.67 483.96
  C 162.04 486.98 163.23 489.09 163.74 492.54
  C 164.70 499.13 164.73 504.79 172.22 507.24
  Q 176.48 508.63 180.55 507.60
  C 186.83 506.01 188.96 498.77 195.76 497.03
  Q 202.86 495.22 210.84 496.25
  Q 211.37 496.32 211.67 495.89
  C 215.66 490.25 224.61 487.35 231.26 485.96
  Q 239.28 484.28 244.32 489.83
  C 245.01 490.59 245.69 491.97 246.55 492.92
  Q 247.05 493.46 247.06 492.73
  C 247.31 473.03 260.22 449.85 282.14 448.58
  C 288.09 448.23 293.91 449.05 298.23 453.47
  C 300.85 456.16 304.11 457.38 307.10 459.43
  Q 308.06 460.09 307.76 458.96
  C 305.62 450.90 304.87 442.44 307.26 434.26
  C 309.67 426.04 315.62 423.29 323.20 421.01
  Q 323.88 420.81 323.21 420.57
  C 319.43 419.23 315.39 418.44 315.78 413.27
  C 316.47 404.15 326.64 402.30 332.43 408.59
  Q 336.57 413.09 332.55 417.57
  Q 331.94 418.24 332.81 417.99
  C 346.31 414.01 359.46 405.21 371.34 396.85
  C 382.01 389.33 391.04 380.79 395.11 367.97
  C 399.24 354.97 402.43 329.94 385.83 324.59
  C 374.06 320.80 361.87 328.47 355.62 337.98
  C 352.21 343.17 350.74 352.41 345.76 356.06
  C 342.44 358.49 338.05 360.12 334.69 362.73
  Q 330.38 366.09 329.05 367.33
  Q 323.05 372.95 319.31 382.74
  Q 319.14 383.20 319.31 383.65
  C 319.99 385.39 321.31 388.08 320.38 389.73
  Z
  M 292.64 331.44
  C 291.59 332.96 291.25 335.35 291.53 337.10
  Q 291.63 337.79 292.31 337.63
  L 295.38 336.91
  A 2.15 2.13 85.8 0 0 297.03 334.98
  Q 297.34 330.92 293.48 331.00
  A 1.06 1.06 0.0 0 0 292.64 331.44
  Z
  M 328.36 365.42
  A 0.54 0.54 0.0 0 0 328.53 364.63
  C 324.10 358.51 317.88 353.57 312.41 348.31
  Q 312.04 347.95 311.64 348.28
  C 309.07 350.31 306.43 350.97 304.24 353.70
  A 0.72 0.72 0.0 0 0 304.77 354.87
  C 309.55 355.11 310.67 358.05 312.83 361.58
  C 316.54 367.62 321.76 369.24 328.36 365.42
  Z
  M 331.65 415.64
  C 337.04 409.61 319.29 400.03 317.50 413.26
  C 316.91 417.67 322.85 419.01 326.16 418.73
  C 328.81 418.50 329.95 417.54 331.65 415.64
  Z
  M 292.34 472.17
  C 298.58 469.34 302.01 463.33 298.22 456.77
  A 1.50 1.50 0.0 0 0 297.54 456.15
  C 289.91 452.66 279.34 451.40 271.77 455.96
  C 264.31 460.45 267.12 469.94 273.98 472.82
  Q 282.79 476.51 292.34 472.17
  Z
  M 311.55 465.76
  C 317.49 480.53 327.14 494.23 337.66 506.01
  C 342.97 511.95 350.80 521.37 357.86 523.99
  A 0.45 0.44 -87.7 0 0 358.44 523.45
  C 357.46 520.03 356.11 516.91 354.14 513.70
  Q 336.98 485.81 312.26 465.25
  Q 310.88 464.09 311.55 465.76
  Z"
/>
<path fill="#f8efea" d="
  M 388.06 275.41
  A 0.34 0.34 0.0 0 1 388.36 275.71
  C 389.29 283.75 387.33 296.28 379.90 301.18
  C 371.56 306.67 367.41 296.29 366.25 290.25
  C 363.59 276.29 361.39 258.19 342.50 258.24
  C 337.37 258.25 331.42 258.58 326.87 257.82
  Q 313.93 255.63 306.84 244.84
  C 303.98 240.49 302.34 234.71 300.80 229.41
  A 1.90 1.90 0.0 0 0 298.12 228.25
  Q 297.01 228.81 295.97 230.76
  C 290.07 241.86 281.11 250.91 271.25 258.23
  Q 266.17 262.01 263.82 267.21
  C 262.08 271.08 262.50 276.31 262.19 280.78
  A 0.07 0.07 0.0 0 1 262.06 280.79
  C 257.57 259.30 265.76 239.03 278.82 221.77
  C 288.85 208.51 303.12 196.56 319.21 192.10
  C 346.51 184.53 374.91 198.01 393.85 217.65
  Q 394.68 218.51 395.03 219.65
  Q 401.14 239.90 403.31 260.90
  C 404.11 268.61 405.25 275.07 406.60 282.15
  Q 406.73 282.86 406.28 282.29
  C 401.12 275.82 396.99 275.76 389.96 273.66
  Q 389.47 273.52 389.34 273.03
  C 387.78 267.16 382.54 260.55 375.76 261.53
  Q 373.85 261.80 373.06 263.54
  C 368.47 273.52 382.32 274.70 388.06 275.41
  Z"
/>
<path fill="#f8efea" d="
  M 410.04 289.02
  C 406.98 277.49 405.75 267.48 404.24 254.76
  Q 402.28 238.25 397.86 222.96
  Q 397.43 221.50 398.37 222.71
  C 408.25 235.53 411.83 251.62 410.42 267.00
  Q 409.41 278.07 409.86 282.88
  Q 410.29 287.54 410.10 289.61
  Q 410.10 289.62 410.12 289.63
  Q 410.12 289.63 410.12 289.63
  Q 410.12 289.63 410.12 289.62
  Q 410.12 289.31 410.04 289.02
  Z"
/>
<path fill="#f8efea" d="
  M 378.98 263.61
  Q 385.56 266.34 387.58 273.16
  A 0.28 0.28 0.0 0 1 387.28 273.52
  C 382.95 273.08 373.26 272.32 373.98 265.99
  Q 374.46 261.72 378.98 263.61
  Z"
/>
<rect fill="#050403" x="-7.83" y="-1.31" transform="translate(303.39,309.57) rotate(-35.0)" width="15.66" height="2.62" rx="1.28"/>
<path fill="#f8efea" d="
  M 348.49 326.01
  C 348.63 336.83 339.72 357.05 330.32 363.47
  Q 329.91 363.75 329.65 363.33
  Q 328.11 360.86 327.49 360.25
  Q 319.63 352.63 311.80 344.96
  C 304.94 338.24 300.78 330.40 305.94 320.95
  C 311.02 311.65 322.10 303.72 333.01 305.26
  C 342.75 306.65 348.38 316.85 348.49 326.01
  Z"
/>
<path fill="#f8efea" d="
  M 320.38 389.73
  C 321.31 388.08 319.99 385.39 319.31 383.65
  Q 319.14 383.20 319.31 382.74
  Q 323.05 372.95 329.05 367.33
  Q 330.38 366.09 334.69 362.73
  C 338.05 360.12 342.44 358.49 345.76 356.06
  C 350.74 352.41 352.21 343.17 355.62 337.98
  C 361.87 328.47 374.06 320.80 385.83 324.59
  C 402.43 329.94 399.24 354.97 395.11 367.97
  C 391.04 380.79 382.01 389.33 371.34 396.85
  C 359.46 405.21 346.31 414.01 332.81 417.99
  Q 331.94 418.24 332.55 417.57
  Q 336.57 413.09 332.43 408.59
  C 326.64 402.30 316.47 404.15 315.78 413.27
  C 315.39 418.44 319.43 419.23 323.21 420.57
  Q 323.88 420.81 323.20 421.01
  C 315.62 423.29 309.67 426.04 307.26 434.26
  C 304.87 442.44 305.62 450.90 307.76 458.96
  Q 308.06 460.09 307.10 459.43
  C 304.11 457.38 300.85 456.16 298.23 453.47
  C 293.91 449.05 288.09 448.23 282.14 448.58
  C 260.22 449.85 247.31 473.03 247.06 492.73
  Q 247.05 493.46 246.55 492.92
  C 245.69 491.97 245.01 490.59 244.32 489.83
  Q 239.28 484.28 231.26 485.96
  C 224.61 487.35 215.66 490.25 211.67 495.89
  Q 211.37 496.32 210.84 496.25
  Q 202.86 495.22 195.76 497.03
  C 188.96 498.77 186.83 506.01 180.55 507.60
  Q 176.48 508.63 172.22 507.24
  C 164.73 504.79 164.70 499.13 163.74 492.54
  C 163.23 489.09 162.04 486.98 159.67 483.96
  C 154.88 477.88 154.09 469.76 152.79 462.47
  C 151.51 455.23 148.88 452.54 143.15 447.60
  Q 142.19 446.78 142.14 445.23
  C 142.02 441.86 145.52 438.91 148.51 438.29
  C 159.51 436.02 171.58 452.72 177.74 461.75
  Q 178.64 463.07 182.62 466.63
  C 191.07 474.19 209.70 461.87 218.17 456.18
  Q 225.38 451.33 245.22 436.93
  C 262.35 424.50 279.16 418.58 300.24 422.22
  Q 304.98 423.04 308.11 424.31
  A 0.67 0.66 -69.3 0 0 308.99 423.91
  L 309.08 423.64
  Q 309.36 422.81 308.52 422.54
  Q 290.08 416.63 276.37 403.38
  C 269.13 396.38 256.83 384.86 246.01 380.25
  C 239.54 377.49 234.95 377.67 228.80 377.47
  A 0.63 0.63 0.0 0 1 228.37 376.39
  C 231.97 372.77 239.93 371.40 244.80 371.36
  Q 245.31 371.35 245.72 371.64
  C 248.32 373.40 250.55 375.57 253.58 376.51
  A 1.16 1.16 0.0 0 0 254.98 374.91
  C 253.05 370.75 248.30 371.37 245.29 368.65
  C 239.36 363.28 232.86 355.82 235.54 347.12
  A 1.03 1.03 0.0 0 1 237.41 346.89
  C 240.15 351.49 243.96 354.44 249.52 357.15
  C 252.77 358.74 254.31 363.89 257.79 363.61
  A 0.75 0.75 0.0 0 0 258.46 363.01
  C 259.21 359.22 253.75 358.25 252.01 355.42
  C 248.62 349.91 244.98 341.91 247.58 335.37
  A 1.35 1.35 0.0 0 1 249.41 334.65
  Q 250.26 335.06 251.08 336.39
  Q 256.77 345.53 262.77 354.48
  Q 264.15 356.55 265.82 358.39
  Q 266.11 358.72 266.55 358.77
  Q 268.53 359.02 268.10 357.50
  C 266.66 352.34 264.25 338.18 268.17 333.95
  A 1.35 1.35 0.0 0 1 270.46 334.48
  C 271.11 336.71 271.56 338.68 271.58 341.19
  Q 271.66 349.57 275.77 356.46
  C 277.92 360.06 282.43 361.01 285.12 357.33
  Q 287.76 353.72 290.17 349.76
  A 1.03 1.02 47.8 0 1 291.97 349.85
  C 295.10 356.37 291.79 362.18 288.82 368.98
  Q 287.75 371.45 288.95 373.63
  C 290.08 375.69 292.94 375.98 295.00 375.78
  C 303.92 374.89 312.28 373.74 316.95 383.35
  Q 317.17 383.80 317.06 384.29
  Q 316.47 387.18 317.95 389.74
  A 1.40 1.40 0.0 0 0 320.38 389.73
  Z"
/>
<path fill="#f8efea" d="
  M 291.53 337.10
  C 291.25 335.35 291.59 332.96 292.64 331.44
  A 1.06 1.06 0.0 0 1 293.48 331.00
  Q 297.34 330.92 297.03 334.98
  A 2.15 2.13 85.8 0 1 295.38 336.91
  L 292.31 337.63
  Q 291.63 337.79 291.53 337.10
  Z"
/>
<path fill="#f8efea" d="
  M 328.36 365.42
  C 321.76 369.24 316.54 367.62 312.83 361.58
  C 310.67 358.05 309.55 355.11 304.77 354.87
  A 0.72 0.72 0.0 0 1 304.24 353.70
  C 306.43 350.97 309.07 350.31 311.64 348.28
  Q 312.04 347.95 312.41 348.31
  C 317.88 353.57 324.10 358.51 328.53 364.63
  A 0.54 0.54 0.0 0 1 328.36 365.42
  Z"
/>
<path fill="#f8efea" d="
  M 317.50 413.26
  C 319.29 400.03 337.04 409.61 331.65 415.64
  C 329.95 417.54 328.81 418.50 326.16 418.73
  C 322.85 419.01 316.91 417.67 317.50 413.26
  Z"
/>
<path fill="#f8efea" d="
  M 292.34 472.17
  Q 282.79 476.51 273.98 472.82
  C 267.12 469.94 264.31 460.45 271.77 455.96
  C 279.34 451.40 289.91 452.66 297.54 456.15
  A 1.50 1.50 0.0 0 1 298.22 456.77
  C 302.01 463.33 298.58 469.34 292.34 472.17
  Z"
/>
<path fill="#f8efea" d="
  M 311.55 465.76
  Q 310.88 464.09 312.26 465.25
  Q 336.98 485.81 354.14 513.70
  C 356.11 516.91 357.46 520.03 358.44 523.45
  A 0.45 0.44 -87.7 0 1 357.86 523.99
  C 350.80 521.37 342.97 511.95 337.66 506.01
  C 327.14 494.23 317.49 480.53 311.55 465.76
  Z"
/>
</svg>
