<?xml version="1.0" encoding="UTF-8" standalone="no"?>
<!DOCTYPE svg PUBLIC "-//W3C//DTD SVG 1.1//EN" "http://www.w3.org/Graphics/SVG/1.1/DTD/svg11.dtd">
<svg xmlns="http://www.w3.org/2000/svg" version="1.1" viewBox="0.00 0.00 1037.00 1185.00">
<g stroke-width="5.00" fill="none" stroke-linecap="butt">
<path stroke="#808080" vector-effect="non-scaling-stroke" d="
  M 458.58 93.24
  Q 455.38 91.20 452.21 89.12
  C 408.74 60.53 353.93 61.78 311.73 92.05
  C 274.44 118.80 253.79 159.64 252.08 205.26
  C 250.57 245.42 263.77 284.51 285.10 318.27
  Q 285.17 318.39 285.26 318.40
  Q 285.39 318.42 285.43 318.23
  Q 285.45 318.12 285.40 317.99
  C 274.49 290.74 268.35 261.67 268.87 232.26
  C 269.91 173.19 304.17 116.37 365.60 105.13
  C 394.96 99.76 426.25 107.07 451.40 122.35
  A 1.35 1.33 -43.0 0 0 452.73 122.39
  Q 498.32 98.05 549.75 91.49
  C 635.36 80.57 722.19 113.05 769.59 187.18
  C 794.07 225.47 805.14 271.52 805.58 316.37
  Q 805.59 317.10 806.15 316.63
  Q 806.52 316.31 806.77 315.51
  Q 809.45 307.01 811.96 298.47
  C 826.54 248.94 822.50 196.81 796.81 151.14
  C 732.72 37.20 556.70 -4.70 459.40 93.15
  Q 459.03 93.52 458.58 93.24"
/>
<path stroke="#adadac" vector-effect="non-scaling-stroke" d="
  M 408.73 415.92
  L 411.45 416.06"
/>
<path stroke="#808080" vector-effect="non-scaling-stroke" d="
  M 411.45 416.06
  L 413.75 416.40"
/>
<path stroke="#adadac" vector-effect="non-scaling-stroke" d="
  M 413.75 416.40
  L 416.97 416.46"
/>
<path stroke="#808080" vector-effect="non-scaling-stroke" d="
  M 416.97 416.46
  Q 436.57 416.46 455.46 411.82
  C 468.00 408.73 480.27 405.13 492.84 403.83
  A 0.46 0.45 11.4 0 1 493.29 404.50
  C 489.89 410.59 489.47 416.55 491.67 423.29
  C 493.45 428.72 496.90 434.47 497.02 439.75
  C 497.18 446.93 497.28 452.45 501.40 457.52
  C 510.43 468.67 523.03 464.02 530.28 454.12
  A 0.40 0.40 0.0 0 0 530.22 453.58
  L 530.02 453.41
  Q 529.93 453.33 529.84 453.42
  C 520.33 463.06 505.50 461.82 503.59 446.49
  C 503.13 442.79 503.93 438.25 502.50 433.59
  C 500.82 428.07 497.42 421.93 496.31 417.99
  Q 494.40 411.20 495.26 404.16
  Q 495.31 403.69 495.79 403.66
  Q 515.64 402.39 532.50 407.20
  C 550.86 412.45 565.63 419.76 582.09 426.60
  C 600.79 434.37 619.43 437.65 639.30 432.20
  Q 659.96 426.53 676.39 412.14
  C 687.18 402.69 697.04 392.19 708.46 383.47
  C 726.71 369.53 747.44 366.17 770.14 370.36
  Q 770.34 370.40 770.39 370.20
  L 770.39 370.19
  Q 770.44 369.99 770.24 369.94
  C 751.91 364.94 729.78 363.94 712.59 372.59
  C 698.39 379.75 687.08 390.41 675.21 400.19
  C 654.27 417.44 628.46 425.94 601.69 418.71
  C 578.08 412.33 559.03 395.39 533.96 385.81
  C 510.90 377.00 489.39 378.42 466.01 385.95
  Q 456.78 388.92 443.26 391.40
  C 405.63 398.31 371.09 389.40 349.81 356.19
  C 328.65 323.19 325.45 280.61 321.36 244.14
  A 0.31 0.31 0.0 0 0 320.76 244.08
  C 316.64 257.16 314.75 271.42 314.37 284.73
  C 312.67 344.59 340.46 410.27 408.73 415.92"
/>
<path stroke="#2d2d2d" vector-effect="non-scaling-stroke" d="
  M 416.97 416.46
  C 417.02 413.93 417.73 410.43 416.02 408.32
  A 1.13 1.13 0.0 0 0 415.17 407.91
  Q 410.84 407.81 408.94 411.93
  Q 408.15 413.63 408.73 415.92"
/>
<path stroke="#2d2d2d" vector-effect="non-scaling-stroke" d="
  M 413.75 416.40
  Q 414.58 414.11 413.58 412.76
  Q 412.55 411.37 412.15 413.05
  L 411.45 416.06"
/>
<path stroke="#808080" vector-effect="non-scaling-stroke" d="
  M 829.68 378.99
  C 822.66 409.83 780.30 421.47 785.00 454.01
  Q 785.04 454.31 785.23 454.46
  Q 785.67 454.83 785.71 454.26
  C 786.43 444.01 793.20 436.15 801.34 430.83
  Q 810.31 424.96 821.70 418.94
  C 831.82 413.59 842.61 406.56 847.78 395.67
  Q 850.98 388.93 850.98 379.43
  C 851.00 349.88 832.86 335.60 807.21 326.58
  A 0.36 0.36 0.0 0 0 806.86 327.19
  C 822.19 340.04 834.57 357.45 829.68 378.99"
/>
<path stroke="#adadac" vector-effect="non-scaling-stroke" d="
  M 96.84 440.59
  L 86.67 446.73"
/>
<path stroke="#808080" vector-effect="non-scaling-stroke" d="
  M 86.67 446.73
  L 79.63 451.47"
/>
<path stroke="#adadac" vector-effect="non-scaling-stroke" d="
  M 79.63 451.47
  L 61.68 464.02"
/>
<path stroke="#808080" vector-effect="non-scaling-stroke" d="
  M 61.68 464.02
  L 41.06 479.64
  Q 38.85 481.31 41.48 480.53
  Q 42.16 480.33 44.00 479.02
  C 49.40 475.20 55.40 473.27 60.99 469.99"
/>
<path stroke="#adadac" vector-effect="non-scaling-stroke" d="
  M 60.99 469.99
  L 91.92 455.76"
/>
<path stroke="#808080" vector-effect="non-scaling-stroke" d="
  M 91.92 455.76
  L 98.17 453.22"
/>
<path stroke="#adadac" vector-effect="non-scaling-stroke" d="
  M 98.17 453.22
  L 107.28 449.84"
/>
<path stroke="#808080" vector-effect="non-scaling-stroke" d="
  M 107.28 449.84
  Q 149.33 434.09 188.76 430.54
  Q 212.46 428.41 236.24 427.31
  C 258.79 426.27 280.06 422.51 298.52 412.22
  C 313.23 404.01 327.18 392.04 339.03 379.06
  Q 339.30 378.77 338.99 378.53
  Q 338.75 378.34 338.35 378.60
  C 314.66 394.02 287.20 402.15 258.50 402.19
  Q 238.25 402.22 218.00 402.48
  C 173.88 403.07 133.96 417.62 96.84 440.59"
/>
<path stroke="#2d2d2d" vector-effect="non-scaling-stroke" d="
  M 107.28 449.84
  Q 102.60 444.38 96.84 440.59"
/>
<path stroke="#2d2d2d" vector-effect="non-scaling-stroke" d="
  M 98.17 453.22
  Q 93.47 448.52 86.67 446.73"
/>
<path stroke="#2d2d2d" vector-effect="non-scaling-stroke" d="
  M 91.92 455.76
  Q 89.74 454.67 87.42 453.67
  Q 84.06 452.21 79.63 451.47"
/>
<path stroke="#2d2d2d" vector-effect="non-scaling-stroke" d="
  M 60.99 469.99
  Q 60.66 467.68 61.68 464.02"
/>
<path stroke="#808080" vector-effect="non-scaling-stroke" d="
  M 735.91 464.57
  C 726.15 472.14 713.32 477.26 700.97 486.38
  Q 700.42 486.79 699.85 486.42
  Q 693.25 482.18 685.56 480.46
  C 681.99 479.66 677.48 479.48 673.55 478.95
  Q 670.81 478.58 673.05 480.21
  C 673.64 480.64 674.34 481.05 674.87 481.74
  Q 681.72 490.78 688.64 499.78
  Q 688.95 500.18 688.70 500.64
  C 679.32 517.99 677.60 537.76 677.74 557.27
  C 677.80 564.16 676.78 571.32 669.00 573.42
  C 662.31 575.23 656.74 571.59 650.70 569.13
  C 644.16 566.47 635.93 565.83 630.94 571.95
  Q 627.88 575.70 625.37 579.85
  C 618.99 590.36 603.22 577.21 598.97 571.46
  C 598.28 570.54 597.54 569.02 596.72 567.84
  A 0.30 0.30 0.0 0 0 596.17 568.06
  C 597.85 578.08 605.30 587.84 613.09 593.62
  C 619.24 598.19 627.80 600.07 632.18 592.42
  C 634.77 587.89 633.79 581.88 636.93 577.69
  C 641.65 571.41 648.31 576.85 653.23 579.45
  C 661.02 583.55 668.78 585.34 677.53 583.60
  C 685.38 582.03 687.31 576.85 687.74 569.13
  C 688.87 549.05 688.62 528.21 696.27 509.26
  Q 696.62 508.41 697.22 509.10
  Q 701.08 513.56 706.83 515.18
  Q 712.49 516.77 722.27 516.95
  Q 723.06 516.96 722.42 516.50
  Q 721.41 515.77 719.75 514.78
  Q 709.11 508.41 705.98 496.95
  A 1.43 1.43 0.0 0 1 706.61 495.36
  Q 720.32 487.07 733.36 478.57
  C 748.27 468.86 756.97 458.09 762.67 440.94
  C 768.41 423.67 772.30 404.35 776.04 385.86
  Q 776.45 383.82 776.57 381.75
  Q 776.58 381.62 776.39 381.60
  Q 776.31 381.59 776.29 381.67
  Q 768.97 406.91 758.94 431.18
  Q 753.64 444.02 745.42 455.26
  A 0.60 0.59 37.2 0 1 744.57 455.37
  C 733.40 446.45 709.80 452.12 697.56 456.26
  A 0.04 0.03 69.2 0 0 697.54 456.31
  L 697.64 456.55
  Q 697.72 456.73 697.92 456.71
  C 711.08 455.36 724.56 456.09 735.89 463.85
  Q 736.39 464.19 735.91 464.57"
/>
<path stroke="#808080" vector-effect="non-scaling-stroke" d="
  M 449.70 500.45
  Q 449.47 498.42 450.12 500.36
  C 454.87 514.55 459.81 530.80 459.99 544.97
  Q 460.15 558.18 455.88 571.22
  Q 455.32 572.92 456.56 571.62
  Q 458.62 569.46 461.30 566.36
  C 481.37 543.23 466.68 511.16 449.39 491.87
  C 448.68 491.08 447.95 489.49 447.68 488.47
  C 444.48 476.04 438.53 464.47 427.80 457.36
  Q 425.90 456.10 427.12 458.03
  C 433.68 468.36 437.09 480.97 439.40 493.03
  C 442.35 508.47 444.86 523.98 448.92 539.20
  A 0.34 0.34 0.0 0 0 449.58 539.20
  C 450.00 537.41 449.90 535.03 450.02 533.58
  Q 451.50 516.55 449.70 500.45"
/>
<path stroke="#808080" vector-effect="non-scaling-stroke" d="
  M 420.56 520.12
  C 416.52 494.00 404.19 469.50 377.53 460.15
  Q 377.06 459.99 377.00 460.49
  A 0.35 0.33 27.2 0 0 377.10 460.77
  C 394.74 478.10 407.08 499.61 419.49 520.50
  Q 421.01 523.06 420.56 520.12"
/>
<path stroke="#808080" vector-effect="non-scaling-stroke" d="
  M 373.43 466.59
  C 368.15 487.42 379.89 509.85 392.67 525.52
  Q 394.15 527.33 393.87 525.01
  C 391.41 504.55 380.33 486.29 374.35 466.57
  Q 373.85 464.92 373.43 466.59"
/>
<path stroke="#adadac" vector-effect="non-scaling-stroke" d="
  M 329.65 758.77
  L 332.80 736.00"
/>
<path stroke="#808080" vector-effect="non-scaling-stroke" d="
  M 332.80 736.00
  Q 337.01 702.30 338.34 668.20
  C 340.18 620.60 336.74 568.89 314.16 525.82"
/>
<path stroke="#adadac" vector-effect="non-scaling-stroke" d="
  M 314.16 525.82
  L 312.82 523.70"
/>
<path stroke="#808080" vector-effect="non-scaling-stroke" d="
  M 312.82 523.70
  L 307.64 515.49"
/>
<path stroke="#adadac" vector-effect="non-scaling-stroke" d="
  M 307.64 515.49
  Q 307.28 514.32 306.57 513.50"
/>
<path stroke="#808080" vector-effect="non-scaling-stroke" d="
  M 306.57 513.50
  Q 287.33 485.69 256.72 471.33
  Q 256.18 471.08 255.76 471.03
  A 0.23 0.23 0.0 0 0 255.57 471.42
  Q 259.72 475.69 263.23 480.52
  C 274.98 496.69 284.38 515.71 290.51 534.00
  C 301.34 566.30 306.62 602.18 308.25 636.50
  C 311.03 695.06 306.86 751.47 300.22 809.98
  Q 294.22 862.89 287.95 915.77
  C 284.08 948.39 281.54 974.98 282.30 1004.55
  Q 282.34 1005.87 283.22 1004.89
  C 297.94 988.56 317.65 977.18 337.97 969.15
  C 375.11 954.48 416.12 946.42 456.01 940.02
  Q 475.47 936.90 536.64 927.71
  C 568.92 922.87 600.91 916.97 632.75 909.77
  Q 659.79 903.66 687.42 893.87
  C 692.61 892.03 697.83 889.50 701.97 886.72
  Q 719.11 875.19 736.87 864.65
  C 746.13 859.16 757.60 856.17 766.24 854.73
  Q 789.23 850.91 812.16 846.78
  Q 825.87 844.32 837.05 840.19
  Q 843.02 837.99 836.74 839.00
  Q 824.93 840.91 810.00 841.12
  Q 791.36 841.37 772.75 842.50
  C 756.29 843.50 740.40 845.35 727.45 855.22
  Q 714.05 865.43 700.62 875.61
  Q 695.31 879.64 691.26 881.01
  C 673.93 886.85 653.74 891.85 634.67 895.38
  C 562.76 908.70 489.92 910.11 417.50 918.83
  Q 385.23 922.72 358.76 930.04
  C 337.62 935.88 317.60 944.80 302.92 960.01
  A 0.36 0.35 -21.8 0 1 302.31 959.75
  C 303.29 932.78 307.08 905.69 311.27 879.00
  C 317.20 841.16 323.39 804.91 329.09 765.41
  Q 329.30 763.93 329.40 762.10
  Q 329.49 760.30 329.65 758.77"
/>
<path stroke="#2d2d2d" vector-effect="non-scaling-stroke" d="
  M 306.57 513.50
  C 301.41 519.37 307.39 526.77 314.16 525.82"
/>
<path stroke="#2d2d2d" vector-effect="non-scaling-stroke" d="
  M 332.80 736.00
  C 329.13 741.94 326.78 751.94 329.65 758.77"
/>
<path stroke="#2d2d2d" vector-effect="non-scaling-stroke" d="
  M 307.64 515.49
  Q 307.05 515.68 307.24 516.76
  Q 308.09 521.58 312.05 523.78
  Q 312.50 524.03 312.82 523.70"
/>
<path stroke="#808080" vector-effect="non-scaling-stroke" d="
  M 365.41 475.73
  C 351.64 500.49 355.38 525.27 376.29 543.48
  Q 377.90 544.88 378.88 545.59
  A 0.31 0.31 0.0 0 0 379.32 545.18
  C 365.86 524.06 363.06 500.54 366.45 476.08
  Q 366.87 473.12 365.41 475.73"
/>
<path stroke="#808080" vector-effect="non-scaling-stroke" d="
  M 367.68 563.80
  C 373.54 578.25 380.72 589.86 396.90 593.00
  Q 398.26 593.27 397.21 592.37
  Q 390.20 586.39 386.49 577.26
  Q 382.92 568.50 379.01 559.89
  C 375.85 552.93 371.78 551.14 367.59 547.41
  C 353.63 534.99 353.78 518.66 352.67 501.70
  Q 352.65 501.49 352.45 501.55
  Q 352.29 501.60 352.26 501.76
  C 349.32 522.43 343.23 542.68 363.14 557.65
  C 365.57 559.48 366.61 561.16 367.68 563.80"
/>
<path stroke="#adadac" vector-effect="non-scaling-stroke" d="
  M 633.65 754.33
  L 643.14 757.48"
/>
<path stroke="#808080" vector-effect="non-scaling-stroke" d="
  M 643.14 757.48
  Q 648.15 759.80 653.54 761.96
  C 673.76 770.07 693.73 782.31 707.65 799.35
  Q 715.00 808.34 718.31 817.03
  Q 720.17 821.92 719.22 816.78
  C 712.49 780.12 686.51 752.90 653.16 736.58"
/>
<path stroke="#adadac" vector-effect="non-scaling-stroke" d="
  M 653.16 736.58
  L 651.05 735.41"
/>
<path stroke="#808080" vector-effect="non-scaling-stroke" d="
  M 651.05 735.41
  L 637.02 729.12
  A 0.71 0.71 0.0 0 1 636.73 728.07
  L 638.32 725.75
  Q 638.61 725.34 638.49 724.86
  C 634.34 707.55 642.97 696.52 657.98 689.62
  C 659.59 688.88 660.26 688.00 660.01 686.24
  C 659.59 683.28 658.45 679.40 658.82 676.87
  C 659.85 670.01 671.70 670.51 676.48 671.36
  Q 677.21 671.49 677.03 670.78
  Q 673.56 656.46 679.63 642.70
  Q 680.44 640.87 682.67 639.14
  Q 683.07 638.84 683.53 639.02
  C 696.27 644.07 703.82 642.31 705.53 627.21
  C 706.29 620.45 708.07 615.14 716.14 618.49
  Q 727.27 623.12 739.14 625.44
  Q 739.62 625.54 739.90 625.95
  Q 741.08 627.68 741.32 629.01
  C 742.46 635.18 747.20 637.97 752.21 640.76
  Q 753.44 641.44 752.87 640.15
  Q 752.18 638.59 751.08 636.47
  Q 748.59 631.67 749.42 626.30
  A 0.79 0.77 87.9 0 1 750.01 625.65
  Q 755.84 624.29 760.27 620.27
  C 773.10 608.62 779.25 593.58 796.33 586.42
  C 813.05 579.42 829.11 579.01 847.25 581.55
  Q 866.38 584.23 890.67 591.49
  Q 890.80 591.53 890.85 591.40
  L 890.95 591.14
  A 0.43 0.43 0.0 0 0 890.73 590.60
  C 868.28 579.85 844.87 571.20 819.75 569.98
  C 806.68 569.35 788.64 572.07 778.44 581.18
  C 770.93 587.90 764.48 596.24 757.80 603.80
  C 754.87 607.11 748.10 613.52 744.25 613.28
  C 741.69 613.12 737.02 608.02 735.39 606.23
  Q 733.75 604.43 734.18 606.82
  L 735.27 612.79
  A 0.48 0.47 -0.4 0 1 734.72 613.34
  C 727.06 612.05 721.10 609.00 714.25 606.79
  C 706.07 604.15 699.22 610.50 698.04 618.25
  C 697.08 624.58 697.98 633.48 688.25 631.28
  C 684.31 630.39 680.04 627.80 676.31 630.09
  C 664.95 637.10 671.33 659.26 675.30 668.75
  A 0.37 0.37 0.0 0 1 674.84 669.24
  C 669.01 667.30 661.67 665.67 655.74 667.28
  C 646.72 669.73 651.63 679.70 653.68 685.39
  A 1.24 1.24 0.0 0 1 652.76 687.02
  C 638.96 689.77 630.03 698.08 629.94 712.33
  C 629.91 716.55 630.97 721.27 632.02 725.59
  A 0.92 0.92 0.0 0 1 630.81 726.68
  C 600.54 715.73 568.80 709.71 536.71 707.15
  Q 536.09 707.10 536.25 706.50
  C 540.41 690.90 534.34 676.01 525.13 663.38
  C 512.46 646.02 496.91 630.91 481.93 615.58
  Q 469.91 603.27 460.77 588.73
  Q 456.94 582.64 455.96 573.51
  Q 455.95 573.46 455.90 573.46
  L 455.60 573.46
  Q 455.28 573.46 455.29 573.78
  C 455.31 584.53 458.35 594.84 462.47 604.26
  C 471.19 624.14 483.08 643.29 493.86 662.37
  C 503.10 678.73 512.35 696.83 514.88 715.98
  C 515.52 720.77 514.99 725.29 514.19 730.00
  A 0.97 0.97 0.0 0 0 514.99 731.12
  C 545.74 735.98 576.31 739.73 606.70 746.87
  C 615.53 748.95 624.69 751.70 633.65 754.33"
/>
<path stroke="#2d2d2d" vector-effect="non-scaling-stroke" d="
  M 651.05 735.41
  C 647.70 739.30 652.00 742.25 654.23 744.91
  A 2.22 2.22 0.0 0 1 654.48 747.38
  L 653.39 749.40
  A 1.48 1.48 0.0 0 0 654.67 751.58
  Q 656.11 751.59 657.12 749.88
  C 661.24 742.92 651.32 741.75 653.16 736.58"
/>
<path stroke="#2d2d2d" vector-effect="non-scaling-stroke" d="
  M 643.14 757.48
  Q 642.08 754.90 640.14 753.14
  Q 638.21 751.40 640.45 750.08
  L 640.79 749.88
  A 3.01 3.00 52.9 0 1 644.49 750.40
  L 649.58 755.78
  A 1.47 1.47 0.0 0 0 651.69 755.81
  L 651.87 755.62
  A 1.08 1.07 -42.8 0 0 651.93 754.15
  C 649.22 751.03 642.33 742.69 637.97 748.58
  C 636.76 750.22 637.16 751.97 634.41 752.60
  A 0.77 0.75 -2.5 0 0 633.83 753.21
  L 633.65 754.33"
/>
<path stroke="#808080" vector-effect="non-scaling-stroke" d="
  M 468.23 578.03
  Q 477.05 582.27 483.04 589.99
  C 490.78 599.97 497.27 610.69 504.19 621.23
  C 511.88 632.94 523.11 648.22 539.25 646.43
  Q 549.60 645.28 556.56 636.07
  C 561.64 629.36 568.90 617.66 578.50 619.04
  C 585.57 620.06 600.94 623.51 604.42 614.15
  C 607.32 606.36 600.62 595.40 596.33 586.70
  Q 592.48 578.90 594.27 571.73
  Q 595.01 568.78 593.53 571.44
  Q 589.09 579.44 591.30 589.32
  C 592.56 595.00 598.06 609.86 586.48 609.64
  Q 581.36 609.55 576.23 609.12
  C 569.13 608.53 566.43 611.63 561.09 616.94
  C 555.87 622.12 551.58 627.02 545.29 631.54
  C 533.65 639.91 522.91 628.70 516.00 620.48
  C 507.12 609.94 498.91 598.88 488.63 589.63
  Q 479.80 581.69 468.63 577.52
  Q 468.39 577.43 468.29 577.66
  L 468.18 577.89
  Q 468.14 577.99 468.23 578.03"
/>
<path stroke="#808080" vector-effect="non-scaling-stroke" d="
  M 1010.87 755.62
  Q 1018.22 730.74 1012.24 704.70
  Q 1008.85 689.96 1004.33 681.24
  C 1002.00 676.76 999.97 671.77 997.60 667.71
  C 970.06 620.57 922.55 588.61 871.24 572.56
  Q 868.93 571.84 871.00 573.09
  C 873.59 574.65 876.84 576.11 879.20 577.45
  C 918.36 599.88 952.12 635.31 967.64 678.09
  C 984.55 724.67 975.57 772.19 940.21 806.62
  Q 920.58 825.74 895.88 837.29
  Q 892.65 838.80 896.17 838.23
  Q 921.15 834.15 945.39 823.45
  C 975.43 810.19 1001.28 788.10 1010.87 755.62"
/>
<path stroke="#808080" vector-effect="non-scaling-stroke" d="
  M 434.84 765.38
  C 388.26 768.02 350.14 794.64 323.25 831.21
  Q 323.00 831.55 323.12 831.80
  A 0.31 0.30 -31.5 0 0 323.59 831.91
  C 360.60 802.36 403.24 788.91 450.14 786.03
  Q 450.64 786.00 450.96 786.37
  C 477.36 817.37 506.35 839.80 545.56 851.78
  Q 568.36 858.75 592.01 862.25
  Q 613.30 865.41 634.72 868.08
  Q 634.97 868.12 635.02 867.87
  L 635.07 867.60
  Q 635.10 867.44 634.94 867.41
  C 602.67 860.53 569.45 851.55 539.55 837.40
  C 495.87 816.72 461.59 781.24 440.24 737.76
  C 417.81 692.07 400.09 644.01 392.01 594.34
  Q 392.00 594.29 391.94 594.29
  L 391.65 594.29
  Q 391.43 594.29 391.43 594.50
  Q 391.45 613.56 394.00 634.50
  C 399.46 679.29 412.39 726.01 435.07 764.95
  A 0.29 0.28 73.5 0 1 434.84 765.38"
/>
<path stroke="#adadac" vector-effect="non-scaling-stroke" d="
  M 107.18 723.56
  L 107.38 727.33"
/>
<path stroke="#808080" vector-effect="non-scaling-stroke" d="
  M 107.38 727.33
  Q 106.90 728.30 106.90 728.75
  Q 106.58 824.90 119.63 920.09
  C 127.00 973.85 136.90 1026.52 150.82 1077.66
  Q 157.27 1101.38 167.78 1128.44
  Q 168.29 1129.74 170.03 1133.03
  A 1.41 1.39 86.8 0 0 170.74 1133.67
  C 215.30 1151.79 265.03 1150.07 312.53 1138.88
  C 358.86 1127.96 403.86 1110.58 447.27 1091.24
  Q 484.49 1074.66 521.15 1056.87
  C 582.45 1027.15 643.59 997.29 706.75 971.63
  Q 709.35 970.58 712.17 970.52
  C 735.85 970.05 758.86 969.43 783.01 966.80
  Q 822.11 962.54 855.25 942.50
  Q 879.25 927.99 901.80 911.28
  C 911.65 903.99 919.38 894.24 926.89 884.17
  Q 939.51 867.27 952.15 850.39
  Q 956.10 845.11 960.53 840.21
  A 0.25 0.25 0.0 0 0 960.39 839.79
  Q 960.03 839.73 959.73 839.94
  C 944.96 850.53 932.59 863.26 919.80 876.05
  C 900.62 895.23 877.75 910.49 855.81 926.27
  C 840.93 936.97 826.80 944.81 808.76 948.75
  Q 792.70 952.25 767.25 953.48
  Q 729.52 955.31 691.75 956.32
  C 688.18 956.42 685.48 958.08 682.36 959.62
  Q 637.96 981.45 593.61 1003.37
  C 538.54 1030.59 482.52 1056.65 424.74 1077.66
  Q 389.24 1090.56 352.51 1099.32
  C 303.72 1110.96 250.43 1114.87 202.36 1098.06
  C 189.89 1093.70 177.70 1052.54 174.13 1040.47
  Q 163.01 1002.97 154.84 964.72
  Q 128.84 842.99 116.34 719.14
  C 116.01 715.88 115.18 711.49 114.99 707.59"
/>
<path stroke="#adadac" vector-effect="non-scaling-stroke" d="
  M 114.99 707.59
  L 114.83 703.44"
/>
<path stroke="#808080" vector-effect="non-scaling-stroke" d="
  M 114.83 703.44
  L 110.87 651.63
  Q 110.87 651.59 110.83 651.59
  L 110.58 651.59
  Q 110.30 651.59 110.28 651.87
  C 108.97 671.84 107.31 692.11 107.48 712.14
  C 107.51 715.50 106.88 719.71 107.18 723.56"
/>
<path stroke="#2d2d2d" vector-effect="non-scaling-stroke" d="
  M 114.83 703.44
  Q 113.77 705.21 112.87 706.91
  Q 112.68 707.28 112.72 707.59
  Q 112.77 707.97 112.97 708.32
  Q 113.40 709.04 113.70 708.26
  L 114.11 707.20
  Q 114.28 706.75 114.62 707.08
  Q 114.81 707.26 114.99 707.59"
/>
<path stroke="#2d2d2d" vector-effect="non-scaling-stroke" d="
  M 107.38 727.33
  Q 107.81 728.10 108.54 728.69
  Q 110.89 730.59 110.03 726.99
  A 1.57 1.49 18.4 0 0 109.68 726.33
  L 107.18 723.56"
/>
<path stroke="#808080" vector-effect="non-scaling-stroke" d="
  M 738.78 782.47
  C 733.02 775.24 739.25 765.07 744.88 759.19
  Q 744.93 759.14 744.84 759.00
  Q 744.79 758.93 744.74 758.86
  A 0.02 0.01 67.5 0 0 744.72 758.84
  C 736.12 765.03 726.38 777.79 734.69 787.24
  Q 737.46 790.39 745.69 794.05
  Q 753.45 797.50 757.82 798.94
  C 775.99 804.93 794.92 801.36 810.43 790.68
  C 820.69 783.61 826.21 771.24 821.82 759.04
  C 818.34 749.36 810.60 741.35 802.30 736.11
  Q 799.25 734.20 801.84 736.70
  C 812.33 746.89 822.32 764.81 813.13 778.99
  Q 809.50 784.59 800.68 788.97
  C 782.75 797.88 767.21 796.11 749.27 788.89
  Q 741.35 785.70 738.78 782.47"
/>
<path stroke="#808080" vector-effect="non-scaling-stroke" d="
  M 853.68 873.15
  C 830.96 883.89 804.12 891.42 778.86 891.65
  Q 777.78 891.65 778.67 892.26
  C 780.03 893.17 782.26 893.19 783.48 893.46
  C 847.57 908.05 893.87 865.56 942.23 836.70
  Q 954.80 829.20 968.09 825.32
  Q 970.42 824.64 967.99 824.59
  C 942.31 824.08 919.22 835.86 897.77 848.84
  C 883.43 857.52 868.86 865.99 853.68 873.15"
/>
<path stroke="#808080" vector-effect="non-scaling-stroke" d="
  M 814.92 868.53
  C 825.51 865.46 837.28 861.09 844.48 851.75
  Q 848.00 847.17 847.97 839.11
  Q 847.97 838.25 847.52 838.98
  C 846.29 840.95 845.16 843.13 843.84 844.66
  C 837.25 852.27 827.64 856.30 818.28 859.28
  C 802.08 864.46 785.51 869.30 776.36 883.69
  Q 775.91 884.41 775.91 884.88
  Q 775.91 885.70 776.53 885.17
  C 787.32 876.02 801.61 872.39 814.92 868.53"
/>
<path stroke="#2d2d2d" vector-effect="non-scaling-stroke" d="
  M 110.75 709.88
  L 110.06 709.88
  A 0.76 0.75 13.6 0 0 109.39 710.28
  Q 108.96 711.09 108.86 712.02
  A 0.44 0.44 0.0 0 0 109.18 712.48
  L 109.58 712.59
  Q 110.11 712.74 110.12 712.19
  Q 110.14 711.16 110.96 710.74
  A 0.46 0.46 0.0 0 0 110.75 709.88"
/>
<path stroke="#2d2d2d" vector-effect="non-scaling-stroke" d="
  M 109.23 715.79
  C 107.45 718.01 111.84 721.61 113.65 723.10
  Q 114.21 723.56 114.75 723.62
  A 0.76 0.76 0.0 0 0 115.51 722.51
  Q 114.41 720.36 112.58 718.83
  C 111.11 717.60 110.55 716.45 109.78 714.84
  Q 109.63 714.53 109.45 714.82
  Q 109.34 714.99 109.38 715.19
  Q 109.45 715.53 109.23 715.79"
/>
</g>
<path fill="#ffffff" d="
  M 0.00 0.00
  L 1037.00 0.00
  L 1037.00 1185.00
  L 0.00 1185.00
  L 0.00 0.00
  Z
  M 458.58 93.24
  Q 455.38 91.20 452.21 89.12
  C 408.74 60.53 353.93 61.78 311.73 92.05
  C 274.44 118.80 253.79 159.64 252.08 205.26
  C 250.57 245.42 263.77 284.51 285.10 318.27
  Q 285.17 318.39 285.26 318.40
  Q 285.39 318.42 285.43 318.23
  Q 285.45 318.12 285.40 317.99
  C 274.49 290.74 268.35 261.67 268.87 232.26
  C 269.91 173.19 304.17 116.37 365.60 105.13
  C 394.96 99.76 426.25 107.07 451.40 122.35
  A 1.35 1.33 -43.0 0 0 452.73 122.39
  Q 498.32 98.05 549.75 91.49
  C 635.36 80.57 722.19 113.05 769.59 187.18
  C 794.07 225.47 805.14 271.52 805.58 316.37
  Q 805.59 317.10 806.15 316.63
  Q 806.52 316.31 806.77 315.51
  Q 809.45 307.01 811.96 298.47
  C 826.54 248.94 822.50 196.81 796.81 151.14
  C 732.72 37.20 556.70 -4.70 459.40 93.15
  Q 459.03 93.52 458.58 93.24
  Z
  M 408.73 415.92
  L 411.45 416.06
  L 413.75 416.40
  L 416.97 416.46
  Q 436.57 416.46 455.46 411.82
  C 468.00 408.73 480.27 405.13 492.84 403.83
  A 0.46 0.45 11.4 0 1 493.29 404.50
  C 489.89 410.59 489.47 416.55 491.67 423.29
  C 493.45 428.72 496.90 434.47 497.02 439.75
  C 497.18 446.93 497.28 452.45 501.40 457.52
  C 510.43 468.67 523.03 464.02 530.28 454.12
  A 0.40 0.40 0.0 0 0 530.22 453.58
  L 530.02 453.41
  Q 529.93 453.33 529.84 453.42
  C 520.33 463.06 505.50 461.82 503.59 446.49
  C 503.13 442.79 503.93 438.25 502.50 433.59
  C 500.82 428.07 497.42 421.93 496.31 417.99
  Q 494.40 411.20 495.26 404.16
  Q 495.31 403.69 495.79 403.66
  Q 515.64 402.39 532.50 407.20
  C 550.86 412.45 565.63 419.76 582.09 426.60
  C 600.79 434.37 619.43 437.65 639.30 432.20
  Q 659.96 426.53 676.39 412.14
  C 687.18 402.69 697.04 392.19 708.46 383.47
  C 726.71 369.53 747.44 366.17 770.14 370.36
  Q 770.34 370.40 770.39 370.20
  L 770.39 370.19
  Q 770.44 369.99 770.24 369.94
  C 751.91 364.94 729.78 363.94 712.59 372.59
  C 698.39 379.75 687.08 390.41 675.21 400.19
  C 654.27 417.44 628.46 425.94 601.69 418.71
  C 578.08 412.33 559.03 395.39 533.96 385.81
  C 510.90 377.00 489.39 378.42 466.01 385.95
  Q 456.78 388.92 443.26 391.40
  C 405.63 398.31 371.09 389.40 349.81 356.19
  C 328.65 323.19 325.45 280.61 321.36 244.14
  A 0.31 0.31 0.0 0 0 320.76 244.08
  C 316.64 257.16 314.75 271.42 314.37 284.73
  C 312.67 344.59 340.46 410.27 408.73 415.92
  Z
  M 829.68 378.99
  C 822.66 409.83 780.30 421.47 785.00 454.01
  Q 785.04 454.31 785.23 454.46
  Q 785.67 454.83 785.71 454.26
  C 786.43 444.01 793.20 436.15 801.34 430.83
  Q 810.31 424.96 821.70 418.94
  C 831.82 413.59 842.61 406.56 847.78 395.67
  Q 850.98 388.93 850.98 379.43
  C 851.00 349.88 832.86 335.60 807.21 326.58
  A 0.36 0.36 0.0 0 0 806.86 327.19
  C 822.19 340.04 834.57 357.45 829.68 378.99
  Z
  M 96.84 440.59
  L 86.67 446.73
  L 79.63 451.47
  L 61.68 464.02
  L 41.06 479.64
  Q 38.85 481.31 41.48 480.53
  Q 42.16 480.33 44.00 479.02
  C 49.40 475.20 55.40 473.27 60.99 469.99
  L 91.92 455.76
  L 98.17 453.22
  L 107.28 449.84
  Q 149.33 434.09 188.76 430.54
  Q 212.46 428.41 236.24 427.31
  C 258.79 426.27 280.06 422.51 298.52 412.22
  C 313.23 404.01 327.18 392.04 339.03 379.06
  Q 339.30 378.77 338.99 378.53
  Q 338.75 378.34 338.35 378.60
  C 314.66 394.02 287.20 402.15 258.50 402.19
  Q 238.25 402.22 218.00 402.48
  C 173.88 403.07 133.96 417.62 96.84 440.59
  Z
  M 735.91 464.57
  C 726.15 472.14 713.32 477.26 700.97 486.38
  Q 700.42 486.79 699.85 486.42
  Q 693.25 482.18 685.56 480.46
  C 681.99 479.66 677.48 479.48 673.55 478.95
  Q 670.81 478.58 673.05 480.21
  C 673.64 480.64 674.34 481.05 674.87 481.74
  Q 681.72 490.78 688.64 499.78
  Q 688.95 500.18 688.70 500.64
  C 679.32 517.99 677.60 537.76 677.74 557.27
  C 677.80 564.16 676.78 571.32 669.00 573.42
  C 662.31 575.23 656.74 571.59 650.70 569.13
  C 644.16 566.47 635.93 565.83 630.94 571.95
  Q 627.88 575.70 625.37 579.85
  C 618.99 590.36 603.22 577.21 598.97 571.46
  C 598.28 570.54 597.54 569.02 596.72 567.84
  A 0.30 0.30 0.0 0 0 596.17 568.06
  C 597.85 578.08 605.30 587.84 613.09 593.62
  C 619.24 598.19 627.80 600.07 632.18 592.42
  C 634.77 587.89 633.79 581.88 636.93 577.69
  C 641.65 571.41 648.31 576.85 653.23 579.45
  C 661.02 583.55 668.78 585.34 677.53 583.60
  C 685.38 582.03 687.31 576.85 687.74 569.13
  C 688.87 549.05 688.62 528.21 696.27 509.26
  Q 696.62 508.41 697.22 509.10
  Q 701.08 513.56 706.83 515.18
  Q 712.49 516.77 722.27 516.95
  Q 723.06 516.96 722.42 516.50
  Q 721.41 515.77 719.75 514.78
  Q 709.11 508.41 705.98 496.95
  A 1.43 1.43 0.0 0 1 706.61 495.36
  Q 720.32 487.07 733.36 478.57
  C 748.27 468.86 756.97 458.09 762.67 440.94
  C 768.41 423.67 772.30 404.35 776.04 385.86
  Q 776.45 383.82 776.57 381.75
  Q 776.58 381.62 776.39 381.60
  Q 776.31 381.59 776.29 381.67
  Q 768.97 406.91 758.94 431.18
  Q 753.64 444.02 745.42 455.26
  A 0.60 0.59 37.2 0 1 744.57 455.37
  C 733.40 446.45 709.80 452.12 697.56 456.26
  A 0.04 0.03 69.2 0 0 697.54 456.31
  L 697.64 456.55
  Q 697.72 456.73 697.92 456.71
  C 711.08 455.36 724.56 456.09 735.89 463.85
  Q 736.39 464.19 735.91 464.57
  Z
  M 449.70 500.45
  Q 449.47 498.42 450.12 500.36
  C 454.87 514.55 459.81 530.80 459.99 544.97
  Q 460.15 558.18 455.88 571.22
  Q 455.32 572.92 456.56 571.62
  Q 458.62 569.46 461.30 566.36
  C 481.37 543.23 466.68 511.16 449.39 491.87
  C 448.68 491.08 447.95 489.49 447.68 488.47
  C 444.48 476.04 438.53 464.47 427.80 457.36
  Q 425.90 456.10 427.12 458.03
  C 433.68 468.36 437.09 480.97 439.40 493.03
  C 442.35 508.47 444.86 523.98 448.92 539.20
  A 0.34 0.34 0.0 0 0 449.58 539.20
  C 450.00 537.41 449.90 535.03 450.02 533.58
  Q 451.50 516.55 449.70 500.45
  Z
  M 420.56 520.12
  C 416.52 494.00 404.19 469.50 377.53 460.15
  Q 377.06 459.99 377.00 460.49
  A 0.35 0.33 27.2 0 0 377.10 460.77
  C 394.74 478.10 407.08 499.61 419.49 520.50
  Q 421.01 523.06 420.56 520.12
  Z
  M 373.43 466.59
  C 368.15 487.42 379.89 509.85 392.67 525.52
  Q 394.15 527.33 393.87 525.01
  C 391.41 504.55 380.33 486.29 374.35 466.57
  Q 373.85 464.92 373.43 466.59
  Z
  M 329.65 758.77
  L 332.80 736.00
  Q 337.01 702.30 338.34 668.20
  C 340.18 620.60 336.74 568.89 314.16 525.82
  L 312.82 523.70
  L 307.64 515.49
  Q 307.28 514.32 306.57 513.50
  Q 287.33 485.69 256.72 471.33
  Q 256.18 471.08 255.76 471.03
  A 0.23 0.23 0.0 0 0 255.57 471.42
  Q 259.72 475.69 263.23 480.52
  C 274.98 496.69 284.38 515.71 290.51 534.00
  C 301.34 566.30 306.62 602.18 308.25 636.50
  C 311.03 695.06 306.86 751.47 300.22 809.98
  Q 294.22 862.89 287.95 915.77
  C 284.08 948.39 281.54 974.98 282.30 1004.55
  Q 282.34 1005.87 283.22 1004.89
  C 297.94 988.56 317.65 977.18 337.97 969.15
  C 375.11 954.48 416.12 946.42 456.01 940.02
  Q 475.47 936.90 536.64 927.71
  C 568.92 922.87 600.91 916.97 632.75 909.77
  Q 659.79 903.66 687.42 893.87
  C 692.61 892.03 697.83 889.50 701.97 886.72
  Q 719.11 875.19 736.87 864.65
  C 746.13 859.16 757.60 856.17 766.24 854.73
  Q 789.23 850.91 812.16 846.78
  Q 825.87 844.32 837.05 840.19
  Q 843.02 837.99 836.74 839.00
  Q 824.93 840.91 810.00 841.12
  Q 791.36 841.37 772.75 842.50
  C 756.29 843.50 740.40 845.35 727.45 855.22
  Q 714.05 865.43 700.62 875.61
  Q 695.31 879.64 691.26 881.01
  C 673.93 886.85 653.74 891.85 634.67 895.38
  C 562.76 908.70 489.92 910.11 417.50 918.83
  Q 385.23 922.72 358.76 930.04
  C 337.62 935.88 317.60 944.80 302.92 960.01
  A 0.36 0.35 -21.8 0 1 302.31 959.75
  C 303.29 932.78 307.08 905.69 311.27 879.00
  C 317.20 841.16 323.39 804.91 329.09 765.41
  Q 329.30 763.93 329.40 762.10
  Q 329.49 760.30 329.65 758.77
  Z
  M 365.41 475.73
  C 351.64 500.49 355.38 525.27 376.29 543.48
  Q 377.90 544.88 378.88 545.59
  A 0.31 0.31 0.0 0 0 379.32 545.18
  C 365.86 524.06 363.06 500.54 366.45 476.08
  Q 366.87 473.12 365.41 475.73
  Z
  M 367.68 563.80
  C 373.54 578.25 380.72 589.86 396.90 593.00
  Q 398.26 593.27 397.21 592.37
  Q 390.20 586.39 386.49 577.26
  Q 382.92 568.50 379.01 559.89
  C 375.85 552.93 371.78 551.14 367.59 547.41
  C 353.63 534.99 353.78 518.66 352.67 501.70
  Q 352.65 501.49 352.45 501.55
  Q 352.29 501.60 352.26 501.76
  C 349.32 522.43 343.23 542.68 363.14 557.65
  C 365.57 559.48 366.61 561.16 367.68 563.80
  Z
  M 633.65 754.33
  L 643.14 757.48
  Q 648.15 759.80 653.54 761.96
  C 673.76 770.07 693.73 782.31 707.65 799.35
  Q 715.00 808.34 718.31 817.03
  Q 720.17 821.92 719.22 816.78
  C 712.49 780.12 686.51 752.90 653.16 736.58
  L 651.05 735.41
  L 637.02 729.12
  A 0.71 0.71 0.0 0 1 636.73 728.07
  L 638.32 725.75
  Q 638.61 725.34 638.49 724.86
  C 634.34 707.55 642.97 696.52 657.98 689.62
  C 659.59 688.88 660.26 688.00 660.01 686.24
  C 659.59 683.28 658.45 679.40 658.82 676.87
  C 659.85 670.01 671.70 670.51 676.48 671.36
  Q 677.21 671.49 677.03 670.78
  Q 673.56 656.46 679.63 642.70
  Q 680.44 640.87 682.67 639.14
  Q 683.07 638.84 683.53 639.02
  C 696.27 644.07 703.82 642.31 705.53 627.21
  C 706.29 620.45 708.07 615.14 716.14 618.49
  Q 727.27 623.12 739.14 625.44
  Q 739.62 625.54 739.90 625.95
  Q 741.08 627.68 741.32 629.01
  C 742.46 635.18 747.20 637.97 752.21 640.76
  Q 753.44 641.44 752.87 640.15
  Q 752.18 638.59 751.08 636.47
  Q 748.59 631.67 749.42 626.30
  A 0.79 0.77 87.9 0 1 750.01 625.65
  Q 755.84 624.29 760.27 620.27
  C 773.10 608.62 779.25 593.58 796.33 586.42
  C 813.05 579.42 829.11 579.01 847.25 581.55
  Q 866.38 584.23 890.67 591.49
  Q 890.80 591.53 890.85 591.40
  L 890.95 591.14
  A 0.43 0.43 0.0 0 0 890.73 590.60
  C 868.28 579.85 844.87 571.20 819.75 569.98
  C 806.68 569.35 788.64 572.07 778.44 581.18
  C 770.93 587.90 764.48 596.24 757.80 603.80
  C 754.87 607.11 748.10 613.52 744.25 613.28
  C 741.69 613.12 737.02 608.02 735.39 606.23
  Q 733.75 604.43 734.18 606.82
  L 735.27 612.79
  A 0.48 0.47 -0.4 0 1 734.72 613.34
  C 727.06 612.05 721.10 609.00 714.25 606.79
  C 706.07 604.15 699.22 610.50 698.04 618.25
  C 697.08 624.58 697.98 633.48 688.25 631.28
  C 684.31 630.39 680.04 627.80 676.31 630.09
  C 664.95 637.10 671.33 659.26 675.30 668.75
  A 0.37 0.37 0.0 0 1 674.84 669.24
  C 669.01 667.30 661.67 665.67 655.74 667.28
  C 646.72 669.73 651.63 679.70 653.68 685.39
  A 1.24 1.24 0.0 0 1 652.76 687.02
  C 638.96 689.77 630.03 698.08 629.94 712.33
  C 629.91 716.55 630.97 721.27 632.02 725.59
  A 0.92 0.92 0.0 0 1 630.81 726.68
  C 600.54 715.73 568.80 709.71 536.71 707.15
  Q 536.09 707.10 536.25 706.50
  C 540.41 690.90 534.34 676.01 525.13 663.38
  C 512.46 646.02 496.91 630.91 481.93 615.58
  Q 469.91 603.27 460.77 588.73
  Q 456.94 582.64 455.96 573.51
  Q 455.95 573.46 455.90 573.46
  L 455.60 573.46
  Q 455.28 573.46 455.29 573.78
  C 455.31 584.53 458.35 594.84 462.47 604.26
  C 471.19 624.14 483.08 643.29 493.86 662.37
  C 503.10 678.73 512.35 696.83 514.88 715.98
  C 515.52 720.77 514.99 725.29 514.19 730.00
  A 0.97 0.97 0.0 0 0 514.99 731.12
  C 545.74 735.98 576.31 739.73 606.70 746.87
  C 615.53 748.95 624.69 751.70 633.65 754.33
  Z
  M 468.23 578.03
  Q 477.05 582.27 483.04 589.99
  C 490.78 599.97 497.27 610.69 504.19 621.23
  C 511.88 632.94 523.11 648.22 539.25 646.43
  Q 549.60 645.28 556.56 636.07
  C 561.64 629.36 568.90 617.66 578.50 619.04
  C 585.57 620.06 600.94 623.51 604.42 614.15
  C 607.32 606.36 600.62 595.40 596.33 586.70
  Q 592.48 578.90 594.27 571.73
  Q 595.01 568.78 593.53 571.44
  Q 589.09 579.44 591.30 589.32
  C 592.56 595.00 598.06 609.86 586.48 609.64
  Q 581.36 609.55 576.23 609.12
  C 569.13 608.53 566.43 611.63 561.09 616.94
  C 555.87 622.12 551.58 627.02 545.29 631.54
  C 533.65 639.91 522.91 628.70 516.00 620.48
  C 507.12 609.94 498.91 598.88 488.63 589.63
  Q 479.80 581.69 468.63 577.52
  Q 468.39 577.43 468.29 577.66
  L 468.18 577.89
  Q 468.14 577.99 468.23 578.03
  Z
  M 1010.87 755.62
  Q 1018.22 730.74 1012.24 704.70
  Q 1008.85 689.96 1004.33 681.24
  C 1002.00 676.76 999.97 671.77 997.60 667.71
  C 970.06 620.57 922.55 588.61 871.24 572.56
  Q 868.93 571.84 871.00 573.09
  C 873.59 574.65 876.84 576.11 879.20 577.45
  C 918.36 599.88 952.12 635.31 967.64 678.09
  C 984.55 724.67 975.57 772.19 940.21 806.62
  Q 920.58 825.74 895.88 837.29
  Q 892.65 838.80 896.17 838.23
  Q 921.15 834.15 945.39 823.45
  C 975.43 810.19 1001.28 788.10 1010.87 755.62
  Z
  M 434.84 765.38
  C 388.26 768.02 350.14 794.64 323.25 831.21
  Q 323.00 831.55 323.12 831.80
  A 0.31 0.30 -31.5 0 0 323.59 831.91
  C 360.60 802.36 403.24 788.91 450.14 786.03
  Q 450.64 786.00 450.96 786.37
  C 477.36 817.37 506.35 839.80 545.56 851.78
  Q 568.36 858.75 592.01 862.25
  Q 613.30 865.41 634.72 868.08
  Q 634.97 868.12 635.02 867.87
  L 635.07 867.60
  Q 635.10 867.44 634.94 867.41
  C 602.67 860.53 569.45 851.55 539.55 837.40
  C 495.87 816.72 461.59 781.24 440.24 737.76
  C 417.81 692.07 400.09 644.01 392.01 594.34
  Q 392.00 594.29 391.94 594.29
  L 391.65 594.29
  Q 391.43 594.29 391.43 594.50
  Q 391.45 613.56 394.00 634.50
  C 399.46 679.29 412.39 726.01 435.07 764.95
  A 0.29 0.28 73.5 0 1 434.84 765.38
  Z
  M 107.18 723.56
  L 107.38 727.33
  Q 106.90 728.30 106.90 728.75
  Q 106.58 824.90 119.63 920.09
  C 127.00 973.85 136.90 1026.52 150.82 1077.66
  Q 157.27 1101.38 167.78 1128.44
  Q 168.29 1129.74 170.03 1133.03
  A 1.41 1.39 86.8 0 0 170.74 1133.67
  C 215.30 1151.79 265.03 1150.07 312.53 1138.88
  C 358.86 1127.96 403.86 1110.58 447.27 1091.24
  Q 484.49 1074.66 521.15 1056.87
  C 582.45 1027.15 643.59 997.29 706.75 971.63
  Q 709.35 970.58 712.17 970.52
  C 735.85 970.05 758.86 969.43 783.01 966.80
  Q 822.11 962.54 855.25 942.50
  Q 879.25 927.99 901.80 911.28
  C 911.65 903.99 919.38 894.24 926.89 884.17
  Q 939.51 867.27 952.15 850.39
  Q 956.10 845.11 960.53 840.21
  A 0.25 0.25 0.0 0 0 960.39 839.79
  Q 960.03 839.73 959.73 839.94
  C 944.96 850.53 932.59 863.26 919.80 876.05
  C 900.62 895.23 877.75 910.49 855.81 926.27
  C 840.93 936.97 826.80 944.81 808.76 948.75
  Q 792.70 952.25 767.25 953.48
  Q 729.52 955.31 691.75 956.32
  C 688.18 956.42 685.48 958.08 682.36 959.62
  Q 637.96 981.45 593.61 1003.37
  C 538.54 1030.59 482.52 1056.65 424.74 1077.66
  Q 389.24 1090.56 352.51 1099.32
  C 303.72 1110.96 250.43 1114.87 202.36 1098.06
  C 189.89 1093.70 177.70 1052.54 174.13 1040.47
  Q 163.01 1002.97 154.84 964.72
  Q 128.84 842.99 116.34 719.14
  C 116.01 715.88 115.18 711.49 114.99 707.59
  L 114.83 703.44
  L 110.87 651.63
  Q 110.87 651.59 110.83 651.59
  L 110.58 651.59
  Q 110.30 651.59 110.28 651.87
  C 108.97 671.84 107.31 692.11 107.48 712.14
  C 107.51 715.50 106.88 719.71 107.18 723.56
  Z
  M 738.78 782.47
  C 733.02 775.24 739.25 765.07 744.88 759.19
  Q 744.93 759.14 744.84 759.00
  Q 744.79 758.93 744.74 758.86
  A 0.02 0.01 67.5 0 0 744.72 758.84
  C 736.12 765.03 726.38 777.79 734.69 787.24
  Q 737.46 790.39 745.69 794.05
  Q 753.45 797.50 757.82 798.94
  C 775.99 804.93 794.92 801.36 810.43 790.68
  C 820.69 783.61 826.21 771.24 821.82 759.04
  C 818.34 749.36 810.60 741.35 802.30 736.11
  Q 799.25 734.20 801.84 736.70
  C 812.33 746.89 822.32 764.81 813.13 778.99
  Q 809.50 784.59 800.68 788.97
  C 782.75 797.88 767.21 796.11 749.27 788.89
  Q 741.35 785.70 738.78 782.47
  Z
  M 853.68 873.15
  C 830.96 883.89 804.12 891.42 778.86 891.65
  Q 777.78 891.65 778.67 892.26
  C 780.03 893.17 782.26 893.19 783.48 893.46
  C 847.57 908.05 893.87 865.56 942.23 836.70
  Q 954.80 829.20 968.09 825.32
  Q 970.42 824.64 967.99 824.59
  C 942.31 824.08 919.22 835.86 897.77 848.84
  C 883.43 857.52 868.86 865.99 853.68 873.15
  Z
  M 814.92 868.53
  C 825.51 865.46 837.28 861.09 844.48 851.75
  Q 848.00 847.17 847.97 839.11
  Q 847.97 838.25 847.52 838.98
  C 846.29 840.95 845.16 843.13 843.84 844.66
  C 837.25 852.27 827.64 856.30 818.28 859.28
  C 802.08 864.46 785.51 869.30 776.36 883.69
  Q 775.91 884.41 775.91 884.88
  Q 775.91 885.70 776.53 885.17
  C 787.32 876.02 801.61 872.39 814.92 868.53
  Z"
/>
<path fill="#000000" d="
  M 459.40 93.15
  C 556.70 -4.70 732.72 37.20 796.81 151.14
  C 822.50 196.81 826.54 248.94 811.96 298.47
  Q 809.45 307.01 806.77 315.51
  Q 806.52 316.31 806.15 316.63
  Q 805.59 317.10 805.58 316.37
  C 805.14 271.52 794.07 225.47 769.59 187.18
  C 722.19 113.05 635.36 80.57 549.75 91.49
  Q 498.32 98.05 452.73 122.39
  A 1.35 1.33 -43.0 0 1 451.40 122.35
  C 426.25 107.07 394.96 99.76 365.60 105.13
  C 304.17 116.37 269.91 173.19 268.87 232.26
  C 268.35 261.67 274.49 290.74 285.40 317.99
  Q 285.45 318.12 285.43 318.23
  Q 285.39 318.42 285.26 318.40
  Q 285.17 318.39 285.10 318.27
  C 263.77 284.51 250.57 245.42 252.08 205.26
  C 253.79 159.64 274.44 118.80 311.73 92.05
  C 353.93 61.78 408.74 60.53 452.21 89.12
  Q 455.38 91.20 458.58 93.24
  Q 459.03 93.52 459.40 93.15
  Z"
/>
<path fill="#000000" d="
  M 416.97 416.46
  C 417.02 413.93 417.73 410.43 416.02 408.32
  A 1.13 1.13 0.0 0 0 415.17 407.91
  Q 410.84 407.81 408.94 411.93
  Q 408.15 413.63 408.73 415.92
  C 340.46 410.27 312.67 344.59 314.37 284.73
  C 314.75 271.42 316.64 257.16 320.76 244.08
  A 0.31 0.31 0.0 0 1 321.36 244.14
  C 325.45 280.61 328.65 323.19 349.81 356.19
  C 371.09 389.40 405.63 398.31 443.26 391.40
  Q 456.78 388.92 466.01 385.95
  C 489.39 378.42 510.90 377.00 533.96 385.81
  C 559.03 395.39 578.08 412.33 601.69 418.71
  C 628.46 425.94 654.27 417.44 675.21 400.19
  C 687.08 390.41 698.39 379.75 712.59 372.59
  C 729.78 363.94 751.91 364.94 770.24 369.94
  Q 770.44 369.99 770.39 370.19
  L 770.39 370.20
  Q 770.34 370.40 770.14 370.36
  C 747.44 366.17 726.71 369.53 708.46 383.47
  C 697.04 392.19 687.18 402.69 676.39 412.14
  Q 659.96 426.53 639.30 432.20
  C 619.43 437.65 600.79 434.37 582.09 426.60
  C 565.63 419.76 550.86 412.45 532.50 407.20
  Q 515.64 402.39 495.79 403.66
  Q 495.31 403.69 495.26 404.16
  Q 494.40 411.20 496.31 417.99
  C 497.42 421.93 500.82 428.07 502.50 433.59
  C 503.93 438.25 503.13 442.79 503.59 446.49
  C 505.50 461.82 520.33 463.06 529.84 453.42
  Q 529.93 453.33 530.02 453.41
  L 530.22 453.58
  A 0.40 0.40 0.0 0 1 530.28 454.12
  C 523.03 464.02 510.43 468.67 501.40 457.52
  C 497.28 452.45 497.18 446.93 497.02 439.75
  C 496.90 434.47 493.45 428.72 491.67 423.29
  C 489.47 416.55 489.89 410.59 493.29 404.50
  A 0.46 0.45 11.4 0 0 492.84 403.83
  C 480.27 405.13 468.00 408.73 455.46 411.82
  Q 436.57 416.46 416.97 416.46
  Z"
/>
<path fill="#000000" d="
  M 829.68 378.99
  C 834.57 357.45 822.19 340.04 806.86 327.19
  A 0.36 0.36 0.0 0 1 807.21 326.58
  C 832.86 335.60 851.00 349.88 850.98 379.43
  Q 850.98 388.93 847.78 395.67
  C 842.61 406.56 831.82 413.59 821.70 418.94
  Q 810.31 424.96 801.34 430.83
  C 793.20 436.15 786.43 444.01 785.71 454.26
  Q 785.67 454.83 785.23 454.46
  Q 785.04 454.31 785.00 454.01
  C 780.30 421.47 822.66 409.83 829.68 378.99
  Z"
/>
<path fill="#000000" d="
  M 107.28 449.84
  Q 102.60 444.38 96.84 440.59
  C 133.96 417.62 173.88 403.07 218.00 402.48
  Q 238.25 402.22 258.50 402.19
  C 287.20 402.15 314.66 394.02 338.35 378.60
  Q 338.75 378.34 338.99 378.53
  Q 339.30 378.77 339.03 379.06
  C 327.18 392.04 313.23 404.01 298.52 412.22
  C 280.06 422.51 258.79 426.27 236.24 427.31
  Q 212.46 428.41 188.76 430.54
  Q 149.33 434.09 107.28 449.84
  Z"
/>
<path fill="#000000" d="
  M 735.89 463.85
  C 724.56 456.09 711.08 455.36 697.92 456.71
  Q 697.72 456.73 697.64 456.55
  L 697.54 456.31
  A 0.04 0.03 69.2 0 1 697.56 456.26
  C 709.80 452.12 733.40 446.45 744.57 455.37
  A 0.60 0.59 37.2 0 0 745.42 455.26
  Q 753.64 444.02 758.94 431.18
  Q 768.97 406.91 776.29 381.67
  Q 776.31 381.59 776.39 381.60
  Q 776.58 381.62 776.57 381.75
  Q 776.45 383.82 776.04 385.86
  C 772.30 404.35 768.41 423.67 762.67 440.94
  C 756.97 458.09 748.27 468.86 733.36 478.57
  Q 720.32 487.07 706.61 495.36
  A 1.43 1.43 0.0 0 0 705.98 496.95
  Q 709.11 508.41 719.75 514.78
  Q 721.41 515.77 722.42 516.50
  Q 723.06 516.96 722.27 516.95
  Q 712.49 516.77 706.83 515.18
  Q 701.08 513.56 697.22 509.10
  Q 696.62 508.41 696.27 509.26
  C 688.62 528.21 688.87 549.05 687.74 569.13
  C 687.31 576.85 685.38 582.03 677.53 583.60
  C 668.78 585.34 661.02 583.55 653.23 579.45
  C 648.31 576.85 641.65 571.41 636.93 577.69
  C 633.79 581.88 634.77 587.89 632.18 592.42
  C 627.80 600.07 619.24 598.19 613.09 593.62
  C 605.30 587.84 597.85 578.08 596.17 568.06
  A 0.30 0.30 0.0 0 1 596.72 567.84
  C 597.54 569.02 598.28 570.54 598.97 571.46
  C 603.22 577.21 618.99 590.36 625.37 579.85
  Q 627.88 575.70 630.94 571.95
  C 635.93 565.83 644.16 566.47 650.70 569.13
  C 656.74 571.59 662.31 575.23 669.00 573.42
  C 676.78 571.32 677.80 564.16 677.74 557.27
  C 677.60 537.76 679.32 517.99 688.70 500.64
  Q 688.95 500.18 688.64 499.78
  Q 681.72 490.78 674.87 481.74
  C 674.34 481.05 673.64 480.64 673.05 480.21
  Q 670.81 478.58 673.55 478.95
  C 677.48 479.48 681.99 479.66 685.56 480.46
  Q 693.25 482.18 699.85 486.42
  Q 700.42 486.79 700.97 486.38
  C 713.32 477.26 726.15 472.14 735.91 464.57
  Q 736.39 464.19 735.89 463.85
  Z"
/>
<path fill="#5a5a59" d="
  M 416.97 416.46
  L 413.75 416.40
  Q 414.58 414.11 413.58 412.76
  Q 412.55 411.37 412.15 413.05
  L 411.45 416.06
  L 408.73 415.92
  Q 408.15 413.63 408.94 411.93
  Q 410.84 407.81 415.17 407.91
  A 1.13 1.13 0.0 0 1 416.02 408.32
  C 417.73 410.43 417.02 413.93 416.97 416.46
  Z"
/>
<path fill="#000000" d="
  M 413.75 416.40
  L 411.45 416.06
  L 412.15 413.05
  Q 412.55 411.37 413.58 412.76
  Q 414.58 414.11 413.75 416.40
  Z"
/>
<path fill="#5a5a59" d="
  M 96.84 440.59
  Q 102.60 444.38 107.28 449.84
  L 98.17 453.22
  Q 93.47 448.52 86.67 446.73
  L 96.84 440.59
  Z"
/>
<path fill="#000000" d="
  M 86.67 446.73
  Q 93.47 448.52 98.17 453.22
  L 91.92 455.76
  Q 89.74 454.67 87.42 453.67
  Q 84.06 452.21 79.63 451.47
  L 86.67 446.73
  Z"
/>
<path fill="#5a5a59" d="
  M 79.63 451.47
  Q 84.06 452.21 87.42 453.67
  Q 89.74 454.67 91.92 455.76
  L 60.99 469.99
  Q 60.66 467.68 61.68 464.02
  L 79.63 451.47
  Z"
/>
<path fill="#000000" d="
  M 449.70 500.45
  Q 451.50 516.55 450.02 533.58
  C 449.90 535.03 450.00 537.41 449.58 539.20
  A 0.34 0.34 0.0 0 1 448.92 539.20
  C 444.86 523.98 442.35 508.47 439.40 493.03
  C 437.09 480.97 433.68 468.36 427.12 458.03
  Q 425.90 456.10 427.80 457.36
  C 438.53 464.47 444.48 476.04 447.68 488.47
  C 447.95 489.49 448.68 491.08 449.39 491.87
  C 466.68 511.16 481.37 543.23 461.30 566.36
  Q 458.62 569.46 456.56 571.62
  Q 455.32 572.92 455.88 571.22
  Q 460.15 558.18 459.99 544.97
  C 459.81 530.80 454.87 514.55 450.12 500.36
  Q 449.47 498.42 449.70 500.45
  Z"
/>
<path fill="#000000" d="
  M 377.53 460.15
  C 404.19 469.50 416.52 494.00 420.56 520.12
  Q 421.01 523.06 419.49 520.50
  C 407.08 499.61 394.74 478.10 377.10 460.77
  A 0.35 0.33 27.2 0 1 377.00 460.49
  Q 377.06 459.99 377.53 460.15
  Z"
/>
<path fill="#000000" d="
  M 61.68 464.02
  Q 60.66 467.68 60.99 469.99
  C 55.40 473.27 49.40 475.20 44.00 479.02
  Q 42.16 480.33 41.48 480.53
  Q 38.85 481.31 41.06 479.64
  L 61.68 464.02
  Z"
/>
<path fill="#000000" d="
  M 392.67 525.52
  C 379.89 509.85 368.15 487.42 373.43 466.59
  Q 373.85 464.92 374.35 466.57
  C 380.33 486.29 391.41 504.55 393.87 525.01
  Q 394.15 527.33 392.67 525.52
  Z"
/>
<path fill="#000000" d="
  M 306.57 513.50
  C 301.41 519.37 307.39 526.77 314.16 525.82
  C 336.74 568.89 340.18 620.60 338.34 668.20
  Q 337.01 702.30 332.80 736.00
  C 329.13 741.94 326.78 751.94 329.65 758.77
  Q 329.49 760.30 329.40 762.10
  Q 329.30 763.93 329.09 765.41
  C 323.39 804.91 317.20 841.16 311.27 879.00
  C 307.08 905.69 303.29 932.78 302.31 959.75
  A 0.36 0.35 -21.8 0 0 302.92 960.01
  C 317.60 944.80 337.62 935.88 358.76 930.04
  Q 385.23 922.72 417.50 918.83
  C 489.92 910.11 562.76 908.70 634.67 895.38
  C 653.74 891.85 673.93 886.85 691.26 881.01
  Q 695.31 879.64 700.62 875.61
  Q 714.05 865.43 727.45 855.22
  C 740.40 845.35 756.29 843.50 772.75 842.50
  Q 791.36 841.37 810.00 841.12
  Q 824.93 840.91 836.74 839.00
  Q 843.02 837.99 837.05 840.19
  Q 825.87 844.32 812.16 846.78
  Q 789.23 850.91 766.24 854.73
  C 757.60 856.17 746.13 859.16 736.87 864.65
  Q 719.11 875.19 701.97 886.72
  C 697.83 889.50 692.61 892.03 687.42 893.87
  Q 659.79 903.66 632.75 909.77
  C 600.91 916.97 568.92 922.87 536.64 927.71
  Q 475.47 936.90 456.01 940.02
  C 416.12 946.42 375.11 954.48 337.97 969.15
  C 317.65 977.18 297.94 988.56 283.22 1004.89
  Q 282.34 1005.87 282.30 1004.55
  C 281.54 974.98 284.08 948.39 287.95 915.77
  Q 294.22 862.89 300.22 809.98
  C 306.86 751.47 311.03 695.06 308.25 636.50
  C 306.62 602.18 301.34 566.30 290.51 534.00
  C 284.38 515.71 274.98 496.69 263.23 480.52
  Q 259.72 475.69 255.57 471.42
  A 0.23 0.23 0.0 0 1 255.76 471.03
  Q 256.18 471.08 256.72 471.33
  Q 287.33 485.69 306.57 513.50
  Z"
/>
<path fill="#000000" d="
  M 376.29 543.48
  C 355.38 525.27 351.64 500.49 365.41 475.73
  Q 366.87 473.12 366.45 476.08
  C 363.06 500.54 365.86 524.06 379.32 545.18
  A 0.31 0.31 0.0 0 1 378.88 545.59
  Q 377.90 544.88 376.29 543.48
  Z"
/>
<path fill="#000000" d="
  M 367.68 563.80
  C 366.61 561.16 365.57 559.48 363.14 557.65
  C 343.23 542.68 349.32 522.43 352.26 501.76
  Q 352.29 501.60 352.45 501.55
  Q 352.65 501.49 352.67 501.70
  C 353.78 518.66 353.63 534.99 367.59 547.41
  C 371.78 551.14 375.85 552.93 379.01 559.89
  Q 382.92 568.50 386.49 577.26
  Q 390.20 586.39 397.21 592.37
  Q 398.26 593.27 396.90 593.00
  C 380.72 589.86 373.54 578.25 367.68 563.80
  Z"
/>
<path fill="#5a5a59" d="
  M 306.57 513.50
  Q 307.28 514.32 307.64 515.49
  Q 307.05 515.68 307.24 516.76
  Q 308.09 521.58 312.05 523.78
  Q 312.50 524.03 312.82 523.70
  L 314.16 525.82
  C 307.39 526.77 301.41 519.37 306.57 513.50
  Z"
/>
<path fill="#000000" d="
  M 307.64 515.49
  L 312.82 523.70
  Q 312.50 524.03 312.05 523.78
  Q 308.09 521.58 307.24 516.76
  Q 307.05 515.68 307.64 515.49
  Z"
/>
<path fill="#000000" d="
  M 651.05 735.41
  C 647.70 739.30 652.00 742.25 654.23 744.91
  A 2.22 2.22 0.0 0 1 654.48 747.38
  L 653.39 749.40
  A 1.48 1.48 0.0 0 0 654.67 751.58
  Q 656.11 751.59 657.12 749.88
  C 661.24 742.92 651.32 741.75 653.16 736.58
  C 686.51 752.90 712.49 780.12 719.22 816.78
  Q 720.17 821.92 718.31 817.03
  Q 715.00 808.34 707.65 799.35
  C 693.73 782.31 673.76 770.07 653.54 761.96
  Q 648.15 759.80 643.14 757.48
  Q 642.08 754.90 640.14 753.14
  Q 638.21 751.40 640.45 750.08
  L 640.79 749.88
  A 3.01 3.00 52.9 0 1 644.49 750.40
  L 649.58 755.78
  A 1.47 1.47 0.0 0 0 651.69 755.81
  L 651.87 755.62
  A 1.08 1.07 -42.8 0 0 651.93 754.15
  C 649.22 751.03 642.33 742.69 637.97 748.58
  C 636.76 750.22 637.16 751.97 634.41 752.60
  A 0.77 0.75 -2.5 0 0 633.83 753.21
  L 633.65 754.33
  C 624.69 751.70 615.53 748.95 606.70 746.87
  C 576.31 739.73 545.74 735.98 514.99 731.12
  A 0.97 0.97 0.0 0 1 514.19 730.00
  C 514.99 725.29 515.52 720.77 514.88 715.98
  C 512.35 696.83 503.10 678.73 493.86 662.37
  C 483.08 643.29 471.19 624.14 462.47 604.26
  C 458.35 594.84 455.31 584.53 455.29 573.78
  Q 455.28 573.46 455.60 573.46
  L 455.90 573.46
  Q 455.95 573.46 455.96 573.51
  Q 456.94 582.64 460.77 588.73
  Q 469.91 603.27 481.93 615.58
  C 496.91 630.91 512.46 646.02 525.13 663.38
  C 534.34 676.01 540.41 690.90 536.25 706.50
  Q 536.09 707.10 536.71 707.15
  C 568.80 709.71 600.54 715.73 630.81 726.68
  A 0.92 0.92 0.0 0 0 632.02 725.59
  C 630.97 721.27 629.91 716.55 629.94 712.33
  C 630.03 698.08 638.96 689.77 652.76 687.02
  A 1.24 1.24 0.0 0 0 653.68 685.39
  C 651.63 679.70 646.72 669.73 655.74 667.28
  C 661.67 665.67 669.01 667.30 674.84 669.24
  A 0.37 0.37 0.0 0 0 675.30 668.75
  C 671.33 659.26 664.95 637.10 676.31 630.09
  C 680.04 627.80 684.31 630.39 688.25 631.28
  C 697.98 633.48 697.08 624.58 698.04 618.25
  C 699.22 610.50 706.07 604.15 714.25 606.79
  C 721.10 609.00 727.06 612.05 734.72 613.34
  A 0.48 0.47 -0.4 0 0 735.27 612.79
  L 734.18 606.82
  Q 733.75 604.43 735.39 606.23
  C 737.02 608.02 741.69 613.12 744.25 613.28
  C 748.10 613.52 754.87 607.11 757.80 603.80
  C 764.48 596.24 770.93 587.90 778.44 581.18
  C 788.64 572.07 806.68 569.35 819.75 569.98
  C 844.87 571.20 868.28 579.85 890.73 590.60
  A 0.43 0.43 0.0 0 1 890.95 591.14
  L 890.85 591.40
  Q 890.80 591.53 890.67 591.49
  Q 866.38 584.23 847.25 581.55
  C 829.11 579.01 813.05 579.42 796.33 586.42
  C 779.25 593.58 773.10 608.62 760.27 620.27
  Q 755.84 624.29 750.01 625.65
  A 0.79 0.77 87.9 0 0 749.42 626.30
  Q 748.59 631.67 751.08 636.47
  Q 752.18 638.59 752.87 640.15
  Q 753.44 641.44 752.21 640.76
  C 747.20 637.97 742.46 635.18 741.32 629.01
  Q 741.08 627.68 739.90 625.95
  Q 739.62 625.54 739.14 625.44
  Q 727.27 623.12 716.14 618.49
  C 708.07 615.14 706.29 620.45 705.53 627.21
  C 703.82 642.31 696.27 644.07 683.53 639.02
  Q 683.07 638.84 682.67 639.14
  Q 680.44 640.87 679.63 642.70
  Q 673.56 656.46 677.03 670.78
  Q 677.21 671.49 676.48 671.36
  C 671.70 670.51 659.85 670.01 658.82 676.87
  C 658.45 679.40 659.59 683.28 660.01 686.24
  C 660.26 688.00 659.59 688.88 657.98 689.62
  C 642.97 696.52 634.34 707.55 638.49 724.86
  Q 638.61 725.34 638.32 725.75
  L 636.73 728.07
  A 0.71 0.71 0.0 0 0 637.02 729.12
  L 651.05 735.41
  Z"
/>
<path fill="#000000" d="
  M 468.23 578.03
  Q 468.14 577.99 468.18 577.89
  L 468.29 577.66
  Q 468.39 577.43 468.63 577.52
  Q 479.80 581.69 488.63 589.63
  C 498.91 598.88 507.12 609.94 516.00 620.48
  C 522.91 628.70 533.65 639.91 545.29 631.54
  C 551.58 627.02 555.87 622.12 561.09 616.94
  C 566.43 611.63 569.13 608.53 576.23 609.12
  Q 581.36 609.55 586.48 609.64
  C 598.06 609.86 592.56 595.00 591.30 589.32
  Q 589.09 579.44 593.53 571.44
  Q 595.01 568.78 594.27 571.73
  Q 592.48 578.90 596.33 586.70
  C 600.62 595.40 607.32 606.36 604.42 614.15
  C 600.94 623.51 585.57 620.06 578.50 619.04
  C 568.90 617.66 561.64 629.36 556.56 636.07
  Q 549.60 645.28 539.25 646.43
  C 523.11 648.22 511.88 632.94 504.19 621.23
  C 497.27 610.69 490.78 599.97 483.04 589.99
  Q 477.05 582.27 468.23 578.03
  Z"
/>
<path fill="#000000" d="
  M 1010.87 755.62
  C 1001.28 788.10 975.43 810.19 945.39 823.45
  Q 921.15 834.15 896.17 838.23
  Q 892.65 838.80 895.88 837.29
  Q 920.58 825.74 940.21 806.62
  C 975.57 772.19 984.55 724.67 967.64 678.09
  C 952.12 635.31 918.36 599.88 879.20 577.45
  C 876.84 576.11 873.59 574.65 871.00 573.09
  Q 868.93 571.84 871.24 572.56
  C 922.55 588.61 970.06 620.57 997.60 667.71
  C 999.97 671.77 1002.00 676.76 1004.33 681.24
  Q 1008.85 689.96 1012.24 704.70
  Q 1018.22 730.74 1010.87 755.62
  Z"
/>
<path fill="#000000" d="
  M 434.84 765.38
  A 0.29 0.28 73.5 0 0 435.07 764.95
  C 412.39 726.01 399.46 679.29 394.00 634.50
  Q 391.45 613.56 391.43 594.50
  Q 391.43 594.29 391.65 594.29
  L 391.94 594.29
  Q 392.00 594.29 392.01 594.34
  C 400.09 644.01 417.81 692.07 440.24 737.76
  C 461.59 781.24 495.87 816.72 539.55 837.40
  C 569.45 851.55 602.67 860.53 634.94 867.41
  Q 635.10 867.44 635.07 867.60
  L 635.02 867.87
  Q 634.97 868.12 634.72 868.08
  Q 613.30 865.41 592.01 862.25
  Q 568.36 858.75 545.56 851.78
  C 506.35 839.80 477.36 817.37 450.96 786.37
  Q 450.64 786.00 450.14 786.03
  C 403.24 788.91 360.60 802.36 323.59 831.91
  A 0.31 0.30 -31.5 0 1 323.12 831.80
  Q 323.00 831.55 323.25 831.21
  C 350.14 794.64 388.26 768.02 434.84 765.38
  Z"
/>
<path fill="#000000" d="
  M 114.83 703.44
  Q 113.77 705.21 112.87 706.91
  Q 112.68 707.28 112.72 707.59
  Q 112.77 707.97 112.97 708.32
  Q 113.40 709.04 113.70 708.26
  L 114.11 707.20
  Q 114.28 706.75 114.62 707.08
  Q 114.81 707.26 114.99 707.59
  C 115.18 711.49 116.01 715.88 116.34 719.14
  Q 128.84 842.99 154.84 964.72
  Q 163.01 1002.97 174.13 1040.47
  C 177.70 1052.54 189.89 1093.70 202.36 1098.06
  C 250.43 1114.87 303.72 1110.96 352.51 1099.32
  Q 389.24 1090.56 424.74 1077.66
  C 482.52 1056.65 538.54 1030.59 593.61 1003.37
  Q 637.96 981.45 682.36 959.62
  C 685.48 958.08 688.18 956.42 691.75 956.32
  Q 729.52 955.31 767.25 953.48
  Q 792.70 952.25 808.76 948.75
  C 826.80 944.81 840.93 936.97 855.81 926.27
  C 877.75 910.49 900.62 895.23 919.80 876.05
  C 932.59 863.26 944.96 850.53 959.73 839.94
  Q 960.03 839.73 960.39 839.79
  A 0.25 0.25 0.0 0 1 960.53 840.21
  Q 956.10 845.11 952.15 850.39
  Q 939.51 867.27 926.89 884.17
  C 919.38 894.24 911.65 903.99 901.80 911.28
  Q 879.25 927.99 855.25 942.50
  Q 822.11 962.54 783.01 966.80
  C 758.86 969.43 735.85 970.05 712.17 970.52
  Q 709.35 970.58 706.75 971.63
  C 643.59 997.29 582.45 1027.15 521.15 1056.87
  Q 484.49 1074.66 447.27 1091.24
  C 403.86 1110.58 358.86 1127.96 312.53 1138.88
  C 265.03 1150.07 215.30 1151.79 170.74 1133.67
  A 1.41 1.39 86.8 0 1 170.03 1133.03
  Q 168.29 1129.74 167.78 1128.44
  Q 157.27 1101.38 150.82 1077.66
  C 136.90 1026.52 127.00 973.85 119.63 920.09
  Q 106.58 824.90 106.90 728.75
  Q 106.90 728.30 107.38 727.33
  Q 107.81 728.10 108.54 728.69
  Q 110.89 730.59 110.03 726.99
  A 1.57 1.49 18.4 0 0 109.68 726.33
  L 107.18 723.56
  C 106.88 719.71 107.51 715.50 107.48 712.14
  C 107.31 692.11 108.97 671.84 110.28 651.87
  Q 110.30 651.59 110.58 651.59
  L 110.83 651.59
  Q 110.87 651.59 110.87 651.63
  L 114.83 703.44
  Z
  M 110.75 709.88
  L 110.06 709.88
  A 0.76 0.75 13.6 0 0 109.39 710.28
  Q 108.96 711.09 108.86 712.02
  A 0.44 0.44 0.0 0 0 109.18 712.48
  L 109.58 712.59
  Q 110.11 712.74 110.12 712.19
  Q 110.14 711.16 110.96 710.74
  A 0.46 0.46 0.0 0 0 110.75 709.88
  Z
  M 109.23 715.79
  C 107.45 718.01 111.84 721.61 113.65 723.10
  Q 114.21 723.56 114.75 723.62
  A 0.76 0.76 0.0 0 0 115.51 722.51
  Q 114.41 720.36 112.58 718.83
  C 111.11 717.60 110.55 716.45 109.78 714.84
  Q 109.63 714.53 109.45 714.82
  Q 109.34 714.99 109.38 715.19
  Q 109.45 715.53 109.23 715.79
  Z"
/>
<path fill="#5a5a59" d="
  M 114.83 703.44
  L 114.99 707.59
  Q 114.81 707.26 114.62 707.08
  Q 114.28 706.75 114.11 707.20
  L 113.70 708.26
  Q 113.40 709.04 112.97 708.32
  Q 112.77 707.97 112.72 707.59
  Q 112.68 707.28 112.87 706.91
  Q 113.77 705.21 114.83 703.44
  Z"
/>
<path fill="#5a5a59" d="
  M 110.96 710.74
  Q 110.14 711.16 110.12 712.19
  Q 110.11 712.74 109.58 712.59
  L 109.18 712.48
  A 0.44 0.44 0.0 0 1 108.86 712.02
  Q 108.96 711.09 109.39 710.28
  A 0.76 0.75 13.6 0 1 110.06 709.88
  L 110.75 709.88
  A 0.46 0.46 0.0 0 1 110.96 710.74
  Z"
/>
<path fill="#5a5a59" d="
  M 109.38 715.19
  Q 109.34 714.99 109.45 714.82
  Q 109.63 714.53 109.78 714.84
  C 110.55 716.45 111.11 717.60 112.58 718.83
  Q 114.41 720.36 115.51 722.51
  A 0.76 0.76 0.0 0 1 114.75 723.62
  Q 114.21 723.56 113.65 723.10
  C 111.84 721.61 107.45 718.01 109.23 715.79
  Q 109.45 715.53 109.38 715.19
  Z"
/>
<path fill="#5a5a59" d="
  M 107.18 723.56
  L 109.68 726.33
  A 1.57 1.49 18.4 0 1 110.03 726.99
  Q 110.89 730.59 108.54 728.69
  Q 107.81 728.10 107.38 727.33
  L 107.18 723.56
  Z"
/>
<path fill="#000000" d="
  M 749.27 788.89
  C 767.21 796.11 782.75 797.88 800.68 788.97
  Q 809.50 784.59 813.13 778.99
  C 822.32 764.81 812.33 746.89 801.84 736.70
  Q 799.25 734.20 802.30 736.11
  C 810.60 741.35 818.34 749.36 821.82 759.04
  C 826.21 771.24 820.69 783.61 810.43 790.68
  C 794.92 801.36 775.99 804.93 757.82 798.94
  Q 753.45 797.50 745.69 794.05
  Q 737.46 790.39 734.69 787.24
  C 726.38 777.79 736.12 765.03 744.72 758.84
  A 0.02 0.01 67.5 0 1 744.74 758.86
  Q 744.79 758.93 744.84 759.00
  Q 744.93 759.14 744.88 759.19
  C 739.25 765.07 733.02 775.24 738.78 782.47
  Q 741.35 785.70 749.27 788.89
  Z"
/>
<path fill="#5a5a59" d="
  M 651.05 735.41
  L 653.16 736.58
  C 651.32 741.75 661.24 742.92 657.12 749.88
  Q 656.11 751.59 654.67 751.58
  A 1.48 1.48 0.0 0 1 653.39 749.40
  L 654.48 747.38
  A 2.22 2.22 0.0 0 0 654.23 744.91
  C 652.00 742.25 647.70 739.30 651.05 735.41
  Z"
/>
<path fill="#5a5a59" d="
  M 332.80 736.00
  L 329.65 758.77
  C 326.78 751.94 329.13 741.94 332.80 736.00
  Z"
/>
<path fill="#5a5a59" d="
  M 643.14 757.48
  L 633.65 754.33
  L 633.83 753.21
  A 0.77 0.75 -2.5 0 1 634.41 752.60
  C 637.16 751.97 636.76 750.22 637.97 748.58
  C 642.33 742.69 649.22 751.03 651.93 754.15
  A 1.08 1.07 -42.8 0 1 651.87 755.62
  L 651.69 755.81
  A 1.47 1.47 0.0 0 1 649.58 755.78
  L 644.49 750.40
  A 3.01 3.00 52.9 0 0 640.79 749.88
  L 640.45 750.08
  Q 638.21 751.40 640.14 753.14
  Q 642.08 754.90 643.14 757.48
  Z"
/>
<path fill="#000000" d="
  M 853.68 873.15
  C 868.86 865.99 883.43 857.52 897.77 848.84
  C 919.22 835.86 942.31 824.08 967.99 824.59
  Q 970.42 824.64 968.09 825.32
  Q 954.80 829.20 942.23 836.70
  C 893.87 865.56 847.57 908.05 783.48 893.46
  C 782.26 893.19 780.03 893.17 778.67 892.26
  Q 777.78 891.65 778.86 891.65
  C 804.12 891.42 830.96 883.89 853.68 873.15
  Z"
/>
<path fill="#000000" d="
  M 814.92 868.53
  C 801.61 872.39 787.32 876.02 776.53 885.17
  Q 775.91 885.70 775.91 884.88
  Q 775.91 884.41 776.36 883.69
  C 785.51 869.30 802.08 864.46 818.28 859.28
  C 827.64 856.30 837.25 852.27 843.84 844.66
  C 845.16 843.13 846.29 840.95 847.52 838.98
  Q 847.97 838.25 847.97 839.11
  Q 848.00 847.17 844.48 851.75
  C 837.28 861.09 825.51 865.46 814.92 868.53
  Z"
/>
</svg>
