<?xml version="1.0" encoding="UTF-8" standalone="no"?>
<!DOCTYPE svg PUBLIC "-//W3C//DTD SVG 1.1//EN" "http://www.w3.org/Graphics/SVG/1.1/DTD/svg11.dtd">
<svg xmlns="http://www.w3.org/2000/svg" version="1.1" viewBox="0.00 0.00 810.00 810.00">
<g stroke-width="5.00" fill="none" stroke-linecap="butt">
<path stroke="#7e7a7c" vector-effect="non-scaling-stroke" d="
  M 176.19 416.41
  Q 176.18 417.86 175.01 417.00
  C 170.70 413.85 162.63 408.43 160.18 403.97
  C 156.17 396.66 151.59 389.41 148.67 381.94
  C 144.49 371.25 143.38 362.21 141.64 351.98
  Q 138.89 335.83 140.22 319.51
  Q 141.17 307.86 149.03 299.39
  A 1.03 1.03 0.0 0 0 149.27 298.42
  L 148.86 296.92
  Q 148.73 296.45 148.93 296.02
  C 153.06 287.02 159.30 277.85 167.62 272.27
  C 170.87 270.10 173.30 266.89 176.44 264.44
  Q 182.84 259.44 189.49 254.78
  C 199.43 247.83 210.42 242.99 221.60 238.44
  Q 225.11 237.01 229.12 236.56
  C 238.02 235.55 248.12 233.85 255.88 234.26
  Q 263.54 234.67 270.99 236.81
  Q 272.56 237.25 274.20 237.22
  Q 274.39 237.21 274.44 237.02
  Q 274.47 236.87 274.50 236.73
  Q 274.58 236.41 274.28 236.29
  C 265.75 233.03 256.04 229.95 246.82 230.41
  C 237.07 230.91 227.41 230.39 217.99 233.54
  C 195.38 241.11 174.95 256.00 156.67 273.67
  Q 149.24 280.85 142.31 292.89
  C 140.80 295.50 141.01 298.38 139.59 301.14
  Q 134.48 311.06 134.28 322.38
  C 134.01 336.95 135.67 348.56 138.05 364.24
  C 140.17 378.22 149.84 394.02 157.74 406.32
  Q 160.13 410.04 162.60 411.66
  Q 171.48 417.48 180.69 423.19
  Q 183.47 424.92 181.99 422.00
  C 178.04 414.19 179.92 405.08 180.76 396.75
  C 181.45 389.86 181.40 380.94 184.17 373.20
  Q 186.66 366.27 188.26 360.72
  C 191.20 350.54 196.05 341.47 201.09 332.11
  A 3.21 3.19 10.2 0 1 203.47 330.47
  L 203.82 330.42
  A 0.93 0.92 -82.2 0 1 204.79 331.70
  C 203.01 335.94 200.55 340.22 198.97 343.86
  Q 192.32 359.17 186.02 374.62
  Q 183.68 380.35 183.27 385.50
  Q 182.77 391.86 182.42 407.75
  Q 182.37 410.14 182.79 411.94
  Q 183.15 413.50 184.02 412.16
  Q 184.54 411.37 184.86 409.77
  Q 187.48 396.92 189.04 383.90
  C 189.27 382.00 189.79 380.03 190.40 378.42
  C 195.59 364.71 201.78 346.69 210.88 332.58
  Q 212.16 330.60 214.23 330.48
  Q 223.52 329.96 230.37 324.62
  Q 240.12 317.00 246.34 306.29
  C 249.21 301.35 249.20 294.24 249.32 288.22
  Q 249.49 279.57 242.89 274.09
  A 1.85 1.85 0.0 0 1 242.51 271.67
  C 247.79 263.42 253.52 256.11 255.88 246.52
  Q 256.23 245.12 255.92 243.96
  A 0.57 0.56 -35.4 0 0 254.91 243.79
  L 238.46 267.46
  A 2.27 2.25 -75.8 0 1 236.88 268.41
  L 236.05 268.51
  A 0.51 0.51 0.0 0 1 235.57 267.73
  Q 240.85 259.60 245.23 253.75
  C 247.82 250.28 250.30 245.69 249.93 241.22
  A 0.75 0.74 62.9 0 0 248.62 240.79
  C 245.12 244.92 241.79 250.01 238.78 253.72
  Q 234.84 258.55 230.83 263.33
  Q 228.91 265.61 226.50 265.28
  Q 220.64 264.48 214.77 263.91
  C 206.39 263.09 197.03 269.88 193.25 276.82
  C 192.43 278.33 191.20 281.12 189.55 281.85
  C 185.58 283.63 181.86 286.15 180.96 289.73
  Q 176.60 307.01 189.37 318.88
  Q 193.00 322.25 196.61 325.44
  A 2.12 2.10 34.9 0 1 197.08 328.01
  Q 186.32 348.35 179.85 370.67
  C 177.99 377.12 176.95 380.66 176.50 386.25
  Q 175.56 398.09 176.01 407.49
  Q 176.24 412.33 176.19 416.41"
/>
<path stroke="#7e7a7c" vector-effect="non-scaling-stroke" d="
  M 302.52 259.76
  C 310.20 263.74 320.70 271.45 324.24 279.74
  Q 327.08 286.37 330.78 297.21
  Q 330.97 297.77 332.21 299.20
  Q 332.58 299.63 332.91 299.18
  C 334.90 296.49 334.82 290.93 334.40 288.29
  C 331.93 272.82 322.43 263.27 309.37 255.73
  C 290.27 244.71 290.20 275.09 302.07 276.00
  A 1.72 1.72 0.0 0 0 303.82 273.72
  C 302.09 268.77 299.82 265.80 301.65 260.12
  A 0.61 0.61 0.0 0 1 302.52 259.76"
/>
<path stroke="#7e7a7c" vector-effect="non-scaling-stroke" d="
  M 612.41 374.74
  Q 612.30 372.72 613.34 374.45
  C 625.22 394.24 628.14 414.74 626.96 437.33
  C 626.50 446.15 624.40 455.66 622.53 464.75
  Q 621.59 469.33 619.08 473.27
  C 604.67 495.83 584.73 511.68 557.48 515.11
  C 539.63 517.36 522.46 516.52 505.37 511.41
  C 497.09 508.94 488.16 504.38 479.69 500.60
  Q 477.30 499.54 474.83 499.88
  C 472.19 500.25 470.76 502.84 467.49 503.41
  C 453.08 505.93 437.96 509.02 423.50 508.47
  Q 409.49 507.94 405.00 507.89
  C 392.31 507.74 382.63 505.08 371.27 502.94
  C 359.94 500.81 349.41 494.69 336.40 487.86
  Q 323.85 481.26 311.41 470.09
  Q 307.57 466.64 301.61 457.31
  Q 301.35 456.90 301.75 456.61
  Q 306.57 453.27 310.09 448.67
  C 315.51 441.58 321.15 435.12 327.29 428.64
  C 328.85 426.98 329.87 426.96 332.00 426.46
  C 336.38 425.45 341.00 418.90 344.19 413.45
  Q 346.93 408.78 347.96 402.58
  C 348.47 399.51 349.25 396.83 351.11 394.86
  C 359.64 385.84 370.70 379.01 382.67 374.73
  C 393.59 370.83 404.90 367.86 416.00 364.47
  Q 425.20 361.66 441.07 359.79
  C 449.19 358.84 458.70 358.64 467.51 358.02
  C 478.76 357.22 490.49 359.53 501.58 361.20
  Q 501.90 361.25 501.94 360.93
  Q 502.01 360.44 501.57 360.19
  C 494.64 356.28 487.33 355.73 479.75 354.03
  Q 477.01 353.42 469.60 353.12
  C 457.15 352.62 444.18 353.92 431.86 355.67
  C 416.74 357.82 401.30 362.98 386.51 367.70
  C 372.97 372.02 362.54 377.35 352.01 385.57
  Q 350.19 386.99 351.12 384.88
  C 354.57 377.11 359.41 367.37 359.43 358.97
  C 359.46 343.61 353.88 323.85 342.82 312.39
  C 335.97 305.30 326.68 299.76 316.67 298.92
  A 0.36 0.36 0.0 0 0 316.32 299.45
  Q 317.00 300.69 318.19 301.52
  Q 325.33 306.51 332.41 311.59
  C 344.62 320.35 350.73 338.25 352.67 352.63
  Q 353.56 359.24 352.21 365.32
  C 350.53 372.83 347.22 379.86 343.17 386.39
  C 341.02 389.86 340.05 392.24 340.01 396.00
  C 339.97 399.22 340.45 402.84 340.07 405.70
  Q 338.81 415.08 331.15 421.10
  Q 330.74 421.43 330.40 421.04
  C 327.64 417.88 325.36 422.77 323.94 424.52
  C 319.65 429.78 313.58 433.76 310.54 437.29
  C 308.18 440.03 305.70 444.70 302.69 447.52
  C 293.10 456.49 278.62 459.52 265.99 457.18
  Q 260.16 456.09 242.17 451.40
  C 239.66 450.75 234.78 450.29 232.52 448.96
  Q 228.30 446.49 219.64 443.38
  Q 212.27 440.73 204.62 433.80
  C 202.39 431.78 204.25 428.81 200.51 427.48
  C 197.59 426.45 195.28 430.20 195.82 432.55
  C 196.66 436.28 205.11 441.80 208.33 443.65
  C 213.67 446.71 222.29 448.74 227.52 451.94
  Q 233.94 455.86 235.98 456.08
  Q 244.04 456.92 248.18 458.57
  C 258.01 462.49 271.14 465.46 281.69 463.94
  C 286.47 463.25 289.80 461.12 293.95 459.74
  A 1.12 1.11 64.0 0 1 295.22 460.18
  C 301.77 469.92 307.85 476.74 318.87 484.38
  C 342.65 500.86 369.77 511.97 399.01 512.78
  Q 405.88 512.97 421.25 513.49
  C 438.13 514.05 453.49 510.29 469.83 505.74
  C 472.18 505.09 473.92 505.30 476.02 506.22
  C 487.73 511.33 499.34 516.93 511.99 519.32
  C 531.64 523.03 549.33 521.89 570.76 518.26
  C 573.10 517.86 576.89 516.51 579.50 515.11
  Q 586.87 511.17 594.20 507.11
  C 603.56 501.93 610.62 493.40 617.59 484.61
  C 621.16 480.11 623.16 475.28 625.66 470.23
  C 630.48 460.50 629.97 451.98 631.04 441.92
  Q 632.33 429.78 632.34 429.54
  Q 632.97 417.37 631.05 405.27
  C 629.35 394.59 625.94 388.04 622.32 379.23
  C 617.65 367.88 606.77 356.49 597.90 346.85
  Q 588.47 336.61 575.96 330.52
  Q 560.84 323.15 552.26 321.25
  Q 540.40 318.64 528.48 316.30
  Q 525.60 315.73 522.67 315.69
  C 515.99 315.60 509.35 314.26 502.75 313.30
  Q 495.63 312.26 478.76 312.98
  Q 460.00 313.78 441.25 314.58
  C 417.77 315.58 394.28 317.79 370.82 319.33
  C 365.12 319.71 360.08 320.74 354.83 322.20
  Q 352.71 322.80 353.39 324.97
  C 354.39 328.21 358.56 327.23 361.16 326.57
  C 368.27 324.78 375.98 324.21 383.28 323.68
  C 395.66 322.79 407.88 321.19 420.27 320.79
  C 431.87 320.43 443.32 318.88 454.94 318.57
  Q 473.28 318.08 491.62 317.81
  C 500.65 317.69 509.66 319.58 518.74 320.45
  C 542.18 322.69 566.00 328.33 585.20 343.04
  C 597.99 352.85 606.74 369.22 609.70 384.91
  C 611.01 391.86 612.50 398.07 612.10 405.61
  Q 612.09 405.70 612.13 405.76
  Q 612.17 405.82 612.24 405.86
  Q 612.43 405.96 612.51 405.71
  C 613.31 403.10 614.82 401.33 615.02 398.64
  C 615.56 391.13 615.37 383.40 612.86 376.21
  Q 612.42 374.94 612.41 374.74"
/>
<path stroke="#7e7a7c" vector-effect="non-scaling-stroke" d="
  M 150.14 320.58
  C 154.10 329.29 163.34 331.50 171.26 334.87
  Q 172.79 335.51 172.45 333.89
  Q 172.10 332.27 169.09 330.97
  Q 163.09 328.38 157.83 324.55
  C 155.41 322.79 153.34 320.17 150.93 317.95
  Q 150.15 317.23 149.80 318.24
  Q 149.49 319.14 150.14 320.58"
/>
<path stroke="#7e7a7c" vector-effect="non-scaling-stroke" d="
  M 150.88 329.90
  Q 150.56 329.15 149.74 329.09
  L 149.34 329.06
  A 0.33 0.33 0.0 0 0 149.00 329.50
  C 152.39 339.81 155.90 349.86 165.90 355.61
  A 0.47 0.47 0.0 0 0 166.59 355.07
  C 165.79 352.35 162.45 349.12 160.60 346.91
  Q 155.68 341.03 150.88 329.90"
/>
<path stroke="#7e7a7c" vector-effect="non-scaling-stroke" d="
  M 276.57 354.68
  C 279.66 356.41 281.10 358.95 285.52 358.05
  Q 287.62 357.62 290.54 354.77
  C 295.00 350.41 292.19 344.75 287.06 342.86
  C 277.46 339.32 269.72 346.95 268.36 356.22
  A 4.54 4.53 24.8 0 0 269.87 360.30
  L 271.28 361.53
  Q 273.70 363.64 274.69 360.59
  Q 275.61 357.75 275.91 355.02
  Q 275.99 354.36 276.57 354.68"
/>
<path stroke="#7e7a7c" vector-effect="non-scaling-stroke" d="
  M 154.8614 373.5287
  A 12.84 1.76 81.8 0 0 154.7720 360.5690
  A 12.84 1.76 81.8 0 0 151.1986 348.1113
  A 12.84 1.76 81.8 0 0 151.2880 361.0710
  A 12.84 1.76 81.8 0 0 154.8614 373.5287"
/>
<path stroke="#7e7a7c" vector-effect="non-scaling-stroke" d="
  M 283.84 393.32
  C 284.80 390.32 287.73 386.96 287.51 382.96
  A 0.45 0.45 0.0 0 0 286.88 382.58
  C 282.20 384.66 275.21 390.56 276.14 396.20
  C 276.70 399.58 280.93 399.44 282.45 396.99
  Q 282.88 396.29 283.84 393.32"
/>
<path stroke="#7e7a7c" vector-effect="non-scaling-stroke" d="
  M 297.76 396.45
  C 292.61 401.09 296.12 407.20 293.13 412.39
  A 1.41 1.41 0.0 0 0 293.86 414.41
  C 296.61 415.43 299.09 412.25 300.31 410.25
  C 301.68 408.02 301.80 404.40 303.83 402.08
  Q 308.32 396.96 313.39 391.58
  A 0.92 0.92 0.0 0 0 313.27 390.21
  Q 307.90 386.24 303.12 389.90
  C 301.11 391.45 300.00 394.44 297.76 396.45"
/>
<path stroke="#7e7a7c" vector-effect="non-scaling-stroke" d="
  M 243.13 405.04
  C 245.15 405.93 247.05 407.31 249.01 407.61
  Q 254.18 408.43 258.06 404.56
  C 262.40 400.24 254.88 395.02 251.39 392.87
  Q 247.37 390.40 243.06 392.38
  C 235.77 395.74 233.75 403.03 234.73 411.11
  A 4.85 4.84 -87.4 0 0 238.51 415.26
  L 239.79 415.54
  Q 243.00 416.24 242.28 413.04
  Q 241.39 409.14 242.37 405.41
  A 0.56 0.55 -70.6 0 1 243.13 405.04"
/>
<path stroke="#7e7a7c" vector-effect="non-scaling-stroke" d="
  M 308.06 408.85
  L 311.55 400.41
  A 0.44 0.44 0.0 0 0 311.33 399.84
  C 307.68 398.17 304.86 402.47 303.16 405.95
  Q 301.92 408.49 304.46 409.72
  L 305.04 410.00
  A 2.22 2.22 0.0 0 0 308.06 408.85"
/>
<path stroke="#7e7a7c" vector-effect="non-scaling-stroke" d="
  M 527.76 423.73
  C 523.93 439.61 516.20 453.91 507.04 467.31
  Q 502.77 473.57 497.14 478.63
  C 489.88 485.15 481.82 491.80 472.59 495.29
  A 1.62 1.61 73.0 0 0 471.59 497.18
  C 472.26 499.94 476.24 499.46 478.19 498.58
  C 487.04 494.59 493.94 488.08 500.82 481.40
  C 507.39 475.03 513.93 465.69 517.66 458.44
  Q 523.16 447.74 528.05 430.19
  Q 529.19 426.08 528.62 423.73
  Q 528.19 421.97 527.76 423.73"
/>
<path stroke="#7e7a7c" vector-effect="non-scaling-stroke" d="
  M 656.78 491.95
  A 0.59 0.59 0.0 0 1 655.96 492.30
  C 653.98 491.39 652.01 490.15 649.92 489.88
  C 640.44 488.66 631.95 496.65 634.73 506.49
  C 635.34 508.64 636.89 512.14 636.41 514.28
  A 1.72 1.71 -16.3 0 1 635.95 515.11
  Q 634.34 516.70 632.87 518.36
  C 626.27 525.81 634.27 532.46 640.14 536.09
  Q 646.61 540.09 654.25 539.43
  C 657.44 539.16 661.48 537.53 665.73 538.50
  C 671.97 539.93 675.26 539.37 680.40 535.13
  Q 686.77 529.88 688.40 523.48
  C 689.76 518.14 687.48 515.22 684.15 511.59
  A 1.17 1.15 41.9 0 1 684.06 510.11
  C 686.12 507.32 688.94 503.60 687.95 499.99
  C 686.87 496.02 681.57 496.15 678.40 495.53
  A 2.40 2.40 0.0 0 1 676.48 493.48
  C 676.09 490.46 675.59 484.28 673.33 482.42
  Q 670.84 480.38 668.49 481.02
  Q 659.59 483.43 656.78 491.95"
/>
<path stroke="#7e7a7c" vector-effect="non-scaling-stroke" d="
  M 719.32 503.83
  Q 725.99 499.93 722.21 492.13
  C 718.75 484.97 706.29 491.25 708.01 495.01
  C 709.16 497.54 709.56 500.93 711.10 502.85
  Q 714.26 506.79 719.32 503.83"
/>
<path stroke="#7e7a7c" vector-effect="non-scaling-stroke" d="
  M 197.83 519.19
  C 185.67 524.17 192.83 540.02 195.39 548.29
  C 198.16 557.26 211.02 563.04 220.00 563.45
  C 226.64 563.76 234.76 564.18 240.44 560.96
  Q 242.06 560.04 246.91 556.39
  C 249.27 554.62 250.51 552.20 252.46 549.96
  C 256.03 545.87 258.05 541.44 260.97 537.06
  Q 263.73 532.93 264.21 530.54
  C 265.36 524.87 261.15 510.32 255.21 508.05
  C 253.27 507.32 248.70 506.27 247.86 504.36
  Q 246.18 500.49 241.49 500.08
  Q 234.50 499.45 227.49 498.86
  C 218.71 498.13 210.28 504.75 203.23 509.23
  C 199.40 511.66 199.02 513.05 199.00 517.45
  A 1.90 1.89 79.0 0 1 197.83 519.19"
/>
<path stroke="#7e7a7c" vector-effect="non-scaling-stroke" d="
  M 165.69 529.56
  C 171.44 541.21 183.36 528.95 175.65 523.11
  C 171.08 519.65 162.23 522.54 165.69 529.56"
/>
<path stroke="#7e7a7c" vector-effect="non-scaling-stroke" d="
  M 277.70 552.56
  C 283.41 555.30 293.37 557.21 299.25 553.97
  Q 302.45 552.22 306.39 548.39
  C 310.66 544.24 308.24 536.37 304.56 532.94
  C 301.20 529.81 297.39 525.84 293.71 523.88
  C 285.75 519.64 277.55 522.04 272.30 529.15
  Q 269.44 533.02 268.51 534.99
  C 265.22 541.93 271.57 549.61 277.70 552.56"
/>
<path stroke="#7e7a7c" vector-effect="non-scaling-stroke" d="
  M 265.9744 580.3001
  A 7.81 6.58 109.1 0 0 274.7478 575.0731
  A 7.81 6.58 109.1 0 0 271.0856 565.5399
  A 7.81 6.58 109.1 0 0 262.3122 570.7669
  A 7.81 6.58 109.1 0 0 265.9744 580.3001"
/>
<path stroke="#7e7a7c" vector-effect="non-scaling-stroke" d="
  M 238.23 619.26
  C 240.68 616.56 244.25 617.90 247.39 615.78
  Q 256.18 609.84 257.63 599.28
  C 258.78 590.98 254.83 582.98 246.56 580.70
  C 244.21 580.05 240.36 579.75 239.32 577.42
  C 237.36 572.99 235.41 566.43 228.74 569.94
  Q 224.71 572.06 222.45 577.04
  C 219.23 584.10 208.29 574.70 205.89 585.78
  Q 204.93 590.23 205.97 592.51
  C 207.07 594.95 209.03 598.02 208.36 600.82
  C 207.02 606.35 205.12 610.49 208.35 615.97
  C 214.95 627.18 229.34 629.08 238.23 619.26"
/>
<path stroke="#7e7a7c" vector-effect="non-scaling-stroke" d="
  M 236.75 274.86
  C 233.77 273.00 226.44 269.49 222.51 269.28
  C 218.57 269.07 214.25 268.11 210.64 269.20
  C 203.43 271.36 198.32 277.88 196.62 285.03
  Q 196.40 285.97 195.44 292.49
  C 194.39 299.59 192.32 312.75 201.28 316.10
  C 210.01 319.37 218.59 317.14 224.59 310.16
  C 229.24 304.74 231.77 298.91 230.22 291.50
  Q 229.07 286.03 224.68 282.59
  Q 221.15 279.84 218.24 280.19
  Q 205.35 281.72 203.30 293.84
  Q 202.94 295.97 204.20 294.22
  Q 208.29 288.56 215.98 289.96
  C 220.51 290.78 223.93 292.80 224.32 297.73
  Q 224.78 303.35 218.72 305.55
  C 208.97 309.09 206.73 308.69 200.36 300.99
  C 196.02 295.74 198.63 291.09 200.94 284.80
  C 202.85 279.62 210.31 276.14 215.51 275.78
  C 229.66 274.80 238.89 289.56 234.44 302.24
  C 233.15 305.93 228.92 312.50 226.46 314.96
  C 219.03 322.41 209.63 322.36 199.79 320.59
  Q 199.11 320.47 199.61 320.95
  C 202.98 324.22 207.34 326.48 212.18 325.66
  C 215.27 325.14 218.60 324.88 221.41 323.98
  C 232.29 320.53 241.61 306.92 243.52 296.03
  C 244.87 288.34 243.62 279.16 236.75 274.86"
/>
<path stroke="#7e7a7c" vector-effect="non-scaling-stroke" d="
  M 188.74 309.38
  Q 189.23 310.21 189.23 309.25
  L 189.26 290.99
  Q 189.26 290.14 188.75 290.81
  C 184.67 296.14 185.39 303.68 188.74 309.38"
/>
<path stroke="#7e7a7c" vector-effect="non-scaling-stroke" d="
  M 218.96 295.76
  C 216.31 289.77 203.80 295.66 208.78 303.30
  A 1.54 1.54 0.0 0 0 210.28 303.99
  C 214.42 303.43 221.73 302.00 218.96 295.76"
/>
<path stroke="#7e7a7c" vector-effect="non-scaling-stroke" d="
  M 284.62 349.63
  Q 284.68 349.13 284.50 348.70
  Q 284.24 348.13 283.76 348.53
  Q 282.97 349.16 283.51 350.17
  A 0.72 0.72 0.0 0 0 284.16 350.55
  Q 285.04 350.52 284.62 349.63"
/>
<path stroke="#7e7a7c" vector-effect="non-scaling-stroke" d="
  M 248.83 397.82
  Q 248.11 397.48 247.84 398.22
  C 247.49 399.18 247.98 401.13 249.24 401.23
  Q 250.18 401.31 250.93 399.96
  A 0.97 0.96 -62.8 0 0 250.50 398.61
  L 248.83 397.82"
/>
<path stroke="#7e7a7c" vector-effect="non-scaling-stroke" d="
  M 661.15 497.62
  C 655.60 498.83 650.65 493.51 645.51 496.30
  C 636.54 501.18 639.38 505.97 642.42 513.85
  C 644.95 520.39 626.79 520.80 640.39 531.30
  C 644.92 534.78 650.76 536.84 656.44 535.01
  C 659.20 534.11 662.22 533.55 665.09 534.34
  C 667.52 535.00 669.26 535.84 671.79 535.18
  Q 681.71 532.60 684.64 522.14
  C 685.47 519.17 684.73 517.50 682.18 515.75
  C 680.36 514.49 676.50 512.69 678.83 509.85
  Q 681.15 507.02 683.20 502.78
  A 1.67 1.67 0.0 0 0 681.98 500.41
  C 679.81 500.04 675.74 499.67 674.02 498.36
  C 670.58 495.72 673.13 489.07 670.13 486.18
  A 1.24 1.24 0.0 0 0 668.60 486.03
  L 663.14 489.53
  A 1.97 1.97 0.0 0 0 662.32 491.71
  Q 663.09 494.46 661.86 497.05
  Q 661.64 497.51 661.15 497.62"
/>
<path stroke="#7e7a7c" vector-effect="non-scaling-stroke" d="
  M 650.47 515.45
  C 650.72 519.67 656.10 524.12 660.44 523.43
  C 662.68 523.08 667.37 518.50 669.37 516.50
  C 674.26 511.59 668.16 505.77 663.37 504.82
  C 656.96 503.55 650.06 508.64 650.47 515.45"
/>
<path stroke="#7e7a7c" vector-effect="non-scaling-stroke" d="
  M 714.86 496.12
  L 716.47 497.10
  A 0.27 0.27 0.0 0 0 716.84 497.01
  L 717.29 496.28
  A 1.85 1.14 -58.7 0 0 717.27 494.10
  L 717.15 494.03
  A 1.85 1.14 -58.7 0 0 715.22 495.02
  L 714.77 495.75
  A 0.27 0.27 0.0 0 0 714.86 496.12"
/>
<path stroke="#7e7a7c" vector-effect="non-scaling-stroke" d="
  M 241.37 504.46
  C 235.28 504.23 224.78 501.82 219.44 505.16
  Q 212.44 509.54 205.42 513.89
  Q 204.44 514.49 203.91 516.20
  A 2.12 2.10 -55.0 0 0 204.23 518.07
  L 206.97 521.74
  Q 207.58 522.55 207.98 521.62
  C 210.62 515.51 216.23 512.63 220.97 509.18
  Q 225.54 505.85 227.92 505.08
  C 238.56 501.66 249.18 509.82 252.38 519.72
  C 253.17 522.16 254.33 523.53 255.63 525.59
  C 256.99 527.74 256.84 529.57 256.76 532.00
  Q 256.73 532.65 257.23 532.23
  C 261.35 528.69 258.52 521.30 256.63 515.79
  Q 255.62 512.83 253.27 511.91
  Q 248.47 510.03 245.98 507.76
  Q 244.23 506.17 242.26 504.76
  Q 241.86 504.48 241.37 504.46"
/>
<path stroke="#7e7a7c" vector-effect="non-scaling-stroke" d="
  M 221.73 517.05
  C 215.97 516.16 213.07 520.22 209.89 524.14
  C 207.50 527.09 208.06 532.14 207.90 535.76
  C 207.70 540.25 211.74 543.04 214.98 545.44
  Q 220.78 549.75 228.26 549.04
  Q 245.70 547.40 252.38 531.14
  Q 253.20 529.14 252.56 528.21
  C 247.06 520.34 247.21 512.81 236.76 508.92
  Q 234.61 508.12 232.18 508.73
  Q 227.72 509.85 223.51 511.74
  Q 221.54 512.62 222.21 516.55
  Q 222.31 517.14 221.73 517.05"
/>
<path stroke="#7e7a7c" vector-effect="non-scaling-stroke" d="
  M 208.63 545.60
  C 198.82 538.87 206.11 528.99 202.15 522.81
  A 0.71 0.70 -36.8 0 0 201.09 522.66
  Q 194.20 528.65 197.27 537.61
  Q 200.66 547.53 202.69 550.03
  C 207.15 555.54 216.84 558.82 223.25 559.25
  C 236.61 560.14 246.83 553.10 252.44 541.19
  Q 252.70 540.62 252.19 540.98
  C 243.33 547.13 238.33 552.10 226.76 552.72
  C 218.60 553.15 214.45 549.59 208.63 545.60"
/>
<path stroke="#7e7a7c" vector-effect="non-scaling-stroke" d="
  M 660.95 518.48
  L 665.80 513.91
  A 1.82 1.82 0.0 0 0 665.87 511.34
  L 665.39 510.82
  A 5.21 4.73 46.7 0 0 658.37 510.28
  L 657.76 510.85
  A 5.21 4.73 46.7 0 0 657.89 517.89
  L 658.38 518.40
  A 1.82 1.82 0.0 0 0 660.95 518.48"
/>
<path stroke="#7e7a7c" vector-effect="non-scaling-stroke" d="
  M 238.60 534.37
  C 246.04 528.95 236.00 514.82 228.27 517.56
  Q 224.02 519.07 219.74 520.43
  Q 217.89 521.01 215.86 523.63
  C 214.53 525.34 214.52 527.03 215.10 528.98
  C 216.73 534.39 222.02 539.18 228.00 538.19
  C 231.08 537.68 236.59 535.84 238.60 534.37"
/>
<path stroke="#7e7a7c" vector-effect="non-scaling-stroke" d="
  M 237.60 527.12
  C 236.06 521.46 229.98 517.98 224.70 521.68
  C 221.74 523.76 216.93 526.94 220.85 531.15
  Q 224.72 535.29 230.40 533.59
  C 233.42 532.69 238.77 531.38 237.60 527.12"
/>
<path stroke="#7e7a7c" vector-effect="non-scaling-stroke" d="
  M 293.33 540.53
  C 290.24 544.70 283.80 544.72 279.51 542.44
  Q 276.88 541.05 274.21 539.61
  Q 273.70 539.33 273.69 539.91
  C 273.60 544.98 279.56 549.05 283.88 550.06
  C 292.40 552.05 300.12 550.40 303.10 541.75
  C 304.65 537.27 297.44 531.56 294.54 528.73
  Q 291.29 525.57 285.91 527.23
  Q 285.40 527.39 285.88 527.61
  C 287.52 528.37 289.51 528.93 290.73 529.67
  C 294.43 531.93 296.15 536.72 293.33 540.53"
/>
<path stroke="#7e7a7c" vector-effect="non-scaling-stroke" d="
  M 282.55 532.35
  C 281.16 532.92 279.14 533.69 278.13 534.76
  A 1.46 1.45 -51.7 0 0 278.38 536.98
  C 281.68 539.15 288.24 542.45 289.56 535.88
  C 290.34 531.99 285.01 531.33 282.55 532.35"
/>
<path stroke="#7e7a7c" vector-effect="non-scaling-stroke" d="
  M 267.9640 573.8635
  A 1.59 0.77 123.0 0 0 269.4758 572.9494
  A 1.59 0.77 123.0 0 0 269.6960 571.1965
  A 1.59 0.77 123.0 0 0 268.1842 572.1106
  A 1.59 0.77 123.0 0 0 267.9640 573.8635"
/>
<path stroke="#7e7a7c" vector-effect="non-scaling-stroke" d="
  M 239.56 583.17
  C 235.59 581.30 234.71 577.42 232.98 573.94
  Q 232.61 573.21 231.91 573.62
  Q 227.70 576.08 225.82 580.58
  A 1.46 1.46 0.0 0 0 225.76 581.52
  Q 226.61 584.53 225.48 587.49
  A 1.47 1.46 16.7 0 0 226.54 589.44
  C 229.84 590.16 232.44 590.07 234.44 593.29
  C 235.91 595.65 238.33 601.11 236.08 603.54
  Q 231.53 608.46 225.51 607.14
  C 217.73 605.43 220.76 597.21 222.93 592.60
  C 226.89 584.23 209.52 580.63 211.07 590.69
  C 211.55 593.76 215.24 597.41 213.92 600.90
  C 211.44 607.45 209.57 613.35 215.51 617.97
  C 223.22 623.97 231.29 623.34 236.53 614.52
  C 237.22 613.35 239.40 612.95 240.94 613.17
  C 252.08 614.76 258.57 590.94 247.40 585.29
  C 245.14 584.15 241.63 584.15 239.56 583.17"
/>
<path stroke="#7e7a7c" vector-effect="non-scaling-stroke" d="
  M 226.9902 603.4507
  A 4.48 3.48 105.8 0 0 231.5585 600.0875
  A 4.48 3.48 105.8 0 0 229.4298 594.8293
  A 4.48 3.48 105.8 0 0 224.8615 598.1925
  A 4.48 3.48 105.8 0 0 226.9902 603.4507"
/>
</g>
<path fill="#f9f3f5" d="
  M 0.00 0.00
  L 810.00 0.00
  L 810.00 810.00
  L 0.00 810.00
  L 0.00 0.00
  Z
  M 176.19 416.41
  Q 176.18 417.86 175.01 417.00
  C 170.70 413.85 162.63 408.43 160.18 403.97
  C 156.17 396.66 151.59 389.41 148.67 381.94
  C 144.49 371.25 143.38 362.21 141.64 351.98
  Q 138.89 335.83 140.22 319.51
  Q 141.17 307.86 149.03 299.39
  A 1.03 1.03 0.0 0 0 149.27 298.42
  L 148.86 296.92
  Q 148.73 296.45 148.93 296.02
  C 153.06 287.02 159.30 277.85 167.62 272.27
  C 170.87 270.10 173.30 266.89 176.44 264.44
  Q 182.84 259.44 189.49 254.78
  C 199.43 247.83 210.42 242.99 221.60 238.44
  Q 225.11 237.01 229.12 236.56
  C 238.02 235.55 248.12 233.85 255.88 234.26
  Q 263.54 234.67 270.99 236.81
  Q 272.56 237.25 274.20 237.22
  Q 274.39 237.21 274.44 237.02
  Q 274.47 236.87 274.50 236.73
  Q 274.58 236.41 274.28 236.29
  C 265.75 233.03 256.04 229.95 246.82 230.41
  C 237.07 230.91 227.41 230.39 217.99 233.54
  C 195.38 241.11 174.95 256.00 156.67 273.67
  Q 149.24 280.85 142.31 292.89
  C 140.80 295.50 141.01 298.38 139.59 301.14
  Q 134.48 311.06 134.28 322.38
  C 134.01 336.95 135.67 348.56 138.05 364.24
  C 140.17 378.22 149.84 394.02 157.74 406.32
  Q 160.13 410.04 162.60 411.66
  Q 171.48 417.48 180.69 423.19
  Q 183.47 424.92 181.99 422.00
  C 178.04 414.19 179.92 405.08 180.76 396.75
  C 181.45 389.86 181.40 380.94 184.17 373.20
  Q 186.66 366.27 188.26 360.72
  C 191.20 350.54 196.05 341.47 201.09 332.11
  A 3.21 3.19 10.2 0 1 203.47 330.47
  L 203.82 330.42
  A 0.93 0.92 -82.2 0 1 204.79 331.70
  C 203.01 335.94 200.55 340.22 198.97 343.86
  Q 192.32 359.17 186.02 374.62
  Q 183.68 380.35 183.27 385.50
  Q 182.77 391.86 182.42 407.75
  Q 182.37 410.14 182.79 411.94
  Q 183.15 413.50 184.02 412.16
  Q 184.54 411.37 184.86 409.77
  Q 187.48 396.92 189.04 383.90
  C 189.27 382.00 189.79 380.03 190.40 378.42
  C 195.59 364.71 201.78 346.69 210.88 332.58
  Q 212.16 330.60 214.23 330.48
  Q 223.52 329.96 230.37 324.62
  Q 240.12 317.00 246.34 306.29
  C 249.21 301.35 249.20 294.24 249.32 288.22
  Q 249.49 279.57 242.89 274.09
  A 1.85 1.85 0.0 0 1 242.51 271.67
  C 247.79 263.42 253.52 256.11 255.88 246.52
  Q 256.23 245.12 255.92 243.96
  A 0.57 0.56 -35.4 0 0 254.91 243.79
  L 238.46 267.46
  A 2.27 2.25 -75.8 0 1 236.88 268.41
  L 236.05 268.51
  A 0.51 0.51 0.0 0 1 235.57 267.73
  Q 240.85 259.60 245.23 253.75
  C 247.82 250.28 250.30 245.69 249.93 241.22
  A 0.75 0.74 62.9 0 0 248.62 240.79
  C 245.12 244.92 241.79 250.01 238.78 253.72
  Q 234.84 258.55 230.83 263.33
  Q 228.91 265.61 226.50 265.28
  Q 220.64 264.48 214.77 263.91
  C 206.39 263.09 197.03 269.88 193.25 276.82
  C 192.43 278.33 191.20 281.12 189.55 281.85
  C 185.58 283.63 181.86 286.15 180.96 289.73
  Q 176.60 307.01 189.37 318.88
  Q 193.00 322.25 196.61 325.44
  A 2.12 2.10 34.9 0 1 197.08 328.01
  Q 186.32 348.35 179.85 370.67
  C 177.99 377.12 176.95 380.66 176.50 386.25
  Q 175.56 398.09 176.01 407.49
  Q 176.24 412.33 176.19 416.41
  Z
  M 302.52 259.76
  C 310.20 263.74 320.70 271.45 324.24 279.74
  Q 327.08 286.37 330.78 297.21
  Q 330.97 297.77 332.21 299.20
  Q 332.58 299.63 332.91 299.18
  C 334.90 296.49 334.82 290.93 334.40 288.29
  C 331.93 272.82 322.43 263.27 309.37 255.73
  C 290.27 244.71 290.20 275.09 302.07 276.00
  A 1.72 1.72 0.0 0 0 303.82 273.72
  C 302.09 268.77 299.82 265.80 301.65 260.12
  A 0.61 0.61 0.0 0 1 302.52 259.76
  Z
  M 612.41 374.74
  Q 612.30 372.72 613.34 374.45
  C 625.22 394.24 628.14 414.74 626.96 437.33
  C 626.50 446.15 624.40 455.66 622.53 464.75
  Q 621.59 469.33 619.08 473.27
  C 604.67 495.83 584.73 511.68 557.48 515.11
  C 539.63 517.36 522.46 516.52 505.37 511.41
  C 497.09 508.94 488.16 504.38 479.69 500.60
  Q 477.30 499.54 474.83 499.88
  C 472.19 500.25 470.76 502.84 467.49 503.41
  C 453.08 505.93 437.96 509.02 423.50 508.47
  Q 409.49 507.94 405.00 507.89
  C 392.31 507.74 382.63 505.08 371.27 502.94
  C 359.94 500.81 349.41 494.69 336.40 487.86
  Q 323.85 481.26 311.41 470.09
  Q 307.57 466.64 301.61 457.31
  Q 301.35 456.90 301.75 456.61
  Q 306.57 453.27 310.09 448.67
  C 315.51 441.58 321.15 435.12 327.29 428.64
  C 328.85 426.98 329.87 426.96 332.00 426.46
  C 336.38 425.45 341.00 418.90 344.19 413.45
  Q 346.93 408.78 347.96 402.58
  C 348.47 399.51 349.25 396.83 351.11 394.86
  C 359.64 385.84 370.70 379.01 382.67 374.73
  C 393.59 370.83 404.90 367.86 416.00 364.47
  Q 425.20 361.66 441.07 359.79
  C 449.19 358.84 458.70 358.64 467.51 358.02
  C 478.76 357.22 490.49 359.53 501.58 361.20
  Q 501.90 361.25 501.94 360.93
  Q 502.01 360.44 501.57 360.19
  C 494.64 356.28 487.33 355.73 479.75 354.03
  Q 477.01 353.42 469.60 353.12
  C 457.15 352.62 444.18 353.92 431.86 355.67
  C 416.74 357.82 401.30 362.98 386.51 367.70
  C 372.97 372.02 362.54 377.35 352.01 385.57
  Q 350.19 386.99 351.12 384.88
  C 354.57 377.11 359.41 367.37 359.43 358.97
  C 359.46 343.61 353.88 323.85 342.82 312.39
  C 335.97 305.30 326.68 299.76 316.67 298.92
  A 0.36 0.36 0.0 0 0 316.32 299.45
  Q 317.00 300.69 318.19 301.52
  Q 325.33 306.51 332.41 311.59
  C 344.62 320.35 350.73 338.25 352.67 352.63
  Q 353.56 359.24 352.21 365.32
  C 350.53 372.83 347.22 379.86 343.17 386.39
  C 341.02 389.86 340.05 392.24 340.01 396.00
  C 339.97 399.22 340.45 402.84 340.07 405.70
  Q 338.81 415.08 331.15 421.10
  Q 330.74 421.43 330.40 421.04
  C 327.64 417.88 325.36 422.77 323.94 424.52
  C 319.65 429.78 313.58 433.76 310.54 437.29
  C 308.18 440.03 305.70 444.70 302.69 447.52
  C 293.10 456.49 278.62 459.52 265.99 457.18
  Q 260.16 456.09 242.17 451.40
  C 239.66 450.75 234.78 450.29 232.52 448.96
  Q 228.30 446.49 219.64 443.38
  Q 212.27 440.73 204.62 433.80
  C 202.39 431.78 204.25 428.81 200.51 427.48
  C 197.59 426.45 195.28 430.20 195.82 432.55
  C 196.66 436.28 205.11 441.80 208.33 443.65
  C 213.67 446.71 222.29 448.74 227.52 451.94
  Q 233.94 455.86 235.98 456.08
  Q 244.04 456.92 248.18 458.57
  C 258.01 462.49 271.14 465.46 281.69 463.94
  C 286.47 463.25 289.80 461.12 293.95 459.74
  A 1.12 1.11 64.0 0 1 295.22 460.18
  C 301.77 469.92 307.85 476.74 318.87 484.38
  C 342.65 500.86 369.77 511.97 399.01 512.78
  Q 405.88 512.97 421.25 513.49
  C 438.13 514.05 453.49 510.29 469.83 505.74
  C 472.18 505.09 473.92 505.30 476.02 506.22
  C 487.73 511.33 499.34 516.93 511.99 519.32
  C 531.64 523.03 549.33 521.89 570.76 518.26
  C 573.10 517.86 576.89 516.51 579.50 515.11
  Q 586.87 511.17 594.20 507.11
  C 603.56 501.93 610.62 493.40 617.59 484.61
  C 621.16 480.11 623.16 475.28 625.66 470.23
  C 630.48 460.50 629.97 451.98 631.04 441.92
  Q 632.33 429.78 632.34 429.54
  Q 632.97 417.37 631.05 405.27
  C 629.35 394.59 625.94 388.04 622.32 379.23
  C 617.65 367.88 606.77 356.49 597.90 346.85
  Q 588.47 336.61 575.96 330.52
  Q 560.84 323.15 552.26 321.25
  Q 540.40 318.64 528.48 316.30
  Q 525.60 315.73 522.67 315.69
  C 515.99 315.60 509.35 314.26 502.75 313.30
  Q 495.63 312.26 478.76 312.98
  Q 460.00 313.78 441.25 314.58
  C 417.77 315.58 394.28 317.79 370.82 319.33
  C 365.12 319.71 360.08 320.74 354.83 322.20
  Q 352.71 322.80 353.39 324.97
  C 354.39 328.21 358.56 327.23 361.16 326.57
  C 368.27 324.78 375.98 324.21 383.28 323.68
  C 395.66 322.79 407.88 321.19 420.27 320.79
  C 431.87 320.43 443.32 318.88 454.94 318.57
  Q 473.28 318.08 491.62 317.81
  C 500.65 317.69 509.66 319.58 518.74 320.45
  C 542.18 322.69 566.00 328.33 585.20 343.04
  C 597.99 352.85 606.74 369.22 609.70 384.91
  C 611.01 391.86 612.50 398.07 612.10 405.61
  Q 612.09 405.70 612.13 405.76
  Q 612.17 405.82 612.24 405.86
  Q 612.43 405.96 612.51 405.71
  C 613.31 403.10 614.82 401.33 615.02 398.64
  C 615.56 391.13 615.37 383.40 612.86 376.21
  Q 612.42 374.94 612.41 374.74
  Z
  M 150.14 320.58
  C 154.10 329.29 163.34 331.50 171.26 334.87
  Q 172.79 335.51 172.45 333.89
  Q 172.10 332.27 169.09 330.97
  Q 163.09 328.38 157.83 324.55
  C 155.41 322.79 153.34 320.17 150.93 317.95
  Q 150.15 317.23 149.80 318.24
  Q 149.49 319.14 150.14 320.58
  Z
  M 150.88 329.90
  Q 150.56 329.15 149.74 329.09
  L 149.34 329.06
  A 0.33 0.33 0.0 0 0 149.00 329.50
  C 152.39 339.81 155.90 349.86 165.90 355.61
  A 0.47 0.47 0.0 0 0 166.59 355.07
  C 165.79 352.35 162.45 349.12 160.60 346.91
  Q 155.68 341.03 150.88 329.90
  Z
  M 276.57 354.68
  C 279.66 356.41 281.10 358.95 285.52 358.05
  Q 287.62 357.62 290.54 354.77
  C 295.00 350.41 292.19 344.75 287.06 342.86
  C 277.46 339.32 269.72 346.95 268.36 356.22
  A 4.54 4.53 24.8 0 0 269.87 360.30
  L 271.28 361.53
  Q 273.70 363.64 274.69 360.59
  Q 275.61 357.75 275.91 355.02
  Q 275.99 354.36 276.57 354.68
  Z
  M 154.8614 373.5287
  A 12.84 1.76 81.8 0 0 154.7720 360.5690
  A 12.84 1.76 81.8 0 0 151.1986 348.1113
  A 12.84 1.76 81.8 0 0 151.2880 361.0710
  A 12.84 1.76 81.8 0 0 154.8614 373.5287
  Z
  M 283.84 393.32
  C 284.80 390.32 287.73 386.96 287.51 382.96
  A 0.45 0.45 0.0 0 0 286.88 382.58
  C 282.20 384.66 275.21 390.56 276.14 396.20
  C 276.70 399.58 280.93 399.44 282.45 396.99
  Q 282.88 396.29 283.84 393.32
  Z
  M 297.76 396.45
  C 292.61 401.09 296.12 407.20 293.13 412.39
  A 1.41 1.41 0.0 0 0 293.86 414.41
  C 296.61 415.43 299.09 412.25 300.31 410.25
  C 301.68 408.02 301.80 404.40 303.83 402.08
  Q 308.32 396.96 313.39 391.58
  A 0.92 0.92 0.0 0 0 313.27 390.21
  Q 307.90 386.24 303.12 389.90
  C 301.11 391.45 300.00 394.44 297.76 396.45
  Z
  M 243.13 405.04
  C 245.15 405.93 247.05 407.31 249.01 407.61
  Q 254.18 408.43 258.06 404.56
  C 262.40 400.24 254.88 395.02 251.39 392.87
  Q 247.37 390.40 243.06 392.38
  C 235.77 395.74 233.75 403.03 234.73 411.11
  A 4.85 4.84 -87.4 0 0 238.51 415.26
  L 239.79 415.54
  Q 243.00 416.24 242.28 413.04
  Q 241.39 409.14 242.37 405.41
  A 0.56 0.55 -70.6 0 1 243.13 405.04
  Z
  M 308.06 408.85
  L 311.55 400.41
  A 0.44 0.44 0.0 0 0 311.33 399.84
  C 307.68 398.17 304.86 402.47 303.16 405.95
  Q 301.92 408.49 304.46 409.72
  L 305.04 410.00
  A 2.22 2.22 0.0 0 0 308.06 408.85
  Z
  M 527.76 423.73
  C 523.93 439.61 516.20 453.91 507.04 467.31
  Q 502.77 473.57 497.14 478.63
  C 489.88 485.15 481.82 491.80 472.59 495.29
  A 1.62 1.61 73.0 0 0 471.59 497.18
  C 472.26 499.94 476.24 499.46 478.19 498.58
  C 487.04 494.59 493.94 488.08 500.82 481.40
  C 507.39 475.03 513.93 465.69 517.66 458.44
  Q 523.16 447.74 528.05 430.19
  Q 529.19 426.08 528.62 423.73
  Q 528.19 421.97 527.76 423.73
  Z
  M 656.78 491.95
  A 0.59 0.59 0.0 0 1 655.96 492.30
  C 653.98 491.39 652.01 490.15 649.92 489.88
  C 640.44 488.66 631.95 496.65 634.73 506.49
  C 635.34 508.64 636.89 512.14 636.41 514.28
  A 1.72 1.71 -16.3 0 1 635.95 515.11
  Q 634.34 516.70 632.87 518.36
  C 626.27 525.81 634.27 532.46 640.14 536.09
  Q 646.61 540.09 654.25 539.43
  C 657.44 539.16 661.48 537.53 665.73 538.50
  C 671.97 539.93 675.26 539.37 680.40 535.13
  Q 686.77 529.88 688.40 523.48
  C 689.76 518.14 687.48 515.22 684.15 511.59
  A 1.17 1.15 41.9 0 1 684.06 510.11
  C 686.12 507.32 688.94 503.60 687.95 499.99
  C 686.87 496.02 681.57 496.15 678.40 495.53
  A 2.40 2.40 0.0 0 1 676.48 493.48
  C 676.09 490.46 675.59 484.28 673.33 482.42
  Q 670.84 480.38 668.49 481.02
  Q 659.59 483.43 656.78 491.95
  Z
  M 719.32 503.83
  Q 725.99 499.93 722.21 492.13
  C 718.75 484.97 706.29 491.25 708.01 495.01
  C 709.16 497.54 709.56 500.93 711.10 502.85
  Q 714.26 506.79 719.32 503.83
  Z
  M 197.83 519.19
  C 185.67 524.17 192.83 540.02 195.39 548.29
  C 198.16 557.26 211.02 563.04 220.00 563.45
  C 226.64 563.76 234.76 564.18 240.44 560.96
  Q 242.06 560.04 246.91 556.39
  C 249.27 554.62 250.51 552.20 252.46 549.96
  C 256.03 545.87 258.05 541.44 260.97 537.06
  Q 263.73 532.93 264.21 530.54
  C 265.36 524.87 261.15 510.32 255.21 508.05
  C 253.27 507.32 248.70 506.27 247.86 504.36
  Q 246.18 500.49 241.49 500.08
  Q 234.50 499.45 227.49 498.86
  C 218.71 498.13 210.28 504.75 203.23 509.23
  C 199.40 511.66 199.02 513.05 199.00 517.45
  A 1.90 1.89 79.0 0 1 197.83 519.19
  Z
  M 165.69 529.56
  C 171.44 541.21 183.36 528.95 175.65 523.11
  C 171.08 519.65 162.23 522.54 165.69 529.56
  Z
  M 277.70 552.56
  C 283.41 555.30 293.37 557.21 299.25 553.97
  Q 302.45 552.22 306.39 548.39
  C 310.66 544.24 308.24 536.37 304.56 532.94
  C 301.20 529.81 297.39 525.84 293.71 523.88
  C 285.75 519.64 277.55 522.04 272.30 529.15
  Q 269.44 533.02 268.51 534.99
  C 265.22 541.93 271.57 549.61 277.70 552.56
  Z
  M 265.9744 580.3001
  A 7.81 6.58 109.1 0 0 274.7478 575.0731
  A 7.81 6.58 109.1 0 0 271.0856 565.5399
  A 7.81 6.58 109.1 0 0 262.3122 570.7669
  A 7.81 6.58 109.1 0 0 265.9744 580.3001
  Z
  M 238.23 619.26
  C 240.68 616.56 244.25 617.90 247.39 615.78
  Q 256.18 609.84 257.63 599.28
  C 258.78 590.98 254.83 582.98 246.56 580.70
  C 244.21 580.05 240.36 579.75 239.32 577.42
  C 237.36 572.99 235.41 566.43 228.74 569.94
  Q 224.71 572.06 222.45 577.04
  C 219.23 584.10 208.29 574.70 205.89 585.78
  Q 204.93 590.23 205.97 592.51
  C 207.07 594.95 209.03 598.02 208.36 600.82
  C 207.02 606.35 205.12 610.49 208.35 615.97
  C 214.95 627.18 229.34 629.08 238.23 619.26
  Z"
/>
<path fill="#030102" d="
  M 176.19 416.41
  Q 176.24 412.33 176.01 407.49
  Q 175.56 398.09 176.50 386.25
  C 176.95 380.66 177.99 377.12 179.85 370.67
  Q 186.32 348.35 197.08 328.01
  A 2.12 2.10 34.9 0 0 196.61 325.44
  Q 193.00 322.25 189.37 318.88
  Q 176.60 307.01 180.96 289.73
  C 181.86 286.15 185.58 283.63 189.55 281.85
  C 191.20 281.12 192.43 278.33 193.25 276.82
  C 197.03 269.88 206.39 263.09 214.77 263.91
  Q 220.64 264.48 226.50 265.28
  Q 228.91 265.61 230.83 263.33
  Q 234.84 258.55 238.78 253.72
  C 241.79 250.01 245.12 244.92 248.62 240.79
  A 0.75 0.74 62.9 0 1 249.93 241.22
  C 250.30 245.69 247.82 250.28 245.23 253.75
  Q 240.85 259.60 235.57 267.73
  A 0.51 0.51 0.0 0 0 236.05 268.51
  L 236.88 268.41
  A 2.27 2.25 -75.8 0 0 238.46 267.46
  L 254.91 243.79
  A 0.57 0.56 -35.4 0 1 255.92 243.96
  Q 256.23 245.12 255.88 246.52
  C 253.52 256.11 247.79 263.42 242.51 271.67
  A 1.85 1.85 0.0 0 0 242.89 274.09
  Q 249.49 279.57 249.32 288.22
  C 249.20 294.24 249.21 301.35 246.34 306.29
  Q 240.12 317.00 230.37 324.62
  Q 223.52 329.96 214.23 330.48
  Q 212.16 330.60 210.88 332.58
  C 201.78 346.69 195.59 364.71 190.40 378.42
  C 189.79 380.03 189.27 382.00 189.04 383.90
  Q 187.48 396.92 184.86 409.77
  Q 184.54 411.37 184.02 412.16
  Q 183.15 413.50 182.79 411.94
  Q 182.37 410.14 182.42 407.75
  Q 182.77 391.86 183.27 385.50
  Q 183.68 380.35 186.02 374.62
  Q 192.32 359.17 198.97 343.86
  C 200.55 340.22 203.01 335.94 204.79 331.70
  A 0.93 0.92 -82.2 0 0 203.82 330.42
  L 203.47 330.47
  A 3.21 3.19 10.2 0 0 201.09 332.11
  C 196.05 341.47 191.20 350.54 188.26 360.72
  Q 186.66 366.27 184.17 373.20
  C 181.40 380.94 181.45 389.86 180.76 396.75
  C 179.92 405.08 178.04 414.19 181.99 422.00
  Q 183.47 424.92 180.69 423.19
  Q 171.48 417.48 162.60 411.66
  Q 160.13 410.04 157.74 406.32
  C 149.84 394.02 140.17 378.22 138.05 364.24
  C 135.67 348.56 134.01 336.95 134.28 322.38
  Q 134.48 311.06 139.59 301.14
  C 141.01 298.38 140.80 295.50 142.31 292.89
  Q 149.24 280.85 156.67 273.67
  C 174.95 256.00 195.38 241.11 217.99 233.54
  C 227.41 230.39 237.07 230.91 246.82 230.41
  C 256.04 229.95 265.75 233.03 274.28 236.29
  Q 274.58 236.41 274.50 236.73
  Q 274.47 236.87 274.44 237.02
  Q 274.39 237.21 274.20 237.22
  Q 272.56 237.25 270.99 236.81
  Q 263.54 234.67 255.88 234.26
  C 248.12 233.85 238.02 235.55 229.12 236.56
  Q 225.11 237.01 221.60 238.44
  C 210.42 242.99 199.43 247.83 189.49 254.78
  Q 182.84 259.44 176.44 264.44
  C 173.30 266.89 170.87 270.10 167.62 272.27
  C 159.30 277.85 153.06 287.02 148.93 296.02
  Q 148.73 296.45 148.86 296.92
  L 149.27 298.42
  A 1.03 1.03 0.0 0 1 149.03 299.39
  Q 141.17 307.86 140.22 319.51
  Q 138.89 335.83 141.64 351.98
  C 143.38 362.21 144.49 371.25 148.67 381.94
  C 151.59 389.41 156.17 396.66 160.18 403.97
  C 162.63 408.43 170.70 413.85 175.01 417.00
  Q 176.18 417.86 176.19 416.41
  Z
  M 236.75 274.86
  C 233.77 273.00 226.44 269.49 222.51 269.28
  C 218.57 269.07 214.25 268.11 210.64 269.20
  C 203.43 271.36 198.32 277.88 196.62 285.03
  Q 196.40 285.97 195.44 292.49
  C 194.39 299.59 192.32 312.75 201.28 316.10
  C 210.01 319.37 218.59 317.14 224.59 310.16
  C 229.24 304.74 231.77 298.91 230.22 291.50
  Q 229.07 286.03 224.68 282.59
  Q 221.15 279.84 218.24 280.19
  Q 205.35 281.72 203.30 293.84
  Q 202.94 295.97 204.20 294.22
  Q 208.29 288.56 215.98 289.96
  C 220.51 290.78 223.93 292.80 224.32 297.73
  Q 224.78 303.35 218.72 305.55
  C 208.97 309.09 206.73 308.69 200.36 300.99
  C 196.02 295.74 198.63 291.09 200.94 284.80
  C 202.85 279.62 210.31 276.14 215.51 275.78
  C 229.66 274.80 238.89 289.56 234.44 302.24
  C 233.15 305.93 228.92 312.50 226.46 314.96
  C 219.03 322.41 209.63 322.36 199.79 320.59
  Q 199.11 320.47 199.61 320.95
  C 202.98 324.22 207.34 326.48 212.18 325.66
  C 215.27 325.14 218.60 324.88 221.41 323.98
  C 232.29 320.53 241.61 306.92 243.52 296.03
  C 244.87 288.34 243.62 279.16 236.75 274.86
  Z
  M 188.74 309.38
  Q 189.23 310.21 189.23 309.25
  L 189.26 290.99
  Q 189.26 290.14 188.75 290.81
  C 184.67 296.14 185.39 303.68 188.74 309.38
  Z
  M 218.96 295.76
  C 216.31 289.77 203.80 295.66 208.78 303.30
  A 1.54 1.54 0.0 0 0 210.28 303.99
  C 214.42 303.43 221.73 302.00 218.96 295.76
  Z"
/>
<path fill="#030102" d="
  M 302.52 259.76
  A 0.61 0.61 0.0 0 0 301.65 260.12
  C 299.82 265.80 302.09 268.77 303.82 273.72
  A 1.72 1.72 0.0 0 1 302.07 276.00
  C 290.20 275.09 290.27 244.71 309.37 255.73
  C 322.43 263.27 331.93 272.82 334.40 288.29
  C 334.82 290.93 334.90 296.49 332.91 299.18
  Q 332.58 299.63 332.21 299.20
  Q 330.97 297.77 330.78 297.21
  Q 327.08 286.37 324.24 279.74
  C 320.70 271.45 310.20 263.74 302.52 259.76
  Z"
/>
<path fill="#f9f3f5" d="
  M 236.75 274.86
  C 243.62 279.16 244.87 288.34 243.52 296.03
  C 241.61 306.92 232.29 320.53 221.41 323.98
  C 218.60 324.88 215.27 325.14 212.18 325.66
  C 207.34 326.48 202.98 324.22 199.61 320.95
  Q 199.11 320.47 199.79 320.59
  C 209.63 322.36 219.03 322.41 226.46 314.96
  C 228.92 312.50 233.15 305.93 234.44 302.24
  C 238.89 289.56 229.66 274.80 215.51 275.78
  C 210.31 276.14 202.85 279.62 200.94 284.80
  C 198.63 291.09 196.02 295.74 200.36 300.99
  C 206.73 308.69 208.97 309.09 218.72 305.55
  Q 224.78 303.35 224.32 297.73
  C 223.93 292.80 220.51 290.78 215.98 289.96
  Q 208.29 288.56 204.20 294.22
  Q 202.94 295.97 203.30 293.84
  Q 205.35 281.72 218.24 280.19
  Q 221.15 279.84 224.68 282.59
  Q 229.07 286.03 230.22 291.50
  C 231.77 298.91 229.24 304.74 224.59 310.16
  C 218.59 317.14 210.01 319.37 201.28 316.10
  C 192.32 312.75 194.39 299.59 195.44 292.49
  Q 196.40 285.97 196.62 285.03
  C 198.32 277.88 203.43 271.36 210.64 269.20
  C 214.25 268.11 218.57 269.07 222.51 269.28
  C 226.44 269.49 233.77 273.00 236.75 274.86
  Z"
/>
<path fill="#f9f3f5" d="
  M 188.74 309.38
  C 185.39 303.68 184.67 296.14 188.75 290.81
  Q 189.26 290.14 189.26 290.99
  L 189.23 309.25
  Q 189.23 310.21 188.74 309.38
  Z"
/>
<path fill="#f9f3f5" d="
  M 208.78 303.30
  C 203.80 295.66 216.31 289.77 218.96 295.76
  C 221.73 302.00 214.42 303.43 210.28 303.99
  A 1.54 1.54 0.0 0 1 208.78 303.30
  Z"
/>
<path fill="#030102" d="
  M 612.41 374.74
  Q 612.42 374.94 612.86 376.21
  C 615.37 383.40 615.56 391.13 615.02 398.64
  C 614.82 401.33 613.31 403.10 612.51 405.71
  Q 612.43 405.96 612.24 405.86
  Q 612.17 405.82 612.13 405.76
  Q 612.09 405.70 612.10 405.61
  C 612.50 398.07 611.01 391.86 609.70 384.91
  C 606.74 369.22 597.99 352.85 585.20 343.04
  C 566.00 328.33 542.18 322.69 518.74 320.45
  C 509.66 319.58 500.65 317.69 491.62 317.81
  Q 473.28 318.08 454.94 318.57
  C 443.32 318.88 431.87 320.43 420.27 320.79
  C 407.88 321.19 395.66 322.79 383.28 323.68
  C 375.98 324.21 368.27 324.78 361.16 326.57
  C 358.56 327.23 354.39 328.21 353.39 324.97
  Q 352.71 322.80 354.83 322.20
  C 360.08 320.74 365.12 319.71 370.82 319.33
  C 394.28 317.79 417.77 315.58 441.25 314.58
  Q 460.00 313.78 478.76 312.98
  Q 495.63 312.26 502.75 313.30
  C 509.35 314.26 515.99 315.60 522.67 315.69
  Q 525.60 315.73 528.48 316.30
  Q 540.40 318.64 552.26 321.25
  Q 560.84 323.15 575.96 330.52
  Q 588.47 336.61 597.90 346.85
  C 606.77 356.49 617.65 367.88 622.32 379.23
  C 625.94 388.04 629.35 394.59 631.05 405.27
  Q 632.97 417.37 632.34 429.54
  Q 632.33 429.78 631.04 441.92
  C 629.97 451.98 630.48 460.50 625.66 470.23
  C 623.16 475.28 621.16 480.11 617.59 484.61
  C 610.62 493.40 603.56 501.93 594.20 507.11
  Q 586.87 511.17 579.50 515.11
  C 576.89 516.51 573.10 517.86 570.76 518.26
  C 549.33 521.89 531.64 523.03 511.99 519.32
  C 499.34 516.93 487.73 511.33 476.02 506.22
  C 473.92 505.30 472.18 505.09 469.83 505.74
  C 453.49 510.29 438.13 514.05 421.25 513.49
  Q 405.88 512.97 399.01 512.78
  C 369.77 511.97 342.65 500.86 318.87 484.38
  C 307.85 476.74 301.77 469.92 295.22 460.18
  A 1.12 1.11 64.0 0 0 293.95 459.74
  C 289.80 461.12 286.47 463.25 281.69 463.94
  C 271.14 465.46 258.01 462.49 248.18 458.57
  Q 244.04 456.92 235.98 456.08
  Q 233.94 455.86 227.52 451.94
  C 222.29 448.74 213.67 446.71 208.33 443.65
  C 205.11 441.80 196.66 436.28 195.82 432.55
  C 195.28 430.20 197.59 426.45 200.51 427.48
  C 204.25 428.81 202.39 431.78 204.62 433.80
  Q 212.27 440.73 219.64 443.38
  Q 228.30 446.49 232.52 448.96
  C 234.78 450.29 239.66 450.75 242.17 451.40
  Q 260.16 456.09 265.99 457.18
  C 278.62 459.52 293.10 456.49 302.69 447.52
  C 305.70 444.70 308.18 440.03 310.54 437.29
  C 313.58 433.76 319.65 429.78 323.94 424.52
  C 325.36 422.77 327.64 417.88 330.40 421.04
  Q 330.74 421.43 331.15 421.10
  Q 338.81 415.08 340.07 405.70
  C 340.45 402.84 339.97 399.22 340.01 396.00
  C 340.05 392.24 341.02 389.86 343.17 386.39
  C 347.22 379.86 350.53 372.83 352.21 365.32
  Q 353.56 359.24 352.67 352.63
  C 350.73 338.25 344.62 320.35 332.41 311.59
  Q 325.33 306.51 318.19 301.52
  Q 317.00 300.69 316.32 299.45
  A 0.36 0.36 0.0 0 1 316.67 298.92
  C 326.68 299.76 335.97 305.30 342.82 312.39
  C 353.88 323.85 359.46 343.61 359.43 358.97
  C 359.41 367.37 354.57 377.11 351.12 384.88
  Q 350.19 386.99 352.01 385.57
  C 362.54 377.35 372.97 372.02 386.51 367.70
  C 401.30 362.98 416.74 357.82 431.86 355.67
  C 444.18 353.92 457.15 352.62 469.60 353.12
  Q 477.01 353.42 479.75 354.03
  C 487.33 355.73 494.64 356.28 501.57 360.19
  Q 502.01 360.44 501.94 360.93
  Q 501.90 361.25 501.58 361.20
  C 490.49 359.53 478.76 357.22 467.51 358.02
  C 458.70 358.64 449.19 358.84 441.07 359.79
  Q 425.20 361.66 416.00 364.47
  C 404.90 367.86 393.59 370.83 382.67 374.73
  C 370.70 379.01 359.64 385.84 351.11 394.86
  C 349.25 396.83 348.47 399.51 347.96 402.58
  Q 346.93 408.78 344.19 413.45
  C 341.00 418.90 336.38 425.45 332.00 426.46
  C 329.87 426.96 328.85 426.98 327.29 428.64
  C 321.15 435.12 315.51 441.58 310.09 448.67
  Q 306.57 453.27 301.75 456.61
  Q 301.35 456.90 301.61 457.31
  Q 307.57 466.64 311.41 470.09
  Q 323.85 481.26 336.40 487.86
  C 349.41 494.69 359.94 500.81 371.27 502.94
  C 382.63 505.08 392.31 507.74 405.00 507.89
  Q 409.49 507.94 423.50 508.47
  C 437.96 509.02 453.08 505.93 467.49 503.41
  C 470.76 502.84 472.19 500.25 474.83 499.88
  Q 477.30 499.54 479.69 500.60
  C 488.16 504.38 497.09 508.94 505.37 511.41
  C 522.46 516.52 539.63 517.36 557.48 515.11
  C 584.73 511.68 604.67 495.83 619.08 473.27
  Q 621.59 469.33 622.53 464.75
  C 624.40 455.66 626.50 446.15 626.96 437.33
  C 628.14 414.74 625.22 394.24 613.34 374.45
  Q 612.30 372.72 612.41 374.74
  Z"
/>
<path fill="#030102" d="
  M 171.26 334.87
  C 163.34 331.50 154.10 329.29 150.14 320.58
  Q 149.49 319.14 149.80 318.24
  Q 150.15 317.23 150.93 317.95
  C 153.34 320.17 155.41 322.79 157.83 324.55
  Q 163.09 328.38 169.09 330.97
  Q 172.10 332.27 172.45 333.89
  Q 172.79 335.51 171.26 334.87
  Z"
/>
<path fill="#030102" d="
  M 150.88 329.90
  Q 155.68 341.03 160.60 346.91
  C 162.45 349.12 165.79 352.35 166.59 355.07
  A 0.47 0.47 0.0 0 1 165.90 355.61
  C 155.90 349.86 152.39 339.81 149.00 329.50
  A 0.33 0.33 0.0 0 1 149.34 329.06
  L 149.74 329.09
  Q 150.56 329.15 150.88 329.90
  Z"
/>
<path fill="#030102" d="
  M 275.91 355.02
  Q 275.61 357.75 274.69 360.59
  Q 273.70 363.64 271.28 361.53
  L 269.87 360.30
  A 4.54 4.53 24.8 0 1 268.36 356.22
  C 269.72 346.95 277.46 339.32 287.06 342.86
  C 292.19 344.75 295.00 350.41 290.54 354.77
  Q 287.62 357.62 285.52 358.05
  C 281.10 358.95 279.66 356.41 276.57 354.68
  Q 275.99 354.36 275.91 355.02
  Z
  M 284.62 349.63
  Q 284.68 349.13 284.50 348.70
  Q 284.24 348.13 283.76 348.53
  Q 282.97 349.16 283.51 350.17
  A 0.72 0.72 0.0 0 0 284.16 350.55
  Q 285.04 350.52 284.62 349.63
  Z"
/>
<path fill="#f9f3f5" d="
  M 284.62 349.63
  Q 285.04 350.52 284.16 350.55
  A 0.72 0.72 0.0 0 1 283.51 350.17
  Q 282.97 349.16 283.76 348.53
  Q 284.24 348.13 284.50 348.70
  Q 284.68 349.13 284.62 349.63
  Z"
/>
<ellipse fill="#030102" cx="0.00" cy="0.00" transform="translate(153.03,360.82) rotate(81.8)" rx="12.84" ry="1.76"/>
<path fill="#030102" d="
  M 283.84 393.32
  Q 282.88 396.29 282.45 396.99
  C 280.93 399.44 276.70 399.58 276.14 396.20
  C 275.21 390.56 282.20 384.66 286.88 382.58
  A 0.45 0.45 0.0 0 1 287.51 382.96
  C 287.73 386.96 284.80 390.32 283.84 393.32
  Z"
/>
<path fill="#030102" d="
  M 293.13 412.39
  C 296.12 407.20 292.61 401.09 297.76 396.45
  C 300.00 394.44 301.11 391.45 303.12 389.90
  Q 307.90 386.24 313.27 390.21
  A 0.92 0.92 0.0 0 1 313.39 391.58
  Q 308.32 396.96 303.83 402.08
  C 301.80 404.40 301.68 408.02 300.31 410.25
  C 299.09 412.25 296.61 415.43 293.86 414.41
  A 1.41 1.41 0.0 0 1 293.13 412.39
  Z"
/>
<path fill="#030102" d="
  M 242.37 405.41
  Q 241.39 409.14 242.28 413.04
  Q 243.00 416.24 239.79 415.54
  L 238.51 415.26
  A 4.85 4.84 -87.4 0 1 234.73 411.11
  C 233.75 403.03 235.77 395.74 243.06 392.38
  Q 247.37 390.40 251.39 392.87
  C 254.88 395.02 262.40 400.24 258.06 404.56
  Q 254.18 408.43 249.01 407.61
  C 247.05 407.31 245.15 405.93 243.13 405.04
  A 0.56 0.55 -70.6 0 0 242.37 405.41
  Z
  M 248.83 397.82
  Q 248.11 397.48 247.84 398.22
  C 247.49 399.18 247.98 401.13 249.24 401.23
  Q 250.18 401.31 250.93 399.96
  A 0.97 0.96 -62.8 0 0 250.50 398.61
  L 248.83 397.82
  Z"
/>
<path fill="#f9f3f5" d="
  M 248.83 397.82
  L 250.50 398.61
  A 0.97 0.96 -62.8 0 1 250.93 399.96
  Q 250.18 401.31 249.24 401.23
  C 247.98 401.13 247.49 399.18 247.84 398.22
  Q 248.11 397.48 248.83 397.82
  Z"
/>
<path fill="#030102" d="
  M 308.06 408.85
  A 2.22 2.22 0.0 0 1 305.04 410.00
  L 304.46 409.72
  Q 301.92 408.49 303.16 405.95
  C 304.86 402.47 307.68 398.17 311.33 399.84
  A 0.44 0.44 0.0 0 1 311.55 400.41
  L 308.06 408.85
  Z"
/>
<path fill="#030102" d="
  M 507.04 467.31
  C 516.20 453.91 523.93 439.61 527.76 423.73
  Q 528.19 421.97 528.62 423.73
  Q 529.19 426.08 528.05 430.19
  Q 523.16 447.74 517.66 458.44
  C 513.93 465.69 507.39 475.03 500.82 481.40
  C 493.94 488.08 487.04 494.59 478.19 498.58
  C 476.24 499.46 472.26 499.94 471.59 497.18
  A 1.62 1.61 73.0 0 1 472.59 495.29
  C 481.82 491.80 489.88 485.15 497.14 478.63
  Q 502.77 473.57 507.04 467.31
  Z"
/>
<path fill="#030102" d="
  M 656.78 491.95
  Q 659.59 483.43 668.49 481.02
  Q 670.84 480.38 673.33 482.42
  C 675.59 484.28 676.09 490.46 676.48 493.48
  A 2.40 2.40 0.0 0 0 678.40 495.53
  C 681.57 496.15 686.87 496.02 687.95 499.99
  C 688.94 503.60 686.12 507.32 684.06 510.11
  A 1.17 1.15 41.9 0 0 684.15 511.59
  C 687.48 515.22 689.76 518.14 688.40 523.48
  Q 686.77 529.88 680.40 535.13
  C 675.26 539.37 671.97 539.93 665.73 538.50
  C 661.48 537.53 657.44 539.16 654.25 539.43
  Q 646.61 540.09 640.14 536.09
  C 634.27 532.46 626.27 525.81 632.87 518.36
  Q 634.34 516.70 635.95 515.11
  A 1.72 1.71 -16.3 0 0 636.41 514.28
  C 636.89 512.14 635.34 508.64 634.73 506.49
  C 631.95 496.65 640.44 488.66 649.92 489.88
  C 652.01 490.15 653.98 491.39 655.96 492.30
  A 0.59 0.59 0.0 0 0 656.78 491.95
  Z
  M 661.15 497.62
  C 655.60 498.83 650.65 493.51 645.51 496.30
  C 636.54 501.18 639.38 505.97 642.42 513.85
  C 644.95 520.39 626.79 520.80 640.39 531.30
  C 644.92 534.78 650.76 536.84 656.44 535.01
  C 659.20 534.11 662.22 533.55 665.09 534.34
  C 667.52 535.00 669.26 535.84 671.79 535.18
  Q 681.71 532.60 684.64 522.14
  C 685.47 519.17 684.73 517.50 682.18 515.75
  C 680.36 514.49 676.50 512.69 678.83 509.85
  Q 681.15 507.02 683.20 502.78
  A 1.67 1.67 0.0 0 0 681.98 500.41
  C 679.81 500.04 675.74 499.67 674.02 498.36
  C 670.58 495.72 673.13 489.07 670.13 486.18
  A 1.24 1.24 0.0 0 0 668.60 486.03
  L 663.14 489.53
  A 1.97 1.97 0.0 0 0 662.32 491.71
  Q 663.09 494.46 661.86 497.05
  Q 661.64 497.51 661.15 497.62
  Z"
/>
<path fill="#f9f3f5" d="
  M 661.86 497.05
  Q 663.09 494.46 662.32 491.71
  A 1.97 1.97 0.0 0 1 663.14 489.53
  L 668.60 486.03
  A 1.24 1.24 0.0 0 1 670.13 486.18
  C 673.13 489.07 670.58 495.72 674.02 498.36
  C 675.74 499.67 679.81 500.04 681.98 500.41
  A 1.67 1.67 0.0 0 1 683.20 502.78
  Q 681.15 507.02 678.83 509.85
  C 676.50 512.69 680.36 514.49 682.18 515.75
  C 684.73 517.50 685.47 519.17 684.64 522.14
  Q 681.71 532.60 671.79 535.18
  C 669.26 535.84 667.52 535.00 665.09 534.34
  C 662.22 533.55 659.20 534.11 656.44 535.01
  C 650.76 536.84 644.92 534.78 640.39 531.30
  C 626.79 520.80 644.95 520.39 642.42 513.85
  C 639.38 505.97 636.54 501.18 645.51 496.30
  C 650.65 493.51 655.60 498.83 661.15 497.62
  Q 661.64 497.51 661.86 497.05
  Z
  M 650.47 515.45
  C 650.72 519.67 656.10 524.12 660.44 523.43
  C 662.68 523.08 667.37 518.50 669.37 516.50
  C 674.26 511.59 668.16 505.77 663.37 504.82
  C 656.96 503.55 650.06 508.64 650.47 515.45
  Z"
/>
<path fill="#030102" d="
  M 719.32 503.83
  Q 714.26 506.79 711.10 502.85
  C 709.56 500.93 709.16 497.54 708.01 495.01
  C 706.29 491.25 718.75 484.97 722.21 492.13
  Q 725.99 499.93 719.32 503.83
  Z
  M 714.86 496.12
  L 716.47 497.10
  A 0.27 0.27 0.0 0 0 716.84 497.01
  L 717.29 496.28
  A 1.85 1.14 -58.7 0 0 717.27 494.10
  L 717.15 494.03
  A 1.85 1.14 -58.7 0 0 715.22 495.02
  L 714.77 495.75
  A 0.27 0.27 0.0 0 0 714.86 496.12
  Z"
/>
<path fill="#f9f3f5" d="
  M 714.86 496.12
  A 0.27 0.27 0.0 0 1 714.77 495.75
  L 715.22 495.02
  A 1.85 1.14 -58.7 0 1 717.15 494.03
  L 717.27 494.10
  A 1.85 1.14 -58.7 0 1 717.29 496.28
  L 716.84 497.01
  A 0.27 0.27 0.0 0 1 716.47 497.10
  L 714.86 496.12
  Z"
/>
<path fill="#030102" d="
  M 197.83 519.19
  A 1.90 1.89 79.0 0 0 199.00 517.45
  C 199.02 513.05 199.40 511.66 203.23 509.23
  C 210.28 504.75 218.71 498.13 227.49 498.86
  Q 234.50 499.45 241.49 500.08
  Q 246.18 500.49 247.86 504.36
  C 248.70 506.27 253.27 507.32 255.21 508.05
  C 261.15 510.32 265.36 524.87 264.21 530.54
  Q 263.73 532.93 260.97 537.06
  C 258.05 541.44 256.03 545.87 252.46 549.96
  C 250.51 552.20 249.27 554.62 246.91 556.39
  Q 242.06 560.04 240.44 560.96
  C 234.76 564.18 226.64 563.76 220.00 563.45
  C 211.02 563.04 198.16 557.26 195.39 548.29
  C 192.83 540.02 185.67 524.17 197.83 519.19
  Z
  M 241.37 504.46
  C 235.28 504.23 224.78 501.82 219.44 505.16
  Q 212.44 509.54 205.42 513.89
  Q 204.44 514.49 203.91 516.20
  A 2.12 2.10 -55.0 0 0 204.23 518.07
  L 206.97 521.74
  Q 207.58 522.55 207.98 521.62
  C 210.62 515.51 216.23 512.63 220.97 509.18
  Q 225.54 505.85 227.92 505.08
  C 238.56 501.66 249.18 509.82 252.38 519.72
  C 253.17 522.16 254.33 523.53 255.63 525.59
  C 256.99 527.74 256.84 529.57 256.76 532.00
  Q 256.73 532.65 257.23 532.23
  C 261.35 528.69 258.52 521.30 256.63 515.79
  Q 255.62 512.83 253.27 511.91
  Q 248.47 510.03 245.98 507.76
  Q 244.23 506.17 242.26 504.76
  Q 241.86 504.48 241.37 504.46
  Z
  M 221.73 517.05
  C 215.97 516.16 213.07 520.22 209.89 524.14
  C 207.50 527.09 208.06 532.14 207.90 535.76
  C 207.70 540.25 211.74 543.04 214.98 545.44
  Q 220.78 549.75 228.26 549.04
  Q 245.70 547.40 252.38 531.14
  Q 253.20 529.14 252.56 528.21
  C 247.06 520.34 247.21 512.81 236.76 508.92
  Q 234.61 508.12 232.18 508.73
  Q 227.72 509.85 223.51 511.74
  Q 221.54 512.62 222.21 516.55
  Q 222.31 517.14 221.73 517.05
  Z
  M 208.63 545.60
  C 198.82 538.87 206.11 528.99 202.15 522.81
  A 0.71 0.70 -36.8 0 0 201.09 522.66
  Q 194.20 528.65 197.27 537.61
  Q 200.66 547.53 202.69 550.03
  C 207.15 555.54 216.84 558.82 223.25 559.25
  C 236.61 560.14 246.83 553.10 252.44 541.19
  Q 252.70 540.62 252.19 540.98
  C 243.33 547.13 238.33 552.10 226.76 552.72
  C 218.60 553.15 214.45 549.59 208.63 545.60
  Z"
/>
<path fill="#f9f3f5" d="
  M 219.44 505.16
  C 224.78 501.82 235.28 504.23 241.37 504.46
  Q 241.86 504.48 242.26 504.76
  Q 244.23 506.17 245.98 507.76
  Q 248.47 510.03 253.27 511.91
  Q 255.62 512.83 256.63 515.79
  C 258.52 521.30 261.35 528.69 257.23 532.23
  Q 256.73 532.65 256.76 532.00
  C 256.84 529.57 256.99 527.74 255.63 525.59
  C 254.33 523.53 253.17 522.16 252.38 519.72
  C 249.18 509.82 238.56 501.66 227.92 505.08
  Q 225.54 505.85 220.97 509.18
  C 216.23 512.63 210.62 515.51 207.98 521.62
  Q 207.58 522.55 206.97 521.74
  L 204.23 518.07
  A 2.12 2.10 -55.0 0 1 203.91 516.20
  Q 204.44 514.49 205.42 513.89
  Q 212.44 509.54 219.44 505.16
  Z"
/>
<path fill="#030102" d="
  M 660.44 523.43
  C 656.10 524.12 650.72 519.67 650.47 515.45
  C 650.06 508.64 656.96 503.55 663.37 504.82
  C 668.16 505.77 674.26 511.59 669.37 516.50
  C 667.37 518.50 662.68 523.08 660.44 523.43
  Z
  M 660.95 518.48
  L 665.80 513.91
  A 1.82 1.82 0.0 0 0 665.87 511.34
  L 665.39 510.82
  A 5.21 4.73 46.7 0 0 658.37 510.28
  L 657.76 510.85
  A 5.21 4.73 46.7 0 0 657.89 517.89
  L 658.38 518.40
  A 1.82 1.82 0.0 0 0 660.95 518.48
  Z"
/>
<path fill="#f9f3f5" d="
  M 221.73 517.05
  Q 222.31 517.14 222.21 516.55
  Q 221.54 512.62 223.51 511.74
  Q 227.72 509.85 232.18 508.73
  Q 234.61 508.12 236.76 508.92
  C 247.21 512.81 247.06 520.34 252.56 528.21
  Q 253.20 529.14 252.38 531.14
  Q 245.70 547.40 228.26 549.04
  Q 220.78 549.75 214.98 545.44
  C 211.74 543.04 207.70 540.25 207.90 535.76
  C 208.06 532.14 207.50 527.09 209.89 524.14
  C 213.07 520.22 215.97 516.16 221.73 517.05
  Z
  M 238.60 534.37
  C 246.04 528.95 236.00 514.82 228.27 517.56
  Q 224.02 519.07 219.74 520.43
  Q 217.89 521.01 215.86 523.63
  C 214.53 525.34 214.52 527.03 215.10 528.98
  C 216.73 534.39 222.02 539.18 228.00 538.19
  C 231.08 537.68 236.59 535.84 238.60 534.37
  Z"
/>
<path fill="#f9f3f5" d="
  M 660.95 518.48
  A 1.82 1.82 0.0 0 1 658.38 518.40
  L 657.89 517.89
  A 5.21 4.73 46.7 0 1 657.76 510.85
  L 658.37 510.28
  A 5.21 4.73 46.7 0 1 665.39 510.82
  L 665.87 511.34
  A 1.82 1.82 0.0 0 1 665.80 513.91
  L 660.95 518.48
  Z"
/>
<path fill="#030102" d="
  M 238.60 534.37
  C 236.59 535.84 231.08 537.68 228.00 538.19
  C 222.02 539.18 216.73 534.39 215.10 528.98
  C 214.52 527.03 214.53 525.34 215.86 523.63
  Q 217.89 521.01 219.74 520.43
  Q 224.02 519.07 228.27 517.56
  C 236.00 514.82 246.04 528.95 238.60 534.37
  Z
  M 237.60 527.12
  C 236.06 521.46 229.98 517.98 224.70 521.68
  C 221.74 523.76 216.93 526.94 220.85 531.15
  Q 224.72 535.29 230.40 533.59
  C 233.42 532.69 238.77 531.38 237.60 527.12
  Z"
/>
<path fill="#f9f3f5" d="
  M 224.70 521.68
  C 229.98 517.98 236.06 521.46 237.60 527.12
  C 238.77 531.38 233.42 532.69 230.40 533.59
  Q 224.72 535.29 220.85 531.15
  C 216.93 526.94 221.74 523.76 224.70 521.68
  Z"
/>
<path fill="#030102" d="
  M 175.65 523.11
  C 183.36 528.95 171.44 541.21 165.69 529.56
  C 162.23 522.54 171.08 519.65 175.65 523.11
  Z"
/>
<path fill="#030102" d="
  M 277.70 552.56
  C 271.57 549.61 265.22 541.93 268.51 534.99
  Q 269.44 533.02 272.30 529.15
  C 277.55 522.04 285.75 519.64 293.71 523.88
  C 297.39 525.84 301.20 529.81 304.56 532.94
  C 308.24 536.37 310.66 544.24 306.39 548.39
  Q 302.45 552.22 299.25 553.97
  C 293.37 557.21 283.41 555.30 277.70 552.56
  Z
  M 293.33 540.53
  C 290.24 544.70 283.80 544.72 279.51 542.44
  Q 276.88 541.05 274.21 539.61
  Q 273.70 539.33 273.69 539.91
  C 273.60 544.98 279.56 549.05 283.88 550.06
  C 292.40 552.05 300.12 550.40 303.10 541.75
  C 304.65 537.27 297.44 531.56 294.54 528.73
  Q 291.29 525.57 285.91 527.23
  Q 285.40 527.39 285.88 527.61
  C 287.52 528.37 289.51 528.93 290.73 529.67
  C 294.43 531.93 296.15 536.72 293.33 540.53
  Z
  M 282.55 532.35
  C 281.16 532.92 279.14 533.69 278.13 534.76
  A 1.46 1.45 -51.7 0 0 278.38 536.98
  C 281.68 539.15 288.24 542.45 289.56 535.88
  C 290.34 531.99 285.01 531.33 282.55 532.35
  Z"
/>
<path fill="#f9f3f5" d="
  M 202.15 522.81
  C 206.11 528.99 198.82 538.87 208.63 545.60
  C 214.45 549.59 218.60 553.15 226.76 552.72
  C 238.33 552.10 243.33 547.13 252.19 540.98
  Q 252.70 540.62 252.44 541.19
  C 246.83 553.10 236.61 560.14 223.25 559.25
  C 216.84 558.82 207.15 555.54 202.69 550.03
  Q 200.66 547.53 197.27 537.61
  Q 194.20 528.65 201.09 522.66
  A 0.71 0.70 -36.8 0 1 202.15 522.81
  Z"
/>
<path fill="#f9f3f5" d="
  M 293.33 540.53
  C 296.15 536.72 294.43 531.93 290.73 529.67
  C 289.51 528.93 287.52 528.37 285.88 527.61
  Q 285.40 527.39 285.91 527.23
  Q 291.29 525.57 294.54 528.73
  C 297.44 531.56 304.65 537.27 303.10 541.75
  C 300.12 550.40 292.40 552.05 283.88 550.06
  C 279.56 549.05 273.60 544.98 273.69 539.91
  Q 273.70 539.33 274.21 539.61
  Q 276.88 541.05 279.51 542.44
  C 283.80 544.72 290.24 544.70 293.33 540.53
  Z"
/>
<path fill="#f9f3f5" d="
  M 282.55 532.35
  C 285.01 531.33 290.34 531.99 289.56 535.88
  C 288.24 542.45 281.68 539.15 278.38 536.98
  A 1.46 1.45 -51.7 0 1 278.13 534.76
  C 279.14 533.69 281.16 532.92 282.55 532.35
  Z"
/>
<path fill="#030102" d="
  M 265.9744 580.3001
  A 7.81 6.58 109.1 0 1 262.3122 570.7669
  A 7.81 6.58 109.1 0 1 271.0856 565.5399
  A 7.81 6.58 109.1 0 1 274.7478 575.0731
  A 7.81 6.58 109.1 0 1 265.9744 580.3001
  Z
  M 267.9640 573.8635
  A 1.59 0.77 123.0 0 0 269.4758 572.9494
  A 1.59 0.77 123.0 0 0 269.6960 571.1965
  A 1.59 0.77 123.0 0 0 268.1842 572.1106
  A 1.59 0.77 123.0 0 0 267.9640 573.8635
  Z"
/>
<path fill="#030102" d="
  M 247.39 615.78
  C 244.25 617.90 240.68 616.56 238.23 619.26
  C 229.34 629.08 214.95 627.18 208.35 615.97
  C 205.12 610.49 207.02 606.35 208.36 600.82
  C 209.03 598.02 207.07 594.95 205.97 592.51
  Q 204.93 590.23 205.89 585.78
  C 208.29 574.70 219.23 584.10 222.45 577.04
  Q 224.71 572.06 228.74 569.94
  C 235.41 566.43 237.36 572.99 239.32 577.42
  C 240.36 579.75 244.21 580.05 246.56 580.70
  C 254.83 582.98 258.78 590.98 257.63 599.28
  Q 256.18 609.84 247.39 615.78
  Z
  M 239.56 583.17
  C 235.59 581.30 234.71 577.42 232.98 573.94
  Q 232.61 573.21 231.91 573.62
  Q 227.70 576.08 225.82 580.58
  A 1.46 1.46 0.0 0 0 225.76 581.52
  Q 226.61 584.53 225.48 587.49
  A 1.47 1.46 16.7 0 0 226.54 589.44
  C 229.84 590.16 232.44 590.07 234.44 593.29
  C 235.91 595.65 238.33 601.11 236.08 603.54
  Q 231.53 608.46 225.51 607.14
  C 217.73 605.43 220.76 597.21 222.93 592.60
  C 226.89 584.23 209.52 580.63 211.07 590.69
  C 211.55 593.76 215.24 597.41 213.92 600.90
  C 211.44 607.45 209.57 613.35 215.51 617.97
  C 223.22 623.97 231.29 623.34 236.53 614.52
  C 237.22 613.35 239.40 612.95 240.94 613.17
  C 252.08 614.76 258.57 590.94 247.40 585.29
  C 245.14 584.15 241.63 584.15 239.56 583.17
  Z
  M 226.9902 603.4507
  A 4.48 3.48 105.8 0 0 231.5585 600.0875
  A 4.48 3.48 105.8 0 0 229.4298 594.8293
  A 4.48 3.48 105.8 0 0 224.8615 598.1925
  A 4.48 3.48 105.8 0 0 226.9902 603.4507
  Z"
/>
<ellipse fill="#f9f3f5" cx="0.00" cy="0.00" transform="translate(268.83,572.53) rotate(123.0)" rx="1.59" ry="0.77"/>
<path fill="#f9f3f5" d="
  M 239.56 583.17
  C 241.63 584.15 245.14 584.15 247.40 585.29
  C 258.57 590.94 252.08 614.76 240.94 613.17
  C 239.40 612.95 237.22 613.35 236.53 614.52
  C 231.29 623.34 223.22 623.97 215.51 617.97
  C 209.57 613.35 211.44 607.45 213.92 600.90
  C 215.24 597.41 211.55 593.76 211.07 590.69
  C 209.52 580.63 226.89 584.23 222.93 592.60
  C 220.76 597.21 217.73 605.43 225.51 607.14
  Q 231.53 608.46 236.08 603.54
  C 238.33 601.11 235.91 595.65 234.44 593.29
  C 232.44 590.07 229.84 590.16 226.54 589.44
  A 1.47 1.46 16.7 0 1 225.48 587.49
  Q 226.61 584.53 225.76 581.52
  A 1.46 1.46 0.0 0 1 225.82 580.58
  Q 227.70 576.08 231.91 573.62
  Q 232.61 573.21 232.98 573.94
  C 234.71 577.42 235.59 581.30 239.56 583.17
  Z"
/>
<ellipse fill="#f9f3f5" cx="0.00" cy="0.00" transform="translate(228.21,599.14) rotate(105.8)" rx="4.48" ry="3.48"/>
</svg>
