<?xml version="1.0" encoding="utf-8"?>
<svg viewBox="74.071 -14.336 315.221 547.787" xmlns="http://www.w3.org/2000/svg">
  <g stroke-width="5.00" fill="none" stroke-linecap="butt" transform="matrix(1, 0, 0, 1, -61.834821, -47.585671)">
    <path vector-effect="non-scaling-stroke" d=" M 294.16 452.79 C 288.46 451.45 280.58 450.42 275.02 452.47 C 270.25 454.23 265.28 457.85 265.57 463.52 C 266.58 483.19 306.40 478.70 300.87 458.24 Q 300.67 457.49 301.33 457.90 L 308.10 462.12 Q 308.58 462.42 308.77 462.96 C 316.43 485.58 333.80 506.65 351.59 522.14 Q 354.12 524.34 357.11 525.55 A 2.26 2.26 0.0 0 0 359.80 524.76 Q 360.24 524.14 359.86 522.77 Q 358.50 517.81 355.83 513.38 C 344.36 494.31 329.08 475.70 311.24 462.26 Q 310.21 461.49 309.86 460.23 C 307.65 452.37 306.67 444.42 308.51 436.25 C 310.74 426.37 317.50 425.14 325.44 421.69 Q 328.31 420.45 331.91 419.74 C 339.77 418.18 347.48 414.40 354.68 409.92 Q 366.45 402.60 377.52 394.26 C 386.41 387.55 392.82 380.20 396.39 369.47 C 399.56 359.91 401.00 349.93 399.37 339.90 C 396.78 323.86 383.62 318.42 369.44 324.09 Q 358.53 328.46 352.55 339.76 C 348.34 347.73 348.45 354.20 338.72 358.03 Q 338.25 358.21 338.52 357.79 C 346.44 345.50 354.97 327.18 346.58 312.92 C 335.42 293.94 311.46 306.18 303.91 320.96 C 299.07 330.44 303.25 339.22 310.47 345.98 Q 310.93 346.41 310.31 346.57 Q 305.11 347.90 300.68 350.93 A 0.86 0.86 0.0 0 1 299.42 350.59 C 297.68 346.93 294.33 344.05 292.51 340.43 Q 292.12 339.66 292.97 339.49 Q 297.99 338.48 298.66 335.01 C 299.27 331.84 297.30 329.39 293.99 329.28 C 289.90 329.16 289.41 334.75 289.84 337.69 A 1.89 1.89 0.0 0 1 287.55 339.81 Q 285.67 339.38 283.47 337.26 C 278.58 332.55 290.47 325.69 283.09 318.97 Q 282.71 318.62 282.19 318.72 Q 281.99 318.76 281.84 318.89 Q 281.41 319.27 281.71 319.76 Q 282.41 320.90 283.13 322.06 C 287.00 328.26 272.88 334.76 286.55 341.40 Q 288.58 342.38 290.23 341.55 Q 290.63 341.34 290.90 341.71 L 299.00 352.91 Q 299.39 353.46 299.99 353.14 L 302.57 351.78 Q 303.21 351.44 303.01 352.14 Q 301.85 356.11 304.42 356.64 C 306.97 357.17 307.86 357.10 309.39 359.43 C 313.39 365.50 316.14 370.75 324.79 368.89 Q 325.41 368.76 325.00 369.24 Q 320.63 374.42 318.26 380.77 Q 318.02 381.39 317.63 380.86 C 310.59 371.21 303.27 373.62 292.81 374.00 A 2.50 2.50 0.0 0 1 290.30 370.86 C 292.31 363.31 297.23 358.04 293.84 349.73 C 292.75 347.07 290.31 346.78 288.65 349.14 Q 286.05 352.80 283.50 356.48 Q 281.76 358.98 279.48 357.55 C 274.94 354.70 273.35 345.65 273.23 340.31 C 273.17 337.74 272.82 335.23 271.69 333.32 C 269.35 329.38 265.39 333.37 264.98 336.25 Q 263.71 345.17 265.48 353.61 Q 266.00 356.09 264.58 353.99 Q 258.99 345.68 253.21 336.04 Q 251.84 333.77 249.91 332.92 A 2.66 2.66 0.0 0 0 246.69 333.79 C 242.37 339.75 246.55 349.50 249.73 354.98 Q 249.88 355.24 249.61 355.12 Q 242.62 351.95 238.67 345.68 A 2.44 2.43 62.8 0 0 235.70 344.72 C 233.50 345.61 232.86 350.21 232.87 352.29 C 232.91 357.67 238.75 364.96 243.23 369.08 Q 243.70 369.51 243.07 369.57 C 240.30 369.81 224.62 372.38 226.59 377.71 Q 227.14 379.20 228.57 379.19 Q 235.80 379.16 237.77 379.52 C 248.25 381.45 259.69 390.20 267.30 397.45 C 276.20 405.92 284.37 413.90 294.32 418.39 Q 297.96 420.04 293.98 419.71 C 274.53 418.10 259.44 424.58 243.94 435.69 Q 230.61 445.26 217.10 454.57 C 210.11 459.38 202.63 464.18 194.43 466.60 Q 185.88 469.12 180.59 462.16 C 173.85 453.31 168.40 445.16 158.90 438.86 C 153.19 435.08 145.60 435.22 141.48 441.22 C 139.58 443.98 140.30 447.25 142.78 449.64 C 146.63 453.34 149.62 455.40 150.88 461.54 Q 152.11 467.50 153.23 473.49 C 154.36 479.55 156.36 482.13 159.35 486.44 C 162.06 490.35 162.23 494.02 162.84 498.74 C 164.14 508.71 178.46 513.34 185.85 506.86 C 189.08 504.03 191.99 499.53 197.26 498.50 Q 204.01 497.17 210.89 497.99 Q 211.39 498.05 211.52 498.54 Q 212.33 501.43 214.13 503.36 Q 227.15 517.27 242.93 529.94 C 253.01 538.03 268.42 545.53 275.31 528.52 Q 277.15 523.98 277.75 519.57 Q 278.08 517.11 278.92 519.45 Q 284.16 534.08 293.35 547.90 C 305.77 566.56 323.03 577.85 346.65 573.89 C 391.56 566.37 417.26 528.26 429.65 487.74 Q 442.33 446.28 445.12 402.99 C 446.57 380.41 445.15 358.38 435.72 337.56 Q 433.44 332.52 429.19 325.38 C 424.61 317.69 418.77 309.70 415.53 302.01 C 410.55 290.21 411.58 278.18 412.22 265.75 C 412.97 251.32 410.56 237.42 402.05 225.15 Q 400.19 222.47 398.27 219.83 Q 396.32 217.14 395.24 214.13 C 386.21 188.83 375.53 163.24 369.60 137.45 C 363.84 112.41 365.99 87.24 371.96 62.00 Q 374.98 49.23 376.87 42.17 A 0.63 0.63 0.0 0 0 376.39 41.39 L 376.15 41.33 Q 375.34 41.15 375.13 41.95 C 368.82 66.48 362.99 90.98 364.79 116.55 C 366.06 134.48 371.26 153.08 377.38 170.04 Q 385.07 191.32 392.91 212.55 Q 393.18 213.29 393.25 214.13 Q 393.28 214.59 392.96 214.26 C 380.21 200.83 359.44 190.07 341.10 188.47 C 324.31 187.01 309.32 191.95 295.82 202.19 C 272.17 220.14 253.04 252.85 260.95 283.49 Q 261.16 284.28 262.13 286.07 Q 262.35 286.48 262.68 286.63 Q 263.22 286.88 263.55 286.62 A 1.87 1.86 -20.1 0 0 264.27 285.07 C 264.02 279.39 263.09 270.46 266.41 265.70 C 270.04 260.51 276.84 256.18 281.73 251.74 C 288.75 245.36 293.59 239.15 297.73 231.09 Q 298.91 228.79 299.61 231.28 C 300.93 235.98 302.59 241.57 305.20 245.58 Q 312.69 257.06 326.31 259.50 C 331.35 260.40 337.64 260.07 343.25 259.99 C 360.36 259.76 362.28 279.13 364.81 291.50 C 366.17 298.11 369.92 305.79 377.48 304.11 C 388.29 301.72 390.83 284.96 390.18 276.30 Q 390.14 275.82 390.63 275.87 Q 404.90 277.48 408.76 290.76 Q 409.68 293.91 411.13 295.40 Q 411.48 295.76 411.62 296.24 C 414.94 306.99 420.86 315.46 427.39 325.85 C 442.14 349.34 445.29 374.77 443.62 402.00 Q 441.03 444.04 428.52 485.75 C 416.37 526.22 390.48 565.59 345.26 572.27 C 319.20 576.11 302.02 560.71 290.05 539.42 Q 283.54 527.84 279.44 515.20 Q 279.13 514.25 279.19 513.26 Q 279.59 507.00 278.94 500.77 Q 278.74 498.83 277.35 498.58 A 1.51 1.50 6.8 0 0 275.58 499.97 Q 275.34 503.80 275.65 507.18 C 275.86 509.45 277.08 512.64 276.80 515.50 Q 276.12 522.51 272.78 529.60 C 267.36 541.13 256.31 537.10 248.38 531.61 C 236.63 523.49 226.07 513.08 216.14 502.87 Q 214.41 501.10 213.40 499.06 A 2.63 2.61 51.4 0 1 213.71 496.23 C 217.25 491.83 225.49 488.92 230.91 487.80 C 242.83 485.33 246.97 494.87 247.68 504.37 C 248.06 509.37 248.65 512.69 250.10 516.96 Q 250.38 517.77 250.93 517.99 A 0.93 0.92 -76.9 0 0 252.19 517.20 C 252.85 509.08 248.75 501.82 248.72 493.99 C 248.65 475.16 259.30 455.13 278.74 450.72 C 282.19 449.94 291.40 449.58 294.25 452.64 Q 294.44 452.85 294.16 452.79" style=""/>
    <path vector-effect="non-scaling-stroke" d=" M 309.7868 305.0543 A 1.28 1.28 0.0 0 0 308.0041 304.7400 L 297.2732 312.2538 A 1.28 1.28 0.0 0 0 296.9588 314.0365 L 296.9932 314.0857 A 1.28 1.28 0.0 0 0 298.7759 314.4000 L 309.5068 306.8862 A 1.28 1.28 0.0 0 0 309.8212 305.1035 L 309.7868 305.0543" style=""/>
    <path vector-effect="non-scaling-stroke" d=" M 388.06 275.41 C 382.32 274.70 368.47 273.52 373.06 263.54 Q 373.85 261.80 375.76 261.53 C 382.54 260.55 387.78 267.16 389.34 273.03 Q 389.47 273.52 389.96 273.66 C 396.99 275.76 401.12 275.82 406.28 282.29 Q 406.73 282.86 406.60 282.15 C 405.25 275.07 404.11 268.61 403.31 260.90 Q 401.14 239.90 395.03 219.65 Q 394.68 218.51 393.85 217.65 C 374.91 198.01 346.51 184.53 319.21 192.10 C 303.12 196.56 288.85 208.51 278.82 221.77 C 265.76 239.03 257.57 259.30 262.06 280.79 A 0.07 0.07 0.0 0 0 262.19 280.78 C 262.50 276.31 262.08 271.08 263.82 267.21 Q 266.17 262.01 271.25 258.23 C 281.11 250.91 290.07 241.86 295.97 230.76 Q 297.01 228.81 298.12 228.25 A 1.90 1.90 0.0 0 1 300.80 229.41 C 302.34 234.71 303.98 240.49 306.84 244.84 Q 313.93 255.63 326.87 257.82 C 331.42 258.58 337.37 258.25 342.50 258.24 C 361.39 258.19 363.59 276.29 366.25 290.25 C 367.41 296.29 371.56 306.67 379.90 301.18 C 387.33 296.28 389.29 283.75 388.36 275.71 A 0.34 0.34 0.0 0 0 388.06 275.41" style=""/>
    <path vector-effect="non-scaling-stroke" d=" M 410.04 289.02 Q 410.12 289.31 410.12 289.62 Q 410.12 289.63 410.12 289.63 Q 410.12 289.63 410.12 289.63 Q 410.10 289.62 410.10 289.61 Q 410.29 287.54 409.86 282.88 Q 409.41 278.07 410.42 267.00 C 411.83 251.62 408.25 235.53 398.37 222.71 Q 397.43 221.50 397.86 222.96 Q 402.28 238.25 404.24 254.76 C 405.75 267.48 406.98 277.49 410.04 289.02" style=""/>
    <path vector-effect="non-scaling-stroke" d=" M 378.98 263.61 Q 374.46 261.72 373.98 265.99 C 373.26 272.32 382.95 273.08 387.28 273.52 A 0.28 0.28 0.0 0 0 387.58 273.16 Q 385.56 266.34 378.98 263.61" style=""/>
    <path vector-effect="non-scaling-stroke" d=" M 330.32 363.47 C 339.72 357.05 348.63 336.83 348.49 326.01 C 348.38 316.85 342.75 306.65 333.01 305.26 C 322.10 303.72 311.02 311.65 305.94 320.95 C 300.78 330.40 304.94 338.24 311.80 344.96 Q 319.63 352.63 327.49 360.25 Q 328.11 360.86 329.65 363.33 Q 329.91 363.75 330.32 363.47" style=""/>
    <path vector-effect="non-scaling-stroke" d=" M 320.38 389.73 A 1.40 1.40 0.0 0 1 317.95 389.74 Q 316.47 387.18 317.06 384.29 Q 317.17 383.80 316.95 383.35 C 312.28 373.74 303.92 374.89 295.00 375.78 C 292.94 375.98 290.08 375.69 288.95 373.63 Q 287.75 371.45 288.82 368.98 C 291.79 362.18 295.10 356.37 291.97 349.85 A 1.03 1.02 47.8 0 0 290.17 349.76 Q 287.76 353.72 285.12 357.33 C 282.43 361.01 277.92 360.06 275.77 356.46 Q 271.66 349.57 271.58 341.19 C 271.56 338.68 271.11 336.71 270.46 334.48 A 1.35 1.35 0.0 0 0 268.17 333.95 C 264.25 338.18 266.66 352.34 268.10 357.50 Q 268.53 359.02 266.55 358.77 Q 266.11 358.72 265.82 358.39 Q 264.15 356.55 262.77 354.48 Q 256.77 345.53 251.08 336.39 Q 250.26 335.06 249.41 334.65 A 1.35 1.35 0.0 0 0 247.58 335.37 C 244.98 341.91 248.62 349.91 252.01 355.42 C 253.75 358.25 259.21 359.22 258.46 363.01 A 0.75 0.75 0.0 0 1 257.79 363.61 C 254.31 363.89 252.77 358.74 249.52 357.15 C 243.96 354.44 240.15 351.49 237.41 346.89 A 1.03 1.03 0.0 0 0 235.54 347.12 C 232.86 355.82 239.36 363.28 245.29 368.65 C 248.30 371.37 253.05 370.75 254.98 374.91 A 1.16 1.16 0.0 0 1 253.58 376.51 C 250.55 375.57 248.32 373.40 245.72 371.64 Q 245.31 371.35 244.80 371.36 C 239.93 371.40 231.97 372.77 228.37 376.39 A 0.63 0.63 0.0 0 0 228.80 377.47 C 234.95 377.67 239.54 377.49 246.01 380.25 C 256.83 384.86 269.13 396.38 276.37 403.38 Q 290.08 416.63 308.52 422.54 Q 309.36 422.81 309.08 423.64 L 308.99 423.91 A 0.67 0.66 -69.3 0 1 308.11 424.31 Q 304.98 423.04 300.24 422.22 C 279.16 418.58 262.35 424.50 245.22 436.93 Q 225.38 451.33 218.17 456.18 C 209.70 461.87 191.07 474.19 182.62 466.63 Q 178.64 463.07 177.74 461.75 C 171.58 452.72 159.51 436.02 148.51 438.29 C 145.52 438.91 142.02 441.86 142.14 445.23 Q 142.19 446.78 143.15 447.60 C 148.88 452.54 151.51 455.23 152.79 462.47 C 154.09 469.76 154.88 477.88 159.67 483.96 C 162.04 486.98 163.23 489.09 163.74 492.54 C 164.70 499.13 164.73 504.79 172.22 507.24 Q 176.48 508.63 180.55 507.60 C 186.83 506.01 188.96 498.77 195.76 497.03 Q 202.86 495.22 210.84 496.25 Q 211.37 496.32 211.67 495.89 C 215.66 490.25 224.61 487.35 231.26 485.96 Q 239.28 484.28 244.32 489.83 C 245.01 490.59 245.69 491.97 246.55 492.92 Q 247.05 493.46 247.06 492.73 C 247.31 473.03 260.22 449.85 282.14 448.58 C 288.09 448.23 293.91 449.05 298.23 453.47 C 300.85 456.16 304.11 457.38 307.10 459.43 Q 308.06 460.09 307.76 458.96 C 305.62 450.90 304.87 442.44 307.26 434.26 C 309.67 426.04 315.62 423.29 323.20 421.01 Q 323.88 420.81 323.21 420.57 C 319.43 419.23 315.39 418.44 315.78 413.27 C 316.47 404.15 326.64 402.30 332.43 408.59 Q 336.57 413.09 332.55 417.57 Q 331.94 418.24 332.81 417.99 C 346.31 414.01 359.46 405.21 371.34 396.85 C 382.01 389.33 391.04 380.79 395.11 367.97 C 399.24 354.97 402.43 329.94 385.83 324.59 C 374.06 320.80 361.87 328.47 355.62 337.98 C 352.21 343.17 350.74 352.41 345.76 356.06 C 342.44 358.49 338.05 360.12 334.69 362.73 Q 330.38 366.09 329.05 367.33 Q 323.05 372.95 319.31 382.74 Q 319.14 383.20 319.31 383.65 C 319.99 385.39 321.31 388.08 320.38 389.73" style=""/>
    <path vector-effect="non-scaling-stroke" d=" M 292.64 331.44 C 291.59 332.96 291.25 335.35 291.53 337.10 Q 291.63 337.79 292.31 337.63 L 295.38 336.91 A 2.15 2.13 85.8 0 0 297.03 334.98 Q 297.34 330.92 293.48 331.00 A 1.06 1.06 0.0 0 0 292.64 331.44" style=""/>
    <path vector-effect="non-scaling-stroke" d=" M 328.36 365.42 A 0.54 0.54 0.0 0 0 328.53 364.63 C 324.10 358.51 317.88 353.57 312.41 348.31 Q 312.04 347.95 311.64 348.28 C 309.07 350.31 306.43 350.97 304.24 353.70 A 0.72 0.72 0.0 0 0 304.77 354.87 C 309.55 355.11 310.67 358.05 312.83 361.58 C 316.54 367.62 321.76 369.24 328.36 365.42" style=""/>
    <path vector-effect="non-scaling-stroke" d=" M 331.65 415.64 C 337.04 409.61 319.29 400.03 317.50 413.26 C 316.91 417.67 322.85 419.01 326.16 418.73 C 328.81 418.50 329.95 417.54 331.65 415.64" style=""/>
    <path vector-effect="non-scaling-stroke" d=" M 292.34 472.17 C 298.58 469.34 302.01 463.33 298.22 456.77 A 1.50 1.50 0.0 0 0 297.54 456.15 C 289.91 452.66 279.34 451.40 271.77 455.96 C 264.31 460.45 267.12 469.94 273.98 472.82 Q 282.79 476.51 292.34 472.17" style=""/>
    <path vector-effect="non-scaling-stroke" d=" M 311.55 465.76 C 317.49 480.53 327.14 494.23 337.66 506.01 C 342.97 511.95 350.80 521.37 357.86 523.99 A 0.45 0.44 -87.7 0 0 358.44 523.45 C 357.46 520.03 356.11 516.91 354.14 513.70 Q 336.98 485.81 312.26 465.25 Q 310.88 464.09 311.55 465.76" style=""/>
  </g>
  <path fill="#050403" d="M 232.416 405.054 C 229.566 401.994 220.356 402.354 216.906 403.134 C 197.466 407.544 186.816 427.574 186.886 446.404 C 186.916 454.234 191.016 461.494 190.356 469.614 C 190.303 470.237 189.67 470.634 189.096 470.404 C 188.729 470.258 188.452 469.914 188.266 469.374 C 186.816 465.104 186.226 461.784 185.846 456.784 C 185.136 447.284 180.996 437.744 169.076 440.214 C 163.656 441.334 155.416 444.244 151.876 448.644 C 151.225 449.44 151.103 450.548 151.566 451.474 C 152.239 452.834 153.152 454.104 154.306 455.284 C 164.236 465.494 174.796 475.904 186.546 484.024 C 194.476 489.514 205.526 493.544 210.946 482.014 C 213.172 477.288 214.512 472.588 214.966 467.914 C 215.246 465.054 214.026 461.864 213.816 459.594 C 213.609 457.341 213.586 454.938 213.746 452.384 C 213.797 451.487 214.625 450.837 215.516 450.994 C 216.442 451.161 216.972 451.891 217.106 453.184 C 217.539 457.338 217.622 461.501 217.356 465.674 C 217.316 466.334 217.399 466.981 217.606 467.614 C 220.339 476.041 223.876 484.114 228.216 491.834 C 240.186 513.124 257.366 528.524 283.426 524.684 C 328.646 518.004 354.536 478.634 366.686 438.164 C 375.026 410.358 380.059 382.441 381.786 354.414 C 383.456 327.184 380.306 301.754 365.556 278.264 C 359.026 267.874 353.106 259.404 349.786 248.654 C 349.692 248.334 349.529 248.054 349.296 247.814 C 348.329 246.821 347.539 245.274 346.926 243.174 C 344.352 234.321 338.309 229.358 328.796 228.284 C 328.469 228.251 328.319 228.394 328.346 228.714 C 328.996 237.374 326.456 254.134 315.646 256.524 C 308.086 258.204 304.336 250.524 302.976 243.914 C 300.446 231.544 298.526 212.174 281.416 212.404 C 275.806 212.484 269.516 212.814 264.476 211.914 C 255.396 210.288 248.359 205.648 243.366 197.994 C 240.756 193.984 239.096 188.394 237.776 183.694 C 237.309 182.034 236.682 181.971 235.896 183.504 C 231.756 191.564 226.916 197.774 219.896 204.154 C 215.006 208.594 208.206 212.924 204.576 218.114 C 201.256 222.874 202.186 231.804 202.436 237.484 C 202.461 238.086 202.193 238.663 201.716 239.034 C 201.496 239.208 201.206 239.211 200.846 239.044 C 200.626 238.944 200.442 238.758 200.296 238.484 C 199.649 237.291 199.256 236.431 199.116 235.904 C 191.206 205.264 210.336 172.554 233.986 154.604 C 247.486 144.364 262.476 139.424 279.266 140.884 C 297.606 142.484 318.376 153.244 331.126 166.674 C 331.339 166.894 331.436 166.851 331.416 166.544 C 331.369 165.984 331.256 165.458 331.076 164.964 C 325.849 150.811 320.672 136.641 315.546 122.454 C 309.426 105.494 304.226 86.894 302.956 68.964 C 301.156 43.394 306.986 18.894 313.296 -5.636 C 313.436 -6.169 313.776 -6.376 314.316 -6.256 L 314.556 -6.196 C 314.91 -6.122 315.129 -5.765 315.036 -5.416 C 313.776 -0.709 312.139 5.901 310.126 14.414 C 304.156 39.654 302.006 64.824 307.766 89.864 C 313.696 115.654 324.376 141.244 333.406 166.544 C 334.126 168.551 335.136 170.451 336.436 172.244 C 337.716 174.004 338.976 175.778 340.216 177.564 C 348.726 189.834 351.136 203.734 350.386 218.164 C 349.746 230.594 348.716 242.624 353.696 254.424 C 356.936 262.114 362.776 270.104 367.356 277.794 C 370.189 282.554 372.366 286.614 373.886 289.974 C 383.316 310.794 384.736 332.824 383.286 355.404 C 381.426 384.264 376.269 412.514 367.816 440.154 C 355.426 480.674 329.726 518.784 284.816 526.304 C 261.196 530.264 243.936 518.974 231.516 500.314 C 225.389 491.101 220.579 481.618 217.086 471.864 C 216.526 470.304 216.136 470.344 215.916 471.984 C 215.516 474.924 214.702 477.908 213.476 480.934 C 206.586 497.944 191.176 490.444 181.096 482.354 C 170.576 473.908 160.976 465.048 152.296 455.774 C 151.096 454.488 150.226 452.881 149.686 450.954 C 149.599 450.628 149.389 450.444 149.056 450.404 C 144.469 449.858 139.926 450.028 135.426 450.914 C 130.156 451.944 127.246 456.444 124.016 459.274 C 116.626 465.754 102.306 461.124 101.006 451.154 C 100.396 446.434 100.226 442.764 97.516 438.854 C 94.526 434.544 92.526 431.964 91.396 425.904 C 90.649 421.911 89.866 417.928 89.046 413.954 C 87.786 407.814 84.796 405.754 80.946 402.054 C 78.466 399.664 77.746 396.394 79.646 393.634 C 83.766 387.634 91.356 387.494 97.066 391.274 C 106.566 397.574 112.016 405.724 118.756 414.574 C 122.282 419.214 126.896 420.694 132.596 419.014 C 140.796 416.594 148.276 411.794 155.266 406.984 C 164.272 400.778 173.219 394.484 182.106 388.104 C 197.606 376.994 212.696 370.514 232.146 372.124 C 234.799 372.344 234.912 371.904 232.486 370.804 C 222.536 366.314 214.366 358.334 205.466 349.864 C 197.856 342.614 186.416 333.864 175.936 331.934 C 174.622 331.694 171.556 331.584 166.736 331.604 C 165.782 331.611 165.122 331.118 164.756 330.124 C 162.786 324.794 178.466 322.224 181.236 321.984 C 181.656 321.944 181.709 321.781 181.396 321.494 C 176.916 317.374 171.076 310.084 171.036 304.704 C 171.026 302.624 171.666 298.024 173.866 297.134 C 174.955 296.694 176.205 297.098 176.836 298.094 C 179.469 302.274 183.116 305.421 187.776 307.534 C 187.956 307.614 187.996 307.568 187.896 307.394 C 184.716 301.914 180.536 292.164 184.856 286.204 C 185.591 285.194 186.931 284.832 188.076 285.334 C 189.362 285.901 190.462 286.941 191.376 288.454 C 195.229 294.881 199.019 300.864 202.746 306.404 C 203.692 307.804 203.992 307.678 203.646 306.024 C 202.466 300.398 202.299 294.611 203.146 288.664 C 203.556 285.784 207.516 281.794 209.856 285.734 C 210.986 287.644 211.336 290.154 211.396 292.724 C 211.516 298.064 213.106 307.114 217.646 309.964 C 219.166 310.918 220.506 310.561 221.666 308.894 C 223.366 306.441 225.082 303.994 226.816 301.554 C 228.476 299.194 230.916 299.484 232.006 302.144 C 235.396 310.454 230.476 315.724 228.466 323.274 C 228.034 324.899 229.296 326.478 230.976 326.414 C 241.436 326.034 248.756 323.624 255.796 333.274 C 256.056 333.628 256.266 333.598 256.426 333.184 C 258.006 328.951 260.252 325.108 263.166 321.654 C 263.439 321.334 263.369 321.218 262.956 321.304 C 254.306 323.164 251.556 317.914 247.556 311.844 C 246.026 309.514 245.136 309.584 242.586 309.054 C 240.872 308.701 240.402 307.201 241.176 304.554 C 241.309 304.088 241.162 303.968 240.736 304.194 L 238.156 305.554 C 237.756 305.768 237.426 305.691 237.166 305.324 L 229.066 294.124 C 228.886 293.878 228.662 293.824 228.396 293.964 C 227.296 294.518 226.069 294.468 224.716 293.814 C 211.046 287.174 225.166 280.674 221.296 274.474 C 220.816 273.701 220.342 272.934 219.876 272.174 C 219.676 271.848 219.719 271.558 220.006 271.304 C 220.106 271.218 220.222 271.161 220.356 271.134 C 220.702 271.068 221.002 271.151 221.256 271.384 C 228.636 278.104 216.746 284.964 221.636 289.674 C 223.102 291.088 224.462 291.938 225.716 292.224 C 227.012 292.52 228.201 291.42 228.006 290.104 C 227.576 287.164 228.066 281.574 232.156 281.694 C 235.466 281.804 237.436 284.254 236.826 287.424 C 236.379 289.738 234.482 291.231 231.136 291.904 C 230.569 292.018 230.416 292.331 230.676 292.844 C 232.496 296.464 235.846 299.344 237.586 303.004 C 237.813 303.48 238.41 303.641 238.846 303.344 C 241.799 301.324 245.009 299.871 248.476 298.984 C 248.889 298.878 248.942 298.681 248.636 298.394 C 241.416 291.634 237.236 282.854 242.076 273.374 C 249.626 258.594 273.586 246.354 284.746 265.334 C 293.136 279.594 284.606 297.914 276.686 310.204 C 276.506 310.484 276.572 310.564 276.886 310.444 C 286.616 306.614 286.506 300.144 290.716 292.174 C 294.702 284.641 300.332 279.418 307.606 276.504 C 321.786 270.834 334.946 276.274 337.536 292.314 C 339.166 302.344 337.726 312.324 334.556 321.884 C 330.986 332.614 324.576 339.964 315.686 346.674 C 308.306 352.234 300.692 357.454 292.846 362.334 C 285.646 366.814 277.936 370.594 270.076 372.154 C 267.676 372.628 265.519 373.278 263.606 374.104 C 255.666 377.554 248.906 378.784 246.676 388.664 C 244.836 396.834 245.816 404.784 248.026 412.644 C 248.259 413.484 248.719 414.161 249.406 414.674 C 267.246 428.114 282.526 446.724 293.996 465.794 C 295.776 468.748 297.119 471.878 298.026 475.184 C 298.279 476.098 298.259 476.761 297.966 477.174 C 297.36 478.029 296.247 478.356 295.276 477.964 C 293.282 477.158 291.442 476.021 289.756 474.554 C 271.966 459.064 254.596 437.994 246.936 415.374 C 246.809 415.014 246.586 414.734 246.266 414.534 L 239.496 410.314 C 239.056 410.041 238.902 410.154 239.036 410.654 C 244.566 431.114 204.746 435.604 203.736 415.934 C 203.446 410.264 208.416 406.644 213.186 404.884 C 218.746 402.834 226.626 403.864 232.326 405.204 C 232.512 405.244 232.542 405.194 232.416 405.054 Z M 326.226 227.824 C 320.486 227.114 306.636 225.934 311.226 215.954 C 311.752 214.794 312.652 214.124 313.926 213.944 C 320.706 212.964 325.946 219.574 327.506 225.444 C 327.592 225.771 327.799 225.981 328.126 226.074 C 335.156 228.174 339.286 228.234 344.446 234.704 C 344.746 235.084 344.852 235.038 344.766 234.564 C 343.416 227.484 342.276 221.024 341.476 213.314 C 340.029 199.314 337.269 185.564 333.196 172.064 C 332.962 171.304 332.569 170.638 332.016 170.064 C 313.076 150.424 284.676 136.944 257.376 144.514 C 241.286 148.974 227.016 160.924 216.986 174.184 C 203.926 191.444 195.736 211.714 200.226 233.204 C 200.249 233.253 200.316 233.258 200.347 233.213 C 200.351 233.208 200.354 233.201 200.356 233.194 C 200.666 228.724 200.246 223.494 201.986 219.624 C 203.552 216.158 206.029 213.164 209.416 210.644 C 219.276 203.324 228.236 194.274 234.136 183.174 C 234.829 181.874 235.546 181.038 236.286 180.664 C 237.345 180.129 238.631 180.685 238.966 181.824 C 240.506 187.124 242.146 192.904 245.006 197.254 C 249.732 204.448 256.409 208.774 265.036 210.234 C 269.586 210.994 275.536 210.664 280.666 210.654 C 299.556 210.604 301.756 228.704 304.416 242.664 C 305.576 248.704 309.726 259.084 318.066 253.594 C 325.496 248.694 327.456 236.164 326.526 228.124 C 326.508 227.967 326.383 227.842 326.226 227.824 Z M 348.206 241.434 C 348.259 241.628 348.286 241.828 348.286 242.034 C 348.286 242.041 348.286 242.044 348.286 242.044 C 348.286 242.044 348.286 242.044 348.286 242.044 C 348.272 242.038 348.266 242.031 348.266 242.024 C 348.392 240.644 348.312 238.401 348.026 235.294 C 347.726 232.088 347.912 226.794 348.586 219.414 C 349.996 204.034 346.416 187.944 336.536 175.124 C 335.909 174.318 335.739 174.401 336.026 175.374 C 338.972 185.568 341.099 196.168 342.406 207.174 C 343.916 219.894 345.146 229.904 348.206 241.434 Z M 317.146 216.024 C 314.132 214.764 312.466 215.558 312.146 218.404 C 311.426 224.734 321.116 225.494 325.446 225.934 C 325.646 225.958 325.805 225.768 325.746 225.574 C 324.399 221.028 321.532 217.844 317.146 216.024 Z M 268.486 315.884 C 277.886 309.464 286.796 289.244 286.656 278.424 C 286.546 269.264 280.916 259.064 271.176 257.674 C 260.266 256.134 249.186 264.064 244.106 273.364 C 238.946 282.814 243.106 290.654 249.966 297.374 C 255.186 302.488 260.416 307.584 265.656 312.664 C 266.069 313.071 266.789 314.098 267.816 315.744 C 267.989 316.024 268.212 316.071 268.486 315.884 Z M 258.546 342.144 C 258.014 343.082 256.667 343.093 256.121 342.163 C 256.119 342.16 256.117 342.157 256.116 342.154 C 255.129 340.448 254.832 338.631 255.226 336.704 C 255.299 336.378 255.262 336.064 255.116 335.764 C 250.446 326.154 242.086 327.304 233.166 328.194 C 231.106 328.394 228.246 328.104 227.116 326.044 C 226.316 324.591 226.272 323.041 226.986 321.394 C 229.956 314.594 233.266 308.784 230.136 302.264 C 229.788 301.553 228.804 301.477 228.365 302.128 C 228.355 302.143 228.345 302.159 228.336 302.174 C 226.729 304.814 225.046 307.338 223.286 309.744 C 220.596 313.424 216.086 312.474 213.936 308.874 C 211.196 304.281 209.799 299.191 209.746 293.604 C 209.726 291.094 209.276 289.124 208.626 286.894 C 208.332 285.898 207.069 285.593 206.353 286.346 C 206.347 286.352 206.341 286.358 206.336 286.364 C 202.416 290.594 204.826 304.754 206.266 309.914 C 206.552 310.928 206.036 311.351 204.716 311.184 C 204.422 311.151 204.179 311.024 203.986 310.804 C 202.872 309.578 201.856 308.274 200.936 306.894 C 196.936 300.928 193.039 294.898 189.246 288.804 C 188.699 287.918 188.142 287.338 187.576 287.064 C 186.872 286.732 186.034 287.062 185.746 287.784 C 183.146 294.324 186.786 302.324 190.176 307.834 C 191.916 310.664 197.376 311.634 196.626 315.424 C 196.56 315.751 196.287 315.995 195.956 316.024 C 192.476 316.304 190.936 311.154 187.686 309.564 C 182.126 306.854 178.316 303.904 175.576 299.304 C 175.169 298.624 174.178 298.639 173.792 299.331 C 173.756 299.396 173.727 299.464 173.706 299.534 C 171.026 308.234 177.526 315.694 183.456 321.064 C 186.466 323.784 191.216 323.164 193.146 327.324 C 193.526 328.132 192.889 329.049 192 328.975 C 191.913 328.967 191.828 328.951 191.746 328.924 C 188.716 327.984 186.486 325.814 183.886 324.054 C 183.612 323.861 183.306 323.768 182.966 323.774 C 178.096 323.814 170.136 325.184 166.536 328.804 C 166.189 329.144 166.34 329.731 166.807 329.861 C 166.859 329.876 166.912 329.884 166.966 329.884 C 173.116 330.084 177.706 329.904 184.176 332.664 C 194.996 337.274 207.296 348.794 214.536 355.794 C 223.676 364.628 234.392 371.014 246.686 374.954 C 247.246 375.134 247.432 375.501 247.246 376.054 L 247.156 376.324 C 247.028 376.688 246.626 376.87 246.276 376.724 C 244.189 375.878 241.566 375.181 238.406 374.634 C 217.326 370.994 200.516 376.914 183.386 389.344 C 170.159 398.944 161.142 405.361 156.336 408.594 C 147.866 414.284 129.236 426.604 120.786 419.044 C 118.132 416.671 116.506 415.044 115.906 414.164 C 109.746 405.134 97.676 388.434 86.676 390.704 C 83.686 391.324 80.186 394.274 80.306 397.644 C 80.339 398.678 80.676 399.468 81.316 400.014 C 87.046 404.954 89.676 407.644 90.956 414.884 C 92.256 422.174 93.046 430.294 97.836 436.374 C 100.206 439.394 101.396 441.504 101.906 444.954 C 102.866 451.544 102.896 457.204 110.386 459.654 C 113.226 460.581 116.002 460.701 118.716 460.014 C 124.996 458.424 127.126 451.184 133.926 449.444 C 138.659 448.238 143.686 447.978 149.006 448.664 C 149.359 448.711 149.636 448.591 149.836 448.304 C 153.826 442.664 162.776 439.764 169.426 438.374 C 174.772 437.254 179.126 438.544 182.486 442.244 C 183.176 443.004 183.856 444.384 184.716 445.334 C 185.049 445.694 185.219 445.631 185.226 445.144 C 185.476 425.444 198.386 402.264 220.306 400.994 C 226.256 400.644 232.076 401.464 236.396 405.884 C 239.016 408.574 242.276 409.794 245.266 411.844 C 245.906 412.284 246.126 412.128 245.926 411.374 C 243.786 403.314 243.036 394.854 245.426 386.674 C 247.836 378.454 253.786 375.704 261.366 373.424 C 261.819 373.291 261.822 373.144 261.376 372.984 C 257.596 371.644 253.556 370.854 253.946 365.684 C 254.636 356.564 264.806 354.714 270.596 361.004 C 273.356 364.004 273.396 366.998 270.716 369.984 C 270.309 370.431 270.396 370.571 270.976 370.404 C 284.476 366.424 297.626 357.624 309.506 349.264 C 320.176 341.744 329.206 333.204 333.276 320.384 C 337.406 307.384 340.596 282.354 323.996 277.004 C 312.226 273.214 300.036 280.884 293.786 290.394 C 290.376 295.584 288.906 304.824 283.926 308.474 C 280.606 310.904 276.216 312.534 272.856 315.144 C 269.982 317.384 268.102 318.918 267.216 319.744 C 263.216 323.491 259.969 328.628 257.476 335.154 C 257.362 335.461 257.362 335.764 257.476 336.064 C 258.156 337.804 259.476 340.494 258.546 342.144 Z M 230.806 283.854 C 229.756 285.374 229.416 287.764 229.696 289.514 C 229.762 289.974 230.022 290.151 230.476 290.044 L 233.546 289.324 C 234.456 289.116 235.125 288.334 235.196 287.394 C 235.402 284.688 234.219 283.361 231.646 283.414 C 231.312 283.421 231.001 283.584 230.806 283.854 Z M 266.526 317.834 C 266.808 317.675 266.887 317.306 266.696 317.044 C 262.266 310.924 256.046 305.984 250.576 300.724 C 250.329 300.484 250.072 300.474 249.806 300.694 C 247.236 302.724 244.596 303.384 242.406 306.114 C 242.059 306.547 242.31 307.192 242.858 307.277 C 242.883 307.281 242.91 307.283 242.936 307.284 C 247.716 307.524 248.836 310.464 250.996 313.994 C 254.706 320.034 259.926 321.654 266.526 317.834 Z M 269.816 368.054 C 275.206 362.024 257.456 352.444 255.666 365.674 C 255.076 370.084 261.016 371.424 264.326 371.144 C 266.976 370.914 268.116 369.954 269.816 368.054 Z M 230.506 424.584 C 236.746 421.754 240.176 415.744 236.386 409.184 C 236.23 408.912 235.992 408.695 235.706 408.564 C 228.076 405.074 217.506 403.814 209.936 408.374 C 202.476 412.864 205.286 422.354 212.146 425.234 C 218.019 427.694 224.139 427.478 230.506 424.584 Z M 249.716 418.174 C 255.656 432.944 265.306 446.644 275.826 458.424 C 281.136 464.364 288.966 473.784 296.026 476.404 C 296.343 476.526 296.67 476.251 296.615 475.909 C 296.613 475.894 296.61 475.879 296.606 475.864 C 295.626 472.444 294.276 469.324 292.306 466.114 C 280.866 447.521 266.906 431.371 250.426 417.664 C 249.506 416.891 249.269 417.061 249.716 418.174 Z" style=""/>
  <rect fill="#050403" x="-7.83" y="-1.31" transform="matrix(0.819152, -0.573577, 0.573577, 0.819152, 241.55524, 261.984348)" width="15.66" height="2.62" rx="1.28" style=""/>
  <path fill="#f8efea" d="M 229.696 289.514 C 229.416 287.764 229.756 285.374 230.806 283.854 C 231.001 283.584 231.312 283.421 231.646 283.414 C 234.219 283.361 235.402 284.688 235.196 287.394 C 235.125 288.334 234.456 289.116 233.546 289.324 L 230.476 290.044 C 230.022 290.151 229.762 289.974 229.696 289.514 Z" style=""/>
</svg>