<?xml version="1.0" encoding="UTF-8" standalone="no"?>
<!DOCTYPE svg PUBLIC "-//W3C//DTD SVG 1.1//EN" "http://www.w3.org/Graphics/SVG/1.1/DTD/svg11.dtd">
<svg xmlns="http://www.w3.org/2000/svg" version="1.1" viewBox="0.00 0.00 224.00 224.00">
<g stroke-width="2.00" fill="none" stroke-linecap="butt">
<path stroke="#858484" vector-effect="non-scaling-stroke" d="
  M 102.26 71.75
  Q 101.24 71.68 101.97 70.97
  Q 110.58 62.60 121.56 57.73
  Q 122.95 57.11 123.20 58.61
  C 123.75 61.92 126.98 63.32 129.33 60.69
  C 133.39 56.13 129.55 52.90 124.57 55.56
  A 0.87 0.87 0.0 0 1 123.33 54.55
  Q 124.46 50.70 127.91 48.71
  A 1.75 1.75 0.0 0 1 130.40 49.56
  C 131.13 51.33 131.44 53.86 132.84 55.01
  C 136.42 57.98 146.16 54.67 149.73 52.76
  C 157.44 48.63 159.23 41.65 155.64 33.68
  C 151.27 23.98 142.66 17.92 131.74 18.18
  C 121.22 18.43 111.70 23.69 103.62 31.19
  C 88.14 45.57 73.70 67.49 70.15 88.90
  Q 70.12 89.07 70.29 89.11
  L 70.55 89.16
  A 0.44 0.44 0.0 0 0 71.06 88.83
  Q 78.73 58.14 100.77 35.51
  C 108.18 27.91 114.92 22.61 124.66 20.29
  C 135.17 17.80 144.26 19.71 151.01 28.27
  C 163.03 43.51 152.78 55.15 135.99 55.03
  C 130.70 54.99 133.53 49.14 129.77 47.73
  Q 128.45 47.23 126.87 48.14
  Q 122.61 50.62 122.23 55.79
  Q 122.19 56.31 121.71 56.52
  Q 108.08 62.34 98.21 73.35
  Q 97.90 73.69 98.25 73.99
  L 98.53 74.22
  A 0.63 0.62 -44.6 0 0 99.32 74.22
  C 105.34 69.37 109.44 75.29 112.24 79.74
  A 1.19 1.19 0.0 0 0 113.95 80.07
  C 118.66 76.62 122.32 73.54 121.80 66.64
  A 1.75 1.73 -82.8 0 0 120.64 65.13
  L 120.36 65.03
  A 1.36 1.35 12.5 0 0 118.56 66.17
  Q 118.23 69.37 119.10 72.49
  A 2.38 2.35 -29.0 0 1 118.40 74.89
  L 113.97 78.89
  A 0.76 0.76 0.0 0 1 112.84 78.76
  C 111.15 76.29 108.44 71.99 105.26 71.44
  C 104.21 71.26 103.24 71.82 102.26 71.75"
/>
<path stroke="#858484" vector-effect="non-scaling-stroke" d="
  M 75.04 176.70
  Q 74.88 176.96 74.76 177.25
  C 72.57 182.68 69.73 187.21 70.11 193.18
  A 0.99 0.99 0.0 0 0 71.58 193.98
  L 73.57 192.86
  A 0.39 0.39 0.0 0 1 74.04 193.48
  Q 73.63 193.90 73.45 194.50
  A 0.65 0.64 10.2 0 0 74.03 195.33
  Q 75.50 195.41 76.58 193.58
  Q 84.10 180.87 86.15 177.08
  Q 87.40 174.75 88.54 173.86
  Q 91.56 171.49 89.98 175.00
  C 89.13 176.88 88.47 184.07 92.25 184.42
  Q 92.60 184.45 92.77 184.28
  Q 93.22 183.83 92.64 183.57
  L 91.73 183.17
  Q 91.23 182.95 91.03 182.44
  C 89.71 179.02 90.72 176.64 91.56 173.54
  A 1.22 1.20 -65.5 0 0 91.08 172.23
  C 88.89 170.70 85.75 175.39 84.97 176.93
  Q 80.64 185.39 75.45 193.38
  Q 75.20 193.77 74.77 193.58
  Q 74.61 193.51 74.49 193.33
  Q 74.31 193.07 74.42 192.61
  C 75.51 187.75 78.59 182.39 80.92 177.72
  Q 81.70 176.18 79.98 176.33
  Q 78.71 176.45 77.70 178.46
  Q 74.59 184.64 72.54 191.26
  Q 72.27 192.14 71.72 192.51
  A 0.54 0.54 0.0 0 1 70.88 192.02
  C 71.38 185.57 75.30 178.39 78.19 172.66
  Q 78.43 172.18 77.92 172.01
  Q 77.42 171.84 76.98 172.18
  C 74.18 174.37 72.92 177.61 71.39 180.38
  Q 69.58 183.68 70.46 180.02
  Q 71.72 174.80 75.90 170.65
  C 80.49 166.12 84.94 161.07 79.50 155.21
  Q 75.76 151.18 71.44 147.78
  Q 61.86 140.25 51.66 133.60
  C 48.31 131.42 43.68 127.92 42.27 124.48
  Q 42.08 124.02 42.30 123.57
  Q 43.43 121.32 44.34 120.34
  C 57.95 105.64 72.13 94.57 87.59 83.35
  C 93.87 78.79 101.15 76.75 106.98 83.58
  C 110.42 87.62 110.25 93.30 106.47 96.99
  C 95.04 108.17 80.75 116.00 67.16 124.41
  A 0.69 0.69 0.0 0 0 66.99 125.43
  C 70.84 130.27 74.52 135.11 78.79 139.76
  Q 86.26 147.91 93.45 156.28
  C 95.99 159.24 97.30 160.66 96.90 164.88
  Q 96.11 173.38 95.42 182.48
  A 0.87 0.87 0.0 0 0 96.09 183.40
  Q 99.08 184.08 102.71 184.98
  Q 121.08 189.51 134.37 202.88
  C 136.65 205.17 139.13 207.09 141.97 204.76
  C 152.04 196.49 160.58 182.91 159.80 169.55
  C 159.10 157.64 151.04 147.42 141.33 140.73
  C 138.10 138.50 131.87 134.85 131.46 131.68
  Q 131.39 131.20 131.63 130.78
  Q 138.10 119.28 129.87 109.88
  C 127.04 106.66 122.32 102.76 119.71 98.76
  C 117.79 95.82 112.22 85.57 115.23 82.51
  Q 117.73 79.98 119.97 77.28
  A 0.55 0.54 -38.5 0 1 120.88 77.38
  C 122.22 80.13 125.93 85.06 128.96 85.92
  Q 130.36 86.32 132.05 85.04
  L 138.22 80.37
  A 0.74 0.73 70.0 0 0 138.52 79.72
  Q 138.40 77.74 139.98 76.93
  Q 140.45 76.69 140.91 76.94
  C 142.94 78.00 147.01 79.84 147.29 75.84
  C 147.42 73.99 147.26 72.12 148.05 70.47
  C 149.86 66.70 154.00 65.89 155.84 61.80
  Q 157.11 58.97 157.91 55.96
  C 158.48 53.83 157.40 52.05 155.02 52.82
  C 148.18 55.03 137.90 60.25 130.99 65.25
  C 127.24 67.96 124.03 71.62 120.79 75.09
  Q 120.52 75.38 120.17 76.08
  C 119.76 76.91 118.84 77.32 118.37 77.79
  Q 116.20 79.92 114.16 82.16
  Q 113.13 83.29 113.12 84.13
  C 113.00 91.85 119.75 101.96 125.37 106.90
  C 130.66 111.55 134.15 116.84 133.10 123.96
  C 132.75 126.33 131.62 128.66 130.54 130.90
  A 1.50 1.44 53.0 0 0 130.43 131.83
  Q 131.08 134.94 133.81 136.71
  C 144.94 143.97 156.62 153.15 158.65 167.34
  C 160.53 180.53 152.33 194.39 142.44 202.62
  C 140.44 204.28 139.03 205.91 136.86 203.65
  Q 120.29 186.30 96.75 182.52
  Q 96.14 182.43 96.21 181.82
  C 96.31 181.03 96.73 180.02 96.76 179.39
  Q 97.21 171.68 97.98 163.99
  Q 98.34 160.43 96.30 157.97
  C 87.71 147.60 77.13 136.75 68.46 125.53
  A 0.53 0.52 -34.9 0 1 68.60 124.76
  C 77.38 119.39 87.07 114.05 94.74 108.22
  Q 100.74 103.66 106.33 98.59
  C 116.75 89.15 105.56 74.60 93.86 78.89
  Q 88.19 80.97 83.36 84.55
  Q 65.49 97.80 49.51 113.25
  C 46.68 115.98 42.08 120.36 41.41 123.39
  C 40.51 127.52 48.83 132.90 51.70 134.79
  Q 65.51 143.89 77.84 154.90
  C 80.84 157.57 81.79 161.17 79.62 164.79
  Q 78.10 167.32 76.85 168.36
  Q 70.00 174.04 69.00 182.25
  Q 68.82 183.78 70.31 183.74
  A 0.77 0.75 13.6 0 0 70.96 183.35
  C 71.93 181.58 73.47 177.78 74.93 176.61
  Q 75.25 176.36 75.04 176.70"
/>
<path stroke="#858484" vector-effect="non-scaling-stroke" d="
  M 128.33 55.45
  L 124.34 56.65
  A 0.91 0.91 0.0 0 0 123.73 57.78
  L 123.78 57.94
  A 3.70 2.99 73.3 0 0 127.71 60.63
  L 127.71 60.63
  A 3.70 2.99 73.3 0 0 129.51 56.23
  L 129.46 56.06
  A 0.91 0.91 0.0 0 0 128.33 55.45"
/>
<path stroke="#858484" vector-effect="non-scaling-stroke" d="
  M 120.17 70.82
  Q 121.69 68.68 121.09 67.52
  Q 119.59 64.65 119.38 67.88
  Q 119.28 69.37 119.85 70.79
  Q 119.98 71.10 120.17 70.82"
/>
<path stroke="#858484" vector-effect="non-scaling-stroke" d="
  M 146.23 75.77
  C 145.94 69.63 147.91 68.14 152.14 64.65
  C 154.97 62.31 156.11 58.63 157.01 55.23
  A 1.19 1.19 0.0 0 0 155.45 53.81
  Q 144.82 57.80 134.91 63.93
  C 128.54 67.88 126.28 71.21 121.92 75.63
  A 0.97 0.97 0.0 0 0 121.73 76.74
  C 122.69 78.69 128.66 87.71 131.52 84.29
  Q 133.17 82.31 134.72 81.57
  Q 135.21 81.33 135.41 80.82
  Q 135.67 80.12 136.39 79.86
  A 1.55 1.39 -71.2 0 0 136.80 79.63
  Q 137.66 78.96 137.63 77.98
  A 2.59 2.29 12.9 0 1 141.26 76.00
  L 144.05 77.26
  A 1.55 1.55 0.0 0 0 146.23 75.77"
/>
<path stroke="#858484" vector-effect="non-scaling-stroke" d="
  M 76.3323 184.3075
  A 3.40 0.30 116.7 0 0 78.1280 181.4048
  A 3.40 0.30 116.7 0 0 79.3877 178.2325
  A 3.40 0.30 116.7 0 0 77.5920 181.1352
  A 3.40 0.30 116.7 0 0 76.3323 184.3075"
/>
</g>
<path fill="#ffffff" d="
  M 0.00 0.00
  L 224.00 0.00
  L 224.00 224.00
  L 0.00 224.00
  L 0.00 0.00
  Z
  M 102.26 71.75
  Q 101.24 71.68 101.97 70.97
  Q 110.58 62.60 121.56 57.73
  Q 122.95 57.11 123.20 58.61
  C 123.75 61.92 126.98 63.32 129.33 60.69
  C 133.39 56.13 129.55 52.90 124.57 55.56
  A 0.87 0.87 0.0 0 1 123.33 54.55
  Q 124.46 50.70 127.91 48.71
  A 1.75 1.75 0.0 0 1 130.40 49.56
  C 131.13 51.33 131.44 53.86 132.84 55.01
  C 136.42 57.98 146.16 54.67 149.73 52.76
  C 157.44 48.63 159.23 41.65 155.64 33.68
  C 151.27 23.98 142.66 17.92 131.74 18.18
  C 121.22 18.43 111.70 23.69 103.62 31.19
  C 88.14 45.57 73.70 67.49 70.15 88.90
  Q 70.12 89.07 70.29 89.11
  L 70.55 89.16
  A 0.44 0.44 0.0 0 0 71.06 88.83
  Q 78.73 58.14 100.77 35.51
  C 108.18 27.91 114.92 22.61 124.66 20.29
  C 135.17 17.80 144.26 19.71 151.01 28.27
  C 163.03 43.51 152.78 55.15 135.99 55.03
  C 130.70 54.99 133.53 49.14 129.77 47.73
  Q 128.45 47.23 126.87 48.14
  Q 122.61 50.62 122.23 55.79
  Q 122.19 56.31 121.71 56.52
  Q 108.08 62.34 98.21 73.35
  Q 97.90 73.69 98.25 73.99
  L 98.53 74.22
  A 0.63 0.62 -44.6 0 0 99.32 74.22
  C 105.34 69.37 109.44 75.29 112.24 79.74
  A 1.19 1.19 0.0 0 0 113.95 80.07
  C 118.66 76.62 122.32 73.54 121.80 66.64
  A 1.75 1.73 -82.8 0 0 120.64 65.13
  L 120.36 65.03
  A 1.36 1.35 12.5 0 0 118.56 66.17
  Q 118.23 69.37 119.10 72.49
  A 2.38 2.35 -29.0 0 1 118.40 74.89
  L 113.97 78.89
  A 0.76 0.76 0.0 0 1 112.84 78.76
  C 111.15 76.29 108.44 71.99 105.26 71.44
  C 104.21 71.26 103.24 71.82 102.26 71.75
  Z
  M 75.04 176.70
  Q 74.88 176.96 74.76 177.25
  C 72.57 182.68 69.73 187.21 70.11 193.18
  A 0.99 0.99 0.0 0 0 71.58 193.98
  L 73.57 192.86
  A 0.39 0.39 0.0 0 1 74.04 193.48
  Q 73.63 193.90 73.45 194.50
  A 0.65 0.64 10.2 0 0 74.03 195.33
  Q 75.50 195.41 76.58 193.58
  Q 84.10 180.87 86.15 177.08
  Q 87.40 174.75 88.54 173.86
  Q 91.56 171.49 89.98 175.00
  C 89.13 176.88 88.47 184.07 92.25 184.42
  Q 92.60 184.45 92.77 184.28
  Q 93.22 183.83 92.64 183.57
  L 91.73 183.17
  Q 91.23 182.95 91.03 182.44
  C 89.71 179.02 90.72 176.64 91.56 173.54
  A 1.22 1.20 -65.5 0 0 91.08 172.23
  C 88.89 170.70 85.75 175.39 84.97 176.93
  Q 80.64 185.39 75.45 193.38
  Q 75.20 193.77 74.77 193.58
  Q 74.61 193.51 74.49 193.33
  Q 74.31 193.07 74.42 192.61
  C 75.51 187.75 78.59 182.39 80.92 177.72
  Q 81.70 176.18 79.98 176.33
  Q 78.71 176.45 77.70 178.46
  Q 74.59 184.64 72.54 191.26
  Q 72.27 192.14 71.72 192.51
  A 0.54 0.54 0.0 0 1 70.88 192.02
  C 71.38 185.57 75.30 178.39 78.19 172.66
  Q 78.43 172.18 77.92 172.01
  Q 77.42 171.84 76.98 172.18
  C 74.18 174.37 72.92 177.61 71.39 180.38
  Q 69.58 183.68 70.46 180.02
  Q 71.72 174.80 75.90 170.65
  C 80.49 166.12 84.94 161.07 79.50 155.21
  Q 75.76 151.18 71.44 147.78
  Q 61.86 140.25 51.66 133.60
  C 48.31 131.42 43.68 127.92 42.27 124.48
  Q 42.08 124.02 42.30 123.57
  Q 43.43 121.32 44.34 120.34
  C 57.95 105.64 72.13 94.57 87.59 83.35
  C 93.87 78.79 101.15 76.75 106.98 83.58
  C 110.42 87.62 110.25 93.30 106.47 96.99
  C 95.04 108.17 80.75 116.00 67.16 124.41
  A 0.69 0.69 0.0 0 0 66.99 125.43
  C 70.84 130.27 74.52 135.11 78.79 139.76
  Q 86.26 147.91 93.45 156.28
  C 95.99 159.24 97.30 160.66 96.90 164.88
  Q 96.11 173.38 95.42 182.48
  A 0.87 0.87 0.0 0 0 96.09 183.40
  Q 99.08 184.08 102.71 184.98
  Q 121.08 189.51 134.37 202.88
  C 136.65 205.17 139.13 207.09 141.97 204.76
  C 152.04 196.49 160.58 182.91 159.80 169.55
  C 159.10 157.64 151.04 147.42 141.33 140.73
  C 138.10 138.50 131.87 134.85 131.46 131.68
  Q 131.39 131.20 131.63 130.78
  Q 138.10 119.28 129.87 109.88
  C 127.04 106.66 122.32 102.76 119.71 98.76
  C 117.79 95.82 112.22 85.57 115.23 82.51
  Q 117.73 79.98 119.97 77.28
  A 0.55 0.54 -38.5 0 1 120.88 77.38
  C 122.22 80.13 125.93 85.06 128.96 85.92
  Q 130.36 86.32 132.05 85.04
  L 138.22 80.37
  A 0.74 0.73 70.0 0 0 138.52 79.72
  Q 138.40 77.74 139.98 76.93
  Q 140.45 76.69 140.91 76.94
  C 142.94 78.00 147.01 79.84 147.29 75.84
  C 147.42 73.99 147.26 72.12 148.05 70.47
  C 149.86 66.70 154.00 65.89 155.84 61.80
  Q 157.11 58.97 157.91 55.96
  C 158.48 53.83 157.40 52.05 155.02 52.82
  C 148.18 55.03 137.90 60.25 130.99 65.25
  C 127.24 67.96 124.03 71.62 120.79 75.09
  Q 120.52 75.38 120.17 76.08
  C 119.76 76.91 118.84 77.32 118.37 77.79
  Q 116.20 79.92 114.16 82.16
  Q 113.13 83.29 113.12 84.13
  C 113.00 91.85 119.75 101.96 125.37 106.90
  C 130.66 111.55 134.15 116.84 133.10 123.96
  C 132.75 126.33 131.62 128.66 130.54 130.90
  A 1.50 1.44 53.0 0 0 130.43 131.83
  Q 131.08 134.94 133.81 136.71
  C 144.94 143.97 156.62 153.15 158.65 167.34
  C 160.53 180.53 152.33 194.39 142.44 202.62
  C 140.44 204.28 139.03 205.91 136.86 203.65
  Q 120.29 186.30 96.75 182.52
  Q 96.14 182.43 96.21 181.82
  C 96.31 181.03 96.73 180.02 96.76 179.39
  Q 97.21 171.68 97.98 163.99
  Q 98.34 160.43 96.30 157.97
  C 87.71 147.60 77.13 136.75 68.46 125.53
  A 0.53 0.52 -34.9 0 1 68.60 124.76
  C 77.38 119.39 87.07 114.05 94.74 108.22
  Q 100.74 103.66 106.33 98.59
  C 116.75 89.15 105.56 74.60 93.86 78.89
  Q 88.19 80.97 83.36 84.55
  Q 65.49 97.80 49.51 113.25
  C 46.68 115.98 42.08 120.36 41.41 123.39
  C 40.51 127.52 48.83 132.90 51.70 134.79
  Q 65.51 143.89 77.84 154.90
  C 80.84 157.57 81.79 161.17 79.62 164.79
  Q 78.10 167.32 76.85 168.36
  Q 70.00 174.04 69.00 182.25
  Q 68.82 183.78 70.31 183.74
  A 0.77 0.75 13.6 0 0 70.96 183.35
  C 71.93 181.58 73.47 177.78 74.93 176.61
  Q 75.25 176.36 75.04 176.70
  Z"
/>
<path fill="#0a0909" d="
  M 102.26 71.75
  C 103.24 71.82 104.21 71.26 105.26 71.44
  C 108.44 71.99 111.15 76.29 112.84 78.76
  A 0.76 0.76 0.0 0 0 113.97 78.89
  L 118.40 74.89
  A 2.38 2.35 -29.0 0 0 119.10 72.49
  Q 118.23 69.37 118.56 66.17
  A 1.36 1.35 12.5 0 1 120.36 65.03
  L 120.64 65.13
  A 1.75 1.73 -82.8 0 1 121.80 66.64
  C 122.32 73.54 118.66 76.62 113.95 80.07
  A 1.19 1.19 0.0 0 1 112.24 79.74
  C 109.44 75.29 105.34 69.37 99.32 74.22
  A 0.63 0.62 -44.6 0 1 98.53 74.22
  L 98.25 73.99
  Q 97.90 73.69 98.21 73.35
  Q 108.08 62.34 121.71 56.52
  Q 122.19 56.31 122.23 55.79
  Q 122.61 50.62 126.87 48.14
  Q 128.45 47.23 129.77 47.73
  C 133.53 49.14 130.70 54.99 135.99 55.03
  C 152.78 55.15 163.03 43.51 151.01 28.27
  C 144.26 19.71 135.17 17.80 124.66 20.29
  C 114.92 22.61 108.18 27.91 100.77 35.51
  Q 78.73 58.14 71.06 88.83
  A 0.44 0.44 0.0 0 1 70.55 89.16
  L 70.29 89.11
  Q 70.12 89.07 70.15 88.90
  C 73.70 67.49 88.14 45.57 103.62 31.19
  C 111.70 23.69 121.22 18.43 131.74 18.18
  C 142.66 17.92 151.27 23.98 155.64 33.68
  C 159.23 41.65 157.44 48.63 149.73 52.76
  C 146.16 54.67 136.42 57.98 132.84 55.01
  C 131.44 53.86 131.13 51.33 130.40 49.56
  A 1.75 1.75 0.0 0 0 127.91 48.71
  Q 124.46 50.70 123.33 54.55
  A 0.87 0.87 0.0 0 0 124.57 55.56
  C 129.55 52.90 133.39 56.13 129.33 60.69
  C 126.98 63.32 123.75 61.92 123.20 58.61
  Q 122.95 57.11 121.56 57.73
  Q 110.58 62.60 101.97 70.97
  Q 101.24 71.68 102.26 71.75
  Z
  M 128.33 55.45
  L 124.34 56.65
  A 0.91 0.91 0.0 0 0 123.73 57.78
  L 123.78 57.94
  A 3.70 2.99 73.3 0 0 127.71 60.63
  L 127.71 60.63
  A 3.70 2.99 73.3 0 0 129.51 56.23
  L 129.46 56.06
  A 0.91 0.91 0.0 0 0 128.33 55.45
  Z
  M 120.17 70.82
  Q 121.69 68.68 121.09 67.52
  Q 119.59 64.65 119.38 67.88
  Q 119.28 69.37 119.85 70.79
  Q 119.98 71.10 120.17 70.82
  Z"
/>
<path fill="#0a0909" d="
  M 74.93 176.61
  C 73.47 177.78 71.93 181.58 70.96 183.35
  A 0.77 0.75 13.6 0 1 70.31 183.74
  Q 68.82 183.78 69.00 182.25
  Q 70.00 174.04 76.85 168.36
  Q 78.10 167.32 79.62 164.79
  C 81.79 161.17 80.84 157.57 77.84 154.90
  Q 65.51 143.89 51.70 134.79
  C 48.83 132.90 40.51 127.52 41.41 123.39
  C 42.08 120.36 46.68 115.98 49.51 113.25
  Q 65.49 97.80 83.36 84.55
  Q 88.19 80.97 93.86 78.89
  C 105.56 74.60 116.75 89.15 106.33 98.59
  Q 100.74 103.66 94.74 108.22
  C 87.07 114.05 77.38 119.39 68.60 124.76
  A 0.53 0.52 -34.9 0 0 68.46 125.53
  C 77.13 136.75 87.71 147.60 96.30 157.97
  Q 98.34 160.43 97.98 163.99
  Q 97.21 171.68 96.76 179.39
  C 96.73 180.02 96.31 181.03 96.21 181.82
  Q 96.14 182.43 96.75 182.52
  Q 120.29 186.30 136.86 203.65
  C 139.03 205.91 140.44 204.28 142.44 202.62
  C 152.33 194.39 160.53 180.53 158.65 167.34
  C 156.62 153.15 144.94 143.97 133.81 136.71
  Q 131.08 134.94 130.43 131.83
  A 1.50 1.44 53.0 0 1 130.54 130.90
  C 131.62 128.66 132.75 126.33 133.10 123.96
  C 134.15 116.84 130.66 111.55 125.37 106.90
  C 119.75 101.96 113.00 91.85 113.12 84.13
  Q 113.13 83.29 114.16 82.16
  Q 116.20 79.92 118.37 77.79
  C 118.84 77.32 119.76 76.91 120.17 76.08
  Q 120.52 75.38 120.79 75.09
  C 124.03 71.62 127.24 67.96 130.99 65.25
  C 137.90 60.25 148.18 55.03 155.02 52.82
  C 157.40 52.05 158.48 53.83 157.91 55.96
  Q 157.11 58.97 155.84 61.80
  C 154.00 65.89 149.86 66.70 148.05 70.47
  C 147.26 72.12 147.42 73.99 147.29 75.84
  C 147.01 79.84 142.94 78.00 140.91 76.94
  Q 140.45 76.69 139.98 76.93
  Q 138.40 77.74 138.52 79.72
  A 0.74 0.73 70.0 0 1 138.22 80.37
  L 132.05 85.04
  Q 130.36 86.32 128.96 85.92
  C 125.93 85.06 122.22 80.13 120.88 77.38
  A 0.55 0.54 -38.5 0 0 119.97 77.28
  Q 117.73 79.98 115.23 82.51
  C 112.22 85.57 117.79 95.82 119.71 98.76
  C 122.32 102.76 127.04 106.66 129.87 109.88
  Q 138.10 119.28 131.63 130.78
  Q 131.39 131.20 131.46 131.68
  C 131.87 134.85 138.10 138.50 141.33 140.73
  C 151.04 147.42 159.10 157.64 159.80 169.55
  C 160.58 182.91 152.04 196.49 141.97 204.76
  C 139.13 207.09 136.65 205.17 134.37 202.88
  Q 121.08 189.51 102.71 184.98
  Q 99.08 184.08 96.09 183.40
  A 0.87 0.87 0.0 0 1 95.42 182.48
  Q 96.11 173.38 96.90 164.88
  C 97.30 160.66 95.99 159.24 93.45 156.28
  Q 86.26 147.91 78.79 139.76
  C 74.52 135.11 70.84 130.27 66.99 125.43
  A 0.69 0.69 0.0 0 1 67.16 124.41
  C 80.75 116.00 95.04 108.17 106.47 96.99
  C 110.25 93.30 110.42 87.62 106.98 83.58
  C 101.15 76.75 93.87 78.79 87.59 83.35
  C 72.13 94.57 57.95 105.64 44.34 120.34
  Q 43.43 121.32 42.30 123.57
  Q 42.08 124.02 42.27 124.48
  C 43.68 127.92 48.31 131.42 51.66 133.60
  Q 61.86 140.25 71.44 147.78
  Q 75.76 151.18 79.50 155.21
  C 84.94 161.07 80.49 166.12 75.90 170.65
  Q 71.72 174.80 70.46 180.02
  Q 69.58 183.68 71.39 180.38
  C 72.92 177.61 74.18 174.37 76.98 172.18
  Q 77.42 171.84 77.92 172.01
  Q 78.43 172.18 78.19 172.66
  C 75.30 178.39 71.38 185.57 70.88 192.02
  A 0.54 0.54 0.0 0 0 71.72 192.51
  Q 72.27 192.14 72.54 191.26
  Q 74.59 184.64 77.70 178.46
  Q 78.71 176.45 79.98 176.33
  Q 81.70 176.18 80.92 177.72
  C 78.59 182.39 75.51 187.75 74.42 192.61
  Q 74.31 193.07 74.49 193.33
  Q 74.61 193.51 74.77 193.58
  Q 75.20 193.77 75.45 193.38
  Q 80.64 185.39 84.97 176.93
  C 85.75 175.39 88.89 170.70 91.08 172.23
  A 1.22 1.20 -65.5 0 1 91.56 173.54
  C 90.72 176.64 89.71 179.02 91.03 182.44
  Q 91.23 182.95 91.73 183.17
  L 92.64 183.57
  Q 93.22 183.83 92.77 184.28
  Q 92.60 184.45 92.25 184.42
  C 88.47 184.07 89.13 176.88 89.98 175.00
  Q 91.56 171.49 88.54 173.86
  Q 87.40 174.75 86.15 177.08
  Q 84.10 180.87 76.58 193.58
  Q 75.50 195.41 74.03 195.33
  A 0.65 0.64 10.2 0 1 73.45 194.50
  Q 73.63 193.90 74.04 193.48
  A 0.39 0.39 0.0 0 0 73.57 192.86
  L 71.58 193.98
  A 0.99 0.99 0.0 0 1 70.11 193.18
  C 69.73 187.21 72.57 182.68 74.76 177.25
  Q 74.88 176.96 75.04 176.70
  Q 75.25 176.36 74.93 176.61
  Z
  M 146.23 75.77
  C 145.94 69.63 147.91 68.14 152.14 64.65
  C 154.97 62.31 156.11 58.63 157.01 55.23
  A 1.19 1.19 0.0 0 0 155.45 53.81
  Q 144.82 57.80 134.91 63.93
  C 128.54 67.88 126.28 71.21 121.92 75.63
  A 0.97 0.97 0.0 0 0 121.73 76.74
  C 122.69 78.69 128.66 87.71 131.52 84.29
  Q 133.17 82.31 134.72 81.57
  Q 135.21 81.33 135.41 80.82
  Q 135.67 80.12 136.39 79.86
  A 1.55 1.39 -71.2 0 0 136.80 79.63
  Q 137.66 78.96 137.63 77.98
  A 2.59 2.29 12.9 0 1 141.26 76.00
  L 144.05 77.26
  A 1.55 1.55 0.0 0 0 146.23 75.77
  Z
  M 76.3323 184.3075
  A 3.40 0.30 116.7 0 0 78.1280 181.4048
  A 3.40 0.30 116.7 0 0 79.3877 178.2325
  A 3.40 0.30 116.7 0 0 77.5920 181.1352
  A 3.40 0.30 116.7 0 0 76.3323 184.3075
  Z"
/>
<path fill="#ffffff" d="
  M 152.14 64.65
  C 147.91 68.14 145.94 69.63 146.23 75.77
  A 1.55 1.55 0.0 0 1 144.05 77.26
  L 141.26 76.00
  A 2.59 2.29 12.9 0 0 137.63 77.98
  Q 137.66 78.96 136.80 79.63
  A 1.55 1.39 -71.2 0 1 136.39 79.86
  Q 135.67 80.12 135.41 80.82
  Q 135.21 81.33 134.72 81.57
  Q 133.17 82.31 131.52 84.29
  C 128.66 87.71 122.69 78.69 121.73 76.74
  A 0.97 0.97 0.0 0 1 121.92 75.63
  C 126.28 71.21 128.54 67.88 134.91 63.93
  Q 144.82 57.80 155.45 53.81
  A 1.19 1.19 0.0 0 1 157.01 55.23
  C 156.11 58.63 154.97 62.31 152.14 64.65
  Z"
/>
<path fill="#ffffff" d="
  M 128.33 55.45
  A 0.91 0.91 0.0 0 1 129.46 56.06
  L 129.51 56.23
  A 3.70 2.99 73.3 0 1 127.71 60.63
  L 127.71 60.63
  A 3.70 2.99 73.3 0 1 123.78 57.94
  L 123.73 57.78
  A 0.91 0.91 0.0 0 1 124.34 56.65
  L 128.33 55.45
  Z"
/>
<path fill="#ffffff" d="
  M 119.85 70.79
  Q 119.28 69.37 119.38 67.88
  Q 119.59 64.65 121.09 67.52
  Q 121.69 68.68 120.17 70.82
  Q 119.98 71.10 119.85 70.79
  Z"
/>
<ellipse fill="#ffffff" cx="0.00" cy="0.00" transform="translate(77.86,181.27) rotate(116.7)" rx="3.40" ry="0.30"/>
</svg>
